<svg xmlns="http://www.w3.org/2000/svg" viewBox="0 0 81 45"><defs><style>.cls-1{fill:none;}.cls-2{fill:#029c86;}.cls-3{fill:#fff;}.cls-4{fill:#58c6c7;}</style></defs><title>Recurso 9</title><g id="Capa_2" data-name="Capa 2"><g id="Capa_2-2" data-name="Capa 2"><path class="cls-1" d="M36,23h0c0-.17,0-.33,0-.5C36,22.67,36,22.83,36,23Z"/><path class="cls-1" d="M9,23H9c0-.17,0-.33,0-.5A4.23,4.23,0,0,1,9,23Z"/><path class="cls-1" d="M0,22.5c0,.17,0,.33,0,.5h0A4.23,4.23,0,0,1,0,22.5Z"/><path class="cls-1" d="M22.5,9A13.49,13.49,0,0,0,9,22.5c0,.17,0,.33,0,.5H36c0-.17,0-.33,0-.5A13.49,13.49,0,0,0,22.5,9Z"/><path class="cls-1" d="M22.5,36A13.48,13.48,0,0,0,36,23H9A13.48,13.48,0,0,0,22.5,36Z"/><path class="cls-2" d="M4.5,27A4.48,4.48,0,0,0,9,23H.05A4.48,4.48,0,0,0,4.5,27Z"/><path class="cls-1" d="M81,23h0c0-.17,0-.33,0-.5A4.23,4.23,0,0,1,81,23Z"/><path class="cls-1" d="M45,23h0c0-.17,0-.33,0-.5C45,22.67,45,22.83,45,23Z"/><path class="cls-3" d="M36,23A13.48,13.48,0,0,1,9,23H9A4.23,4.23,0,0,0,9,22.5a4.5,4.5,0,0,0-9,0,4.23,4.23,0,0,0,.05.5H0A22.5,22.5,0,0,0,40.5,36,22.44,22.44,0,0,1,36,23Z"/><path class="cls-3" d="M58.5,0a22.47,22.47,0,0,0-18,9A22.36,22.36,0,0,1,45,22.5a13.5,13.5,0,0,1,27,0,4.5,4.5,0,0,1,9,0A22.5,22.5,0,0,0,58.5,0Z"/><path class="cls-1" d="M72,23h.08a4.23,4.23,0,0,1,0-.5C72,22.67,72,22.83,72,23Z"/><path class="cls-1" d="M58.5,9A13.49,13.49,0,0,0,45,22.5c0,.17,0,.33,0,.5H72c0-.17,0-.33,0-.5A13.49,13.49,0,0,0,58.5,9Z"/><path class="cls-1" d="M58.5,36A13.48,13.48,0,0,0,72,23H45A13.48,13.48,0,0,0,58.5,36Z"/><path class="cls-4" d="M81,22.5a4.5,4.5,0,0,0-9,0,4.23,4.23,0,0,0,0,.5H72A13.48,13.48,0,0,1,45,23h0c0-.17,0-.33,0-.5a22.5,22.5,0,0,0-45,0,4.5,4.5,0,0,1,9,0,13.5,13.5,0,0,1,27,0c0,.17,0,.33,0,.5a22.5,22.5,0,0,0,45,0h0A4.23,4.23,0,0,0,81,22.5Z"/></g></g></svg>