<svg version="1.2" xmlns="http://www.w3.org/2000/svg" viewBox="0 0 1200 700" width="1200" height="700">
	<title>4102346_910-ai</title>
	<defs>
		<radialGradient id="g1" cx="193.1" cy="414.7" r="131.7" gradientUnits="userSpaceOnUse">
			<stop offset="0" stop-color="#f8359e" stop-opacity="1"/>
			<stop offset="1" stop-color="#000000" stop-opacity="0"/>
		</radialGradient>
		<radialGradient id="g2" cx="528.5" cy="364.6" r="131.7" gradientUnits="userSpaceOnUse">
			<stop offset="0" stop-color="#f8359e" stop-opacity="1"/>
			<stop offset="1" stop-color="#000000" stop-opacity="0"/>
		</radialGradient>
		<radialGradient id="g3" cx="696.6" cy="319.7" r="131.7" gradientUnits="userSpaceOnUse">
			<stop offset="0" stop-color="#f8359e" stop-opacity="1"/>
			<stop offset="1" stop-color="#000000" stop-opacity="0"/>
		</radialGradient>
		<linearGradient id="g4" x1="121.6" y1="499.7" x2="212.1" y2="499.7" gradientUnits="userSpaceOnUse">
			<stop offset="0" stop-color="#01c8ef"/>
			<stop offset="1" stop-color="#172f78"/>
		</linearGradient>
		<radialGradient id="g5" cx="105.6" cy="469" r="202.1" gradientUnits="userSpaceOnUse">
			<stop offset="0" stop-color="#01c8ef"/>
			<stop offset="1" stop-color="#172f78"/>
		</radialGradient>
		<linearGradient id="g6" x1="121.6" y1="451.6" x2="212.1" y2="451.6" gradientUnits="userSpaceOnUse">
			<stop offset="0" stop-color="#01c8ef"/>
			<stop offset="1" stop-color="#172f78"/>
		</linearGradient>
		<radialGradient id="g7" cx="105.6" cy="420.9" r="202.1" gradientUnits="userSpaceOnUse">
			<stop offset="0" stop-color="#01c8ef"/>
			<stop offset="1" stop-color="#172f78"/>
		</radialGradient>
		<linearGradient id="g8" x1="121.6" y1="403.6" x2="212.1" y2="403.6" gradientUnits="userSpaceOnUse">
			<stop offset="0" stop-color="#01c8ef"/>
			<stop offset="1" stop-color="#172f78"/>
		</linearGradient>
		<radialGradient id="g9" cx="105.6" cy="372.9" r="202.1" gradientUnits="userSpaceOnUse">
			<stop offset="0" stop-color="#01c8ef"/>
			<stop offset="1" stop-color="#172f78"/>
		</radialGradient>
		<radialGradient id="g10" cx="123.4" cy="385" r="138.9" gradientUnits="userSpaceOnUse">
			<stop offset="0" stop-color="#f9636b"/>
			<stop offset="1" stop-color="#b6246e"/>
		</radialGradient>
		<linearGradient id="g11" x1="289.3" y1="499.7" x2="379.8" y2="499.7" gradientUnits="userSpaceOnUse">
			<stop offset="0" stop-color="#01c8ef"/>
			<stop offset="1" stop-color="#172f78"/>
		</linearGradient>
		<radialGradient id="g12" cx="273.3" cy="469" r="202.1" gradientUnits="userSpaceOnUse">
			<stop offset="0" stop-color="#01c8ef"/>
			<stop offset="1" stop-color="#172f78"/>
		</radialGradient>
		<linearGradient id="g13" x1="289.3" y1="451.6" x2="379.8" y2="451.6" gradientUnits="userSpaceOnUse">
			<stop offset="0" stop-color="#01c8ef"/>
			<stop offset="1" stop-color="#172f78"/>
		</linearGradient>
		<radialGradient id="g14" cx="273.3" cy="420.9" r="202.1" gradientUnits="userSpaceOnUse">
			<stop offset="0" stop-color="#01c8ef"/>
			<stop offset="1" stop-color="#172f78"/>
		</radialGradient>
		<linearGradient id="g15" x1="457" y1="499.7" x2="547.5" y2="499.7" gradientUnits="userSpaceOnUse">
			<stop offset="0" stop-color="#01c8ef"/>
			<stop offset="1" stop-color="#172f78"/>
		</linearGradient>
		<radialGradient id="g16" cx="441" cy="469" r="202.1" gradientUnits="userSpaceOnUse">
			<stop offset="0" stop-color="#01c8ef"/>
			<stop offset="1" stop-color="#172f78"/>
		</radialGradient>
		<linearGradient id="g17" x1="457" y1="451.6" x2="547.5" y2="451.6" gradientUnits="userSpaceOnUse">
			<stop offset="0" stop-color="#01c8ef"/>
			<stop offset="1" stop-color="#172f78"/>
		</linearGradient>
		<radialGradient id="g18" cx="441" cy="420.9" r="202.1" gradientUnits="userSpaceOnUse">
			<stop offset="0" stop-color="#01c8ef"/>
			<stop offset="1" stop-color="#172f78"/>
		</radialGradient>
		<linearGradient id="g19" x1="457" y1="403.6" x2="547.5" y2="403.6" gradientUnits="userSpaceOnUse">
			<stop offset="0" stop-color="#01c8ef"/>
			<stop offset="1" stop-color="#172f78"/>
		</linearGradient>
		<radialGradient id="g20" cx="441" cy="372.9" r="202.1" gradientUnits="userSpaceOnUse">
			<stop offset="0" stop-color="#01c8ef"/>
			<stop offset="1" stop-color="#172f78"/>
		</radialGradient>
		<radialGradient id="g21" cx="458.8" cy="385" r="138.9" gradientUnits="userSpaceOnUse">
			<stop offset="0" stop-color="#f9636b"/>
			<stop offset="1" stop-color="#b6246e"/>
		</radialGradient>
		<linearGradient id="g22" x1="457" y1="356.1" x2="547.5" y2="356.1" gradientUnits="userSpaceOnUse">
			<stop offset="0" stop-color="#01c8ef"/>
			<stop offset="1" stop-color="#172f78"/>
		</linearGradient>
		<radialGradient id="g23" cx="441" cy="325.4" r="202.1" gradientUnits="userSpaceOnUse">
			<stop offset="0" stop-color="#01c8ef"/>
			<stop offset="1" stop-color="#172f78"/>
		</radialGradient>
		<radialGradient id="g24" cx="458.8" cy="337.5" r="138.9" gradientUnits="userSpaceOnUse">
			<stop offset="0" stop-color="#f9636b"/>
			<stop offset="1" stop-color="#b6246e"/>
		</radialGradient>
		<linearGradient id="g25" x1="624.7" y1="499.7" x2="715.2" y2="499.7" gradientUnits="userSpaceOnUse">
			<stop offset="0" stop-color="#01c8ef"/>
			<stop offset="1" stop-color="#172f78"/>
		</linearGradient>
		<radialGradient id="g26" cx="608.7" cy="469" r="202.1" gradientUnits="userSpaceOnUse">
			<stop offset="0" stop-color="#01c8ef"/>
			<stop offset="1" stop-color="#172f78"/>
		</radialGradient>
		<linearGradient id="g27" x1="624.7" y1="451.6" x2="715.2" y2="451.6" gradientUnits="userSpaceOnUse">
			<stop offset="0" stop-color="#01c8ef"/>
			<stop offset="1" stop-color="#172f78"/>
		</linearGradient>
		<radialGradient id="g28" cx="608.7" cy="420.9" r="202.1" gradientUnits="userSpaceOnUse">
			<stop offset="0" stop-color="#01c8ef"/>
			<stop offset="1" stop-color="#172f78"/>
		</radialGradient>
		<linearGradient id="g29" x1="624.7" y1="403.6" x2="715.2" y2="403.6" gradientUnits="userSpaceOnUse">
			<stop offset="0" stop-color="#01c8ef"/>
			<stop offset="1" stop-color="#172f78"/>
		</linearGradient>
		<radialGradient id="g30" cx="608.7" cy="372.9" r="202.1" gradientUnits="userSpaceOnUse">
			<stop offset="0" stop-color="#01c8ef"/>
			<stop offset="1" stop-color="#172f78"/>
		</radialGradient>
		<radialGradient id="g31" cx="626.5" cy="385" r="138.9" gradientUnits="userSpaceOnUse">
			<stop offset="0" stop-color="#f9636b"/>
			<stop offset="1" stop-color="#b6246e"/>
		</radialGradient>
		<linearGradient id="g32" x1="624.7" y1="356.4" x2="715.2" y2="356.4" gradientUnits="userSpaceOnUse">
			<stop offset="0" stop-color="#01c8ef"/>
			<stop offset="1" stop-color="#172f78"/>
		</linearGradient>
		<radialGradient id="g33" cx="608.7" cy="325.7" r="202.1" gradientUnits="userSpaceOnUse">
			<stop offset="0" stop-color="#f9636b"/>
			<stop offset="1" stop-color="#b6246e"/>
		</radialGradient>
		<linearGradient id="g34" x1="624.7" y1="308.4" x2="715.2" y2="308.4" gradientUnits="userSpaceOnUse">
			<stop offset="0" stop-color="#01c8ef"/>
			<stop offset="1" stop-color="#172f78"/>
		</linearGradient>
		<radialGradient id="g35" cx="608.7" cy="277.6" r="202.1" gradientUnits="userSpaceOnUse">
			<stop offset="0" stop-color="#01c8ef"/>
			<stop offset="1" stop-color="#172f78"/>
		</radialGradient>
		<radialGradient id="g36" cx="626.5" cy="289.8" r="138.9" gradientUnits="userSpaceOnUse">
			<stop offset="0" stop-color="#f9636b"/>
			<stop offset="1" stop-color="#b6246e"/>
		</radialGradient>
		<radialGradient id="g37" cx="965.8" cy="154.7" r="131.7" gradientUnits="userSpaceOnUse">
			<stop offset="0" stop-color="#f8359e" stop-opacity="1"/>
			<stop offset="1" stop-color="#000000" stop-opacity="0"/>
		</radialGradient>
		<linearGradient id="g38" x1="862.4" y1="153.5" x2="992.8" y2="153.5" gradientUnits="userSpaceOnUse">
			<stop offset="0" stop-color="#01c8ef"/>
			<stop offset="1" stop-color="#172f78"/>
		</linearGradient>
		<radialGradient id="g39" cx="839.3" cy="109.3" r="291.3" gradientUnits="userSpaceOnUse">
			<stop offset="0" stop-color="#01c8ef"/>
			<stop offset="1" stop-color="#172f78"/>
		</radialGradient>
		<radialGradient id="g40" cx="865" cy="126.8" r="200.3" gradientUnits="userSpaceOnUse">
			<stop offset="0" stop-color="#f9636b"/>
			<stop offset="1" stop-color="#b6246e"/>
		</radialGradient>
		<radialGradient id="g41" cx="965.8" cy="504.5" r="191.2" gradientUnits="userSpaceOnUse">
			<stop offset="0" stop-color="#01c8ef" stop-opacity="1"/>
			<stop offset="1" stop-color="#020230" stop-opacity="0"/>
		</radialGradient>
		<linearGradient id="g42" x1="862.6" y1="419.2" x2="993" y2="419.2" gradientUnits="userSpaceOnUse">
			<stop offset="0" stop-color="#01c8ef"/>
			<stop offset="1" stop-color="#172f78"/>
		</linearGradient>
		<radialGradient id="g43" cx="839.5" cy="374.9" r="291.3" gradientUnits="userSpaceOnUse">
			<stop offset="0" stop-color="#01c8ef"/>
			<stop offset="1" stop-color="#172f78"/>
		</radialGradient>
	</defs>
	<style>
		.s0 { opacity: .4;fill: #172f78 } 
		.s1 { fill: #172f78 } 
		.s2 { opacity: .6;fill: #172f78 } 
		.s3 { opacity: .8;fill: #172f78 } 
		.s4 { opacity: .4;fill: #03a7d3 } 
		.s5 { opacity: .8;fill: #03a7d3 } 
		.s6 { opacity: .6;fill: url(#g1) } 
		.s7 { opacity: .6;fill: url(#g2) } 
		.s8 { opacity: .6;fill: url(#g3) } 
		.s9 { fill: #03a7d3 } 
		.s10 { fill: url(#g4) } 
		.s11 { fill: url(#g5) } 
		.s12 { fill: #ffffff } 
		.s13 { opacity: .4;fill: #06033e } 
		.s14 { fill: url(#g6) } 
		.s15 { fill: url(#g7) } 
		.s16 { fill: url(#g8) } 
		.s17 { fill: url(#g9) } 
		.s18 { fill: url(#g10) } 
		.s19 { fill: #8b1e64 } 
		.s20 { fill: url(#g11) } 
		.s21 { fill: url(#g12) } 
		.s22 { fill: url(#g13) } 
		.s23 { fill: url(#g14) } 
		.s24 { fill: url(#g15) } 
		.s25 { fill: url(#g16) } 
		.s26 { fill: url(#g17) } 
		.s27 { fill: url(#g18) } 
		.s28 { fill: url(#g19) } 
		.s29 { fill: url(#g20) } 
		.s30 { fill: url(#g21) } 
		.s31 { fill: url(#g22) } 
		.s32 { fill: url(#g23) } 
		.s33 { fill: url(#g24) } 
		.s34 { fill: url(#g25) } 
		.s35 { fill: url(#g26) } 
		.s36 { fill: url(#g27) } 
		.s37 { fill: url(#g28) } 
		.s38 { fill: url(#g29) } 
		.s39 { fill: url(#g30) } 
		.s40 { fill: url(#g31) } 
		.s41 { fill: url(#g32) } 
		.s42 { fill: url(#g33) } 
		.s43 { fill: url(#g34) } 
		.s44 { fill: url(#g35) } 
		.s45 { fill: url(#g36) } 
		.s46 { fill: #11203c } 
		.s47 { opacity: .6;fill: url(#g37) } 
		.s48 { fill: url(#g38) } 
		.s49 { fill: url(#g39) } 
		.s50 { fill: url(#g40) } 
		.s51 { opacity: .3;fill: url(#g41) } 
		.s52 { fill: url(#g42) } 
		.s53 { fill: url(#g43) } 
	</style>
	<g id="_Artboards_">
	</g>
	<g id="321353356351 1">
		<g id="&lt;Group&gt;">
			<g id="&lt;Group&gt;">
				<g id="&lt;Clip Group&gt;">
					<g id="&lt;Group&gt;" style="opacity: .8">
					</g>
				</g>
				<path id="&lt;Path&gt;" class="s0" d="m783.9 698.3l-0.6-0.9 286.7-176.3 0.6 1z"/>
				<path id="&lt;Path&gt;" class="s1" d="m606.5 287.2l-33.2-88.8 271.8 31.6-0.1 1.1-270.1-31.4 32.6 87.1z"/>
				<path id="&lt;Path&gt;" class="s2" d="m716.3 698.3l-300.6-176.5-392.1 168.6-0.4-1 392.6-168.8 0.2 0.1 300.8 176.7z"/>
				<path id="&lt;Path&gt;" class="s2" d="m248.3 422.6l-248.6-146.5 0.6-0.9 248.6 146.5z"/>
			</g>
		</g>
		<g id="&lt;Group&gt;">
			<g id="&lt;Group&gt;">
				<g id="&lt;Group&gt;">
				</g>
				<g id="&lt;Group&gt;">
				</g>
				<g id="&lt;Group&gt;">
				</g>
				<g id="&lt;Group&gt;">
				</g>
			</g>
		</g>
		<g id="&lt;Group&gt;">
			<path id="&lt;Path&gt;" class="s3" d="m460 560.1c0 2.1-1.7 3.7-3.7 3.7-2.1 0-3.8-1.6-3.8-3.7 0-2 1.7-3.7 3.8-3.7 2 0 3.7 1.7 3.7 3.7z"/>
			<path id="&lt;Path&gt;" class="s0" d="m310.6 610.3c0 3.8-3 6.8-6.7 6.8-3.7 0-6.7-3-6.7-6.8 0-3.7 3-6.7 6.7-6.7 3.7 0 6.7 3 6.7 6.7z"/>
			<path id="&lt;Path&gt;" class="s0" d="m391.1 365.8c0 1.5-1.2 2.7-2.7 2.7-1.5 0-2.7-1.2-2.7-2.7 0-1.5 1.2-2.7 2.7-2.7 1.5 0 2.7 1.2 2.7 2.7z"/>
			<path id="&lt;Path&gt;" class="s2" d="m90.4 302.7c0 1.5-1.2 2.7-2.7 2.7-1.5 0-2.7-1.2-2.7-2.7 0-1.5 1.2-2.7 2.7-2.7 1.5 0 2.7 1.2 2.7 2.7z"/>
			<path id="&lt;Path&gt;" class="s2" d="m229.6 264c0 2.2-1.8 4-4 4-2.2 0-4-1.8-4-4 0-2.2 1.8-4 4-4 2.2 0 4 1.8 4 4z"/>
			<path id="&lt;Path&gt;" class="s3" d="m227.3 264c0 0.9-0.8 1.6-1.7 1.6-0.9 0-1.7-0.7-1.7-1.6 0-0.9 0.8-1.7 1.7-1.7 0.9 0 1.7 0.8 1.7 1.7z"/>
			<g id="&lt;Group&gt;">
				<path id="&lt;Path&gt;" class="s4" d="m383 309.9c0 3-2.5 5.5-5.5 5.5-3 0-5.5-2.5-5.5-5.5 0-3 2.5-5.5 5.5-5.5 3 0 5.5 2.5 5.5 5.5z"/>
				<path id="&lt;Path&gt;" class="s5" d="m380.2 309.9c0 1.5-1.2 2.7-2.7 2.7-1.5 0-2.7-1.2-2.7-2.7 0-1.5 1.2-2.7 2.7-2.7 1.5 0 2.7 1.2 2.7 2.7z"/>
			</g>
			<path id="&lt;Path&gt;" class="s4" d="m586.9 531.4c0 1.7-1.3 3-2.9 3-1.7 0-3-1.3-3-3 0-1.6 1.3-2.9 3-2.9 1.6 0 2.9 1.3 2.9 2.9z"/>
			<path id="&lt;Path&gt;" class="s4" d="m563 367.6c0 1-0.8 1.7-1.7 1.7-0.9 0-1.6-0.7-1.6-1.7 0-0.9 0.7-1.6 1.6-1.6 0.9 0 1.7 0.7 1.7 1.6z"/>
			<path id="&lt;Path&gt;" class="s4" d="m336.4 501.4c0 0.9-0.8 1.7-1.7 1.7-0.9 0-1.7-0.8-1.7-1.7 0-0.9 0.8-1.7 1.7-1.7 0.9 0 1.7 0.8 1.7 1.7z"/>
			<path id="&lt;Path&gt;" class="s6" d="m324.8 414.7c0 72.7-58.9 131.7-131.7 131.7-72.7 0-131.7-59-131.7-131.7 0-72.7 59-131.7 131.7-131.7 72.8 0 131.7 59 131.7 131.7z"/>
			<path id="&lt;Path&gt;" class="s7" d="m660.2 364.6c0 72.8-58.9 131.7-131.7 131.7-72.7 0-131.7-58.9-131.7-131.7 0-72.7 59-131.7 131.7-131.7 72.8 0 131.7 59 131.7 131.7z"/>
			<path id="&lt;Path&gt;" class="s8" d="m828.3 319.7c0 72.7-58.9 131.7-131.7 131.7-72.7 0-131.7-59-131.7-131.7 0-72.7 59-131.7 131.7-131.7 72.8 0 131.7 59 131.7 131.7z"/>
			<g id="&lt;Group&gt;">
				<path id="&lt;Path&gt;" class="s2" d="m144.7 506.7c14.6-4.3 31.9-6.7 50.4-6.5q3.7 0 7.3 0.2c16.2 1.5 22 18.6 12.2 26.1-4.5 3.4-9.9 3.4-12.2 3.4q-3.6-0.2-7.3-0.2c-18.5-0.1-35.8 2.2-50.4 6.5-14.8 3.6-15.7-11.4-10.5-20.6 1.7-3.1 4.9-7.2 10.5-8.9z"/>
				<path id="&lt;Compound Path&gt;" fill-rule="evenodd" class="s9" d="m140.5 537.1c-3.9 0-6.1-1.7-7.4-3.4-3.5-4.6-2.2-12.9 0.8-18.3 1.8-3.1 5.1-7.2 10.7-9 14.7-4.3 31.5-6.5 48.9-6.5q0.8 0 1.6 0c2.4 0 4.9 0.1 7.3 0.2 8.1 0.7 14.7 5.7 16.7 12.6 1.6 5.4-0.1 10.8-4.3 14.1-4.6 3.5-10.1 3.4-12.4 3.4q-3.7-0.2-7.3-0.2-0.8 0-1.6 0c-17.3 0-34.1 2.2-48.8 6.5q-2.3 0.6-4.2 0.6zm4.3-30.1c-5.5 1.7-8.6 5.7-10.4 8.7-2.9 5.2-4.2 13.2-0.8 17.7 2.2 2.8 6 3.7 11 2.5 14.7-4.3 31.6-6.5 48.9-6.5q0.8 0 1.6 0c2.4 0 4.9 0.1 7.3 0.2 2.2 0 7.6 0 12-3.3 4-3.1 5.6-8.2 4.1-13.4-1.9-6.7-8.3-11.5-16.2-12.2-2.4-0.1-4.8-0.2-7.2-0.2-17.8-0.2-35.2 2.1-50.3 6.5z"/>
			</g>
			<g id="&lt;Group&gt;">
				<path id="&lt;Compound Path&gt;" fill-rule="evenodd" class="s9" d="m193.4 591.3c-2.9 0-5.8-0.6-8-1.9l-53.4-30.8c-2.2-1.3-3.4-3-3.4-4.9 0-1.9 1.2-3.6 3.4-4.9l53.1-30.9c4.4-2.5 11.6-2.5 15.9 0l53.5 30.9c2.2 1.3 3.4 3 3.4 4.9 0 1.8-1.2 3.5-3.4 4.8l-53.2 30.9c-2.2 1.3-5.1 1.9-7.9 1.9zm-0.3-74.3c-2.7 0-5.4 0.6-7.5 1.8l-53.1 30.9c-1.9 1.1-2.9 2.5-2.9 4 0 1.5 1 2.9 2.9 4l53.4 30.9c4.1 2.3 10.8 2.3 14.9 0l53.2-30.9c1.9-1.1 2.9-2.6 2.9-4 0-1.5-1-3-2.9-4.1l-53.5-30.8c-2-1.2-4.7-1.8-7.4-1.8z"/>
				<g id="&lt;Group&gt;">
					<path id="&lt;Path&gt;" class="s10" d="m257.7 536.8v-25.6l-32.4 4.3-24.3-14c-4.2-2.5-11.1-2.5-15.3 0l-3.8 2.4-52.6 7v25.9q0 0 0 0.1v0.1c0.1 1.6 1.1 3.1 3.2 4.3l53.4 30.8c4.3 2.5 11.2 2.5 15.4 0l53.2-30.9c2-1.2 3.1-2.7 3.1-4.3h0.1z"/>
					<path id="&lt;Path&gt;" class="s11" d="m254.5 506.5l-53.5-30.8c-4.2-2.5-11.1-2.5-15.3 0l-53.2 30.9c-4.2 2.5-4.2 6.4 0 8.9l53.4 30.8c4.3 2.5 11.2 2.5 15.4 0l53.2-30.9c4.2-2.4 4.2-6.4 0-8.9z"/>
					<path id="&lt;Path&gt;" class="s12" d="m254.5 513.9l-53.2 30.9c-4.2 2.4-11.1 2.4-15.4 0l-53.4-30.9c-1.8-1-2.8-2.3-3.1-3.6-0.4 1.8 0.6 3.8 3.1 5.2l53.4 30.8c4.3 2.5 11.2 2.5 15.4 0l53.2-30.9c2.4-1.4 3.5-3.3 3.1-5.2-0.3 1.4-1.3 2.6-3.1 3.7z"/>
					<g id="&lt;Group&gt;">
						<path id="&lt;Path&gt;" class="s12" d="m208.5 553.2l-2.5 1.4v-2.9l2.5-1.5z"/>
						<path id="&lt;Path&gt;" class="s12" d="m213.8 550.1l-2.5 1.5v-2.9l2.5-1.5z"/>
						<path id="&lt;Path&gt;" class="s12" d="m219.1 547.1l-2.5 1.4v-2.9l2.5-1.5z"/>
						<path id="&lt;Path&gt;" class="s12" d="m214.8 555.5l-2.6 1.4v-2.9l2.6-1.4z"/>
						<path id="&lt;Path&gt;" class="s12" d="m219.4 552.8l-2.5 1.4v-2.9l2.5-1.4z"/>
						<path id="&lt;Path&gt;" class="s12" d="m236.1 537.3l-2.6 1.4v-2.9l2.6-1.5z"/>
						<path id="&lt;Path&gt;" class="s12" d="m250.6 528.8l-2.5 1.5v-2.9l2.5-1.5z"/>
						<path id="&lt;Path&gt;" class="s12" d="m224.4 544l-2.5 1.5v-3l2.5-1.4z"/>
					</g>
				</g>
				<path id="&lt;Path&gt;" class="s13" d="m190.5 533.3l-36-20.8c-1.4-0.8-1.3-2.3 0.4-3.2l35.2-20.3c1.6-1 4.2-1.1 5.7-0.3l35.9 20.8c1.5 0.8 1.3 2.3-0.4 3.3l-35.1 20.3c-1.7 0.9-4.3 1-5.7 0.2z"/>
				<path id="&lt;Path&gt;" class="s12" d="m176.3 555.8l-29.6-17.2c-0.7-0.4-1.3-1.5-1.3-2.4v-2.2c0-1 0.6-1.4 1.3-1l29.6 17.1c0.7 0.5 1.3 1.5 1.3 2.5v2.2c0 0.9-0.6 1.4-1.3 1z"/>
				<g id="&lt;Group&gt;">
					<path id="&lt;Path&gt;" class="s14" d="m257.7 488.7v-25.6l-32.4 4.3-24.3-14c-4.2-2.4-11.1-2.4-15.3 0l-3.8 2.4-52.6 7.1v25.9q0 0 0 0v0.1c0.1 1.6 1.1 3.1 3.2 4.3l53.4 30.9c4.3 2.4 11.2 2.4 15.4 0l53.2-30.9c2-1.2 3.1-2.8 3.1-4.3h0.1z"/>
					<path id="&lt;Path&gt;" class="s15" d="m254.5 458.5l-53.5-30.9c-4.2-2.4-11.1-2.4-15.3 0l-53.2 30.9c-4.2 2.5-4.2 6.5 0 8.9l53.4 30.9c4.3 2.4 11.2 2.4 15.4 0l53.2-30.9c4.2-2.5 4.2-6.5 0-8.9z"/>
					<path id="&lt;Path&gt;" class="s13" d="m229 460.4l-31.1-18c-2.5-1.4-6.5-1.4-9 0l-30.9 18c-2.5 1.4-2.5 3.7 0 5.2l31.1 17.9c2.5 1.5 6.5 1.5 9 0l30.9-18c2.5-1.4 2.5-3.7 0-5.1z"/>
					<path id="&lt;Path&gt;" class="s12" d="m254.5 465.8l-53.2 30.9c-4.2 2.5-11.1 2.5-15.4 0l-53.4-30.8c-1.8-1-2.8-2.3-3.1-3.7-0.4 1.9 0.6 3.8 3.1 5.2l53.4 30.9c4.3 2.4 11.2 2.4 15.4 0l53.2-30.9c2.4-1.4 3.5-3.4 3.1-5.2-0.3 1.3-1.3 2.6-3.1 3.6z"/>
					<g id="&lt;Group&gt;">
						<path id="&lt;Path&gt;" class="s12" d="m208.5 505.1l-2.5 1.5v-2.9l2.5-1.5z"/>
						<path id="&lt;Path&gt;" class="s12" d="m213.8 502.1l-2.5 1.4v-2.9l2.5-1.5z"/>
						<path id="&lt;Path&gt;" class="s12" d="m219.1 499l-2.5 1.5v-3l2.5-1.4z"/>
						<path id="&lt;Path&gt;" class="s12" d="m214.8 507.4l-2.6 1.5v-2.9l2.6-1.5z"/>
						<path id="&lt;Path&gt;" class="s12" d="m219.4 504.7l-2.5 1.5v-2.9l2.5-1.5z"/>
						<path id="&lt;Path&gt;" class="s12" d="m236.1 489.2l-2.6 1.5v-3l2.6-1.4z"/>
						<path id="&lt;Path&gt;" class="s12" d="m250.6 480.8l-2.5 1.5v-3l2.5-1.4z"/>
						<path id="&lt;Path&gt;" class="s12" d="m224.4 496l-2.5 1.4v-2.9l2.5-1.5z"/>
					</g>
				</g>
				<g id="&lt;Group&gt;">
					<path id="&lt;Path&gt;" class="s16" d="m257.7 440.7v-25.6l-32.4 4.3-24.3-14c-4.2-2.5-11.1-2.5-15.3 0l-3.8 2.4-52.6 7v25.9q0 0 0 0.1v0.1c0.1 1.5 1.1 3.1 3.2 4.3l53.4 30.8c4.3 2.5 11.2 2.5 15.4 0l53.2-30.9c2-1.2 3.1-2.7 3.1-4.3h0.1z"/>
					<path id="&lt;Path&gt;" class="s17" d="m254.5 410.4l-53.5-30.8c-4.2-2.5-11.1-2.5-15.3 0l-53.2 30.9c-4.2 2.4-4.2 6.4 0 8.9l53.4 30.8c4.3 2.5 11.2 2.5 15.4 0l53.2-30.9c4.2-2.4 4.2-6.4 0-8.9z"/>
					<path id="&lt;Path&gt;" class="s18" d="m254.5 410.4l-53.5-30.8c-4.2-2.5-11.1-2.5-15.3 0l-53.2 30.9c-4.2 2.4-4.2 6.4 0 8.9l53.4 30.8c4.3 2.5 11.2 2.5 15.4 0l53.2-30.9c4.2-2.4 4.2-6.4 0-8.9z"/>
					<path id="&lt;Compound Path&gt;" fill-rule="evenodd" class="s19" d="m193.6 440.2c-2 0-3.9-0.4-5.5-1.3l-35.4-20.4c-1.5-0.9-2.4-2.2-2.4-3.6 0-1.3 0.9-2.6 2.4-3.5l35.2-20.5c3.1-1.8 7.9-1.8 10.9 0l35.4 20.4c1.6 1 2.5 2.2 2.5 3.6 0 1.4-0.9 2.6-2.5 3.5l-35.2 20.5c-1.5 0.9-3.5 1.3-5.4 1.3zm-0.2-49.2c-1.7 0-3.4 0.4-4.8 1.1l-35.2 20.5c-1.1 0.6-1.7 1.5-1.7 2.3 0 0.9 0.6 1.7 1.7 2.4l35.4 20.4c2.7 1.5 6.9 1.5 9.5 0l35.2-20.5c1.2-0.6 1.8-1.5 1.8-2.3 0-0.9-0.6-1.7-1.8-2.4l-35.3-20.4c-1.4-0.7-3.1-1.1-4.8-1.1z"/>
					<path id="&lt;Path&gt;" class="s12" d="m254.5 417.8l-53.2 30.9c-4.2 2.4-11.1 2.4-15.4 0l-53.4-30.9c-1.8-1-2.8-2.3-3.1-3.6-0.4 1.8 0.6 3.8 3.1 5.2l53.4 30.8c4.3 2.5 11.2 2.5 15.4 0l53.2-30.9c2.4-1.4 3.5-3.3 3.1-5.2-0.3 1.3-1.3 2.6-3.1 3.7z"/>
					<g id="&lt;Group&gt;">
						<path id="&lt;Path&gt;" class="s12" d="m208.5 457.1l-2.5 1.4v-2.9l2.5-1.5z"/>
						<path id="&lt;Path&gt;" class="s12" d="m213.8 454l-2.5 1.5v-3l2.5-1.4z"/>
						<path id="&lt;Path&gt;" class="s12" d="m219.1 451l-2.5 1.4v-2.9l2.5-1.5z"/>
						<path id="&lt;Path&gt;" class="s12" d="m214.8 459.4l-2.6 1.4v-2.9l2.6-1.5z"/>
						<path id="&lt;Path&gt;" class="s12" d="m219.4 456.7l-2.5 1.4v-2.9l2.5-1.4z"/>
						<path id="&lt;Path&gt;" class="s12" d="m236.1 441.2l-2.6 1.4v-2.9l2.6-1.5z"/>
						<path id="&lt;Path&gt;" class="s12" d="m250.6 432.7l-2.5 1.5v-2.9l2.5-1.5z"/>
						<path id="&lt;Path&gt;" class="s12" d="m224.4 447.9l-2.5 1.5v-3l2.5-1.4z"/>
					</g>
				</g>
			</g>
			<g id="&lt;Group&gt;">
				<path id="&lt;Compound Path&gt;" fill-rule="evenodd" class="s9" d="m361.1 591.3c-2.9 0-5.8-0.6-8-1.9l-53.4-30.8c-2.2-1.3-3.4-3-3.4-4.9 0-1.9 1.2-3.6 3.4-4.9l53.2-30.9c4.3-2.5 11.5-2.5 15.8 0l53.5 30.9c2.2 1.3 3.4 3 3.4 4.9 0 1.8-1.2 3.5-3.4 4.8l-53.2 30.9c-2.2 1.3-5 1.9-7.9 1.9zm-0.3-74.3c-2.7 0-5.4 0.6-7.4 1.8l-53.2 30.9c-1.9 1.1-2.9 2.5-2.9 4 0 1.5 1 2.9 2.9 4l53.4 30.9c4.1 2.3 10.8 2.3 14.9 0l53.2-30.9c1.9-1.1 2.9-2.6 2.9-4 0-1.5-1-3-2.9-4.1l-53.5-30.8c-2-1.2-4.7-1.8-7.4-1.8z"/>
				<g id="&lt;Group&gt;">
					<path id="&lt;Path&gt;" class="s20" d="m425.4 536.8v-25.6l-32.4 4.3-24.2-14c-4.3-2.5-11.2-2.5-15.4 0l-3.8 2.4-52.6 7v25.9q0 0 0 0.1v0.1h0.1c0 1.6 1.1 3.1 3.1 4.3l53.4 30.8c4.3 2.5 11.2 2.5 15.4 0l53.2-30.9c2-1.2 3.1-2.7 3.1-4.3h0.1z"/>
					<path id="&lt;Path&gt;" class="s21" d="m422.2 506.5l-53.4-30.8c-4.3-2.5-11.2-2.5-15.4 0l-53.2 30.9c-4.2 2.5-4.2 6.4 0 8.9l53.4 30.8c4.3 2.5 11.2 2.5 15.4 0l53.2-30.9c4.2-2.4 4.2-6.4 0-8.9z"/>
					<path id="&lt;Path&gt;" class="s12" d="m422.2 513.9l-53.2 30.9c-4.2 2.4-11.1 2.4-15.4 0l-53.4-30.9c-1.8-1-2.8-2.3-3.1-3.6-0.4 1.8 0.7 3.8 3.1 5.2l53.4 30.8c4.3 2.5 11.2 2.5 15.4 0l53.2-30.9c2.5-1.4 3.5-3.3 3.1-5.2-0.3 1.4-1.3 2.6-3.1 3.7z"/>
					<g id="&lt;Group&gt;">
						<path id="&lt;Path&gt;" class="s12" d="m376.2 553.2l-2.5 1.4v-2.9l2.5-1.5z"/>
						<path id="&lt;Path&gt;" class="s12" d="m381.5 550.1l-2.5 1.5v-2.9l2.5-1.5z"/>
						<path id="&lt;Path&gt;" class="s12" d="m386.8 547.1l-2.5 1.4v-2.9l2.5-1.5z"/>
						<path id="&lt;Path&gt;" class="s12" d="m382.5 555.5l-2.5 1.4v-2.9l2.5-1.4z"/>
						<path id="&lt;Path&gt;" class="s12" d="m387.1 552.8l-2.5 1.4v-2.9l2.5-1.4z"/>
						<path id="&lt;Path&gt;" class="s12" d="m403.8 537.3l-2.6 1.4v-2.9l2.6-1.5z"/>
						<path id="&lt;Path&gt;" class="s12" d="m418.4 528.8l-2.6 1.5v-2.9l2.6-1.5z"/>
						<path id="&lt;Path&gt;" class="s12" d="m392.1 544l-2.5 1.5v-3l2.5-1.4z"/>
					</g>
				</g>
				<path id="&lt;Path&gt;" class="s13" d="m358.2 533.3l-36-20.8c-1.4-0.8-1.2-2.3 0.4-3.2l35.2-20.3c1.7-1 4.2-1.1 5.7-0.3l35.9 20.8c1.5 0.8 1.3 2.3-0.4 3.3l-35.1 20.3c-1.7 0.9-4.3 1-5.7 0.2z"/>
				<path id="&lt;Path&gt;" class="s12" d="m344 555.8l-29.6-17.2c-0.7-0.4-1.3-1.5-1.3-2.4v-2.2c0-1 0.6-1.4 1.3-1l29.6 17.1c0.7 0.5 1.3 1.5 1.3 2.5v2.2c0 0.9-0.6 1.4-1.3 1z"/>
				<g id="&lt;Group&gt;">
					<path id="&lt;Path&gt;" class="s22" d="m425.4 488.7v-25.6l-32.4 4.3-24.2-14c-4.3-2.4-11.2-2.4-15.4 0l-3.8 2.4-52.6 7.1v25.9q0 0 0 0v0.1h0.1c0 1.6 1.1 3.1 3.1 4.3l53.4 30.9c4.3 2.4 11.2 2.4 15.4 0l53.2-30.9c2-1.2 3.1-2.8 3.1-4.3h0.1z"/>
					<path id="&lt;Path&gt;" class="s23" d="m422.2 458.5l-53.4-30.9c-4.3-2.4-11.2-2.4-15.4 0l-53.2 30.9c-4.2 2.5-4.2 6.5 0 8.9l53.4 30.9c4.3 2.4 11.2 2.4 15.4 0l53.2-30.9c4.2-2.5 4.2-6.5 0-8.9z"/>
					<path id="&lt;Path&gt;" class="s12" d="m422.2 465.8l-53.2 30.9c-4.2 2.5-11.1 2.5-15.4 0l-53.4-30.8c-1.8-1-2.8-2.3-3.1-3.7-0.4 1.9 0.7 3.8 3.1 5.2l53.4 30.9c4.3 2.4 11.2 2.4 15.4 0l53.2-30.9c2.5-1.4 3.5-3.4 3.1-5.2-0.3 1.3-1.3 2.6-3.1 3.6z"/>
					<g id="&lt;Group&gt;">
						<path id="&lt;Path&gt;" class="s12" d="m376.2 505.1l-2.5 1.5v-2.9l2.5-1.5z"/>
						<path id="&lt;Path&gt;" class="s12" d="m381.5 502.1l-2.5 1.4v-2.9l2.5-1.5z"/>
						<path id="&lt;Path&gt;" class="s12" d="m386.8 499l-2.5 1.5v-3l2.5-1.4z"/>
						<path id="&lt;Path&gt;" class="s12" d="m382.5 507.4l-2.5 1.5v-2.9l2.5-1.5z"/>
						<path id="&lt;Path&gt;" class="s12" d="m387.1 504.7l-2.5 1.5v-2.9l2.5-1.5z"/>
						<path id="&lt;Path&gt;" class="s12" d="m403.8 489.2l-2.6 1.5v-3l2.6-1.4z"/>
						<path id="&lt;Path&gt;" class="s12" d="m418.4 480.8l-2.6 1.5v-3l2.6-1.4z"/>
						<path id="&lt;Path&gt;" class="s12" d="m392.1 496l-2.5 1.4v-2.9l2.5-1.5z"/>
					</g>
				</g>
			</g>
			<g id="&lt;Group&gt;">
				<path id="&lt;Compound Path&gt;" fill-rule="evenodd" class="s9" d="m528.8 591.3c-2.9 0-5.8-0.6-8-1.9l-53.4-30.8c-2.2-1.3-3.4-3-3.4-4.9 0-1.9 1.2-3.6 3.4-4.9l53.2-30.9c4.3-2.5 11.5-2.5 15.9 0l53.4 30.9c2.2 1.3 3.4 3 3.4 4.9 0 1.8-1.2 3.5-3.4 4.8l-53.2 30.9c-2.1 1.3-5 1.9-7.9 1.9zm-0.3-74.3c-2.7 0-5.4 0.6-7.4 1.8l-53.2 30.9c-1.9 1.1-2.9 2.5-2.9 4 0 1.5 1 2.9 2.9 4l53.4 30.9c4.2 2.3 10.8 2.3 14.9 0l53.2-30.9c1.9-1.1 2.9-2.6 2.9-4 0-1.5-1-3-2.9-4.1l-53.4-30.8c-2.1-1.2-4.8-1.8-7.5-1.8z"/>
				<g id="&lt;Group&gt;">
					<path id="&lt;Path&gt;" class="s24" d="m593.1 536.8v-25.6l-32.4 4.3-24.2-14c-4.3-2.5-11.2-2.5-15.4 0l-3.8 2.4-52.5 7v25.9q0 0 0 0.1v0.1c0 1.6 1.1 3.1 3.1 4.3l53.5 30.8c4.2 2.5 11.1 2.5 15.4 0l53.1-30.9c2.1-1.2 3.1-2.7 3.2-4.3z"/>
					<path id="&lt;Path&gt;" class="s25" d="m589.9 506.5l-53.4-30.8c-4.3-2.5-11.2-2.5-15.4 0l-53.2 30.9c-4.2 2.5-4.2 6.4 0 8.9l53.5 30.8c4.2 2.5 11.1 2.5 15.4 0l53.1-30.9c4.2-2.4 4.2-6.4 0-8.9z"/>
					<path id="&lt;Path&gt;" class="s12" d="m589.9 513.9l-53.1 30.9c-4.3 2.4-11.2 2.4-15.4 0l-53.5-30.9c-1.7-1-2.8-2.3-3.1-3.6-0.4 1.8 0.7 3.8 3.1 5.2l53.5 30.8c4.2 2.5 11.1 2.5 15.4 0l53.1-30.9c2.5-1.4 3.5-3.3 3.1-5.2-0.3 1.4-1.3 2.6-3.1 3.7z"/>
					<g id="&lt;Group&gt;">
						<path id="&lt;Path&gt;" class="s12" d="m543.9 553.2l-2.5 1.4v-2.9l2.5-1.5z"/>
						<path id="&lt;Path&gt;" class="s12" d="m549.2 550.1l-2.5 1.5v-2.9l2.5-1.5z"/>
						<path id="&lt;Path&gt;" class="s12" d="m554.5 547.1l-2.5 1.4v-2.9l2.5-1.5z"/>
						<path id="&lt;Path&gt;" class="s12" d="m550.2 555.5l-2.5 1.4v-2.9l2.5-1.4z"/>
						<path id="&lt;Path&gt;" class="s12" d="m554.9 552.8l-2.6 1.4v-2.9l2.6-1.4z"/>
						<path id="&lt;Path&gt;" class="s12" d="m571.5 537.3l-2.5 1.4v-2.9l2.5-1.5z"/>
						<path id="&lt;Path&gt;" class="s12" d="m586.1 528.8l-2.6 1.5v-2.9l2.6-1.5z"/>
						<path id="&lt;Path&gt;" class="s12" d="m559.8 544l-2.5 1.5v-3l2.5-1.4z"/>
					</g>
				</g>
				<path id="&lt;Path&gt;" class="s13" d="m525.9 533.3l-36-20.8c-1.4-0.8-1.2-2.3 0.5-3.2l35.1-20.3c1.7-1 4.2-1.1 5.7-0.3l35.9 20.8c1.5 0.8 1.3 2.3-0.4 3.3l-35.1 20.3c-1.7 0.9-4.2 1-5.7 0.2z"/>
				<path id="&lt;Path&gt;" class="s12" d="m511.8 555.8l-29.7-17.2c-0.7-0.4-1.3-1.5-1.3-2.4v-2.2c0-1 0.6-1.4 1.3-1l29.7 17.1c0.7 0.5 1.2 1.5 1.2 2.5v2.2c0 0.9-0.5 1.4-1.2 1z"/>
				<g id="&lt;Group&gt;">
					<path id="&lt;Path&gt;" class="s26" d="m593.1 488.7v-25.6l-32.4 4.3-24.2-14c-4.3-2.4-11.2-2.4-15.4 0l-3.8 2.4-52.5 7.1v25.9q0 0 0 0v0.1c0 1.6 1.1 3.1 3.1 4.3l53.5 30.9c4.2 2.4 11.1 2.4 15.4 0l53.1-30.9c2.1-1.2 3.1-2.8 3.2-4.3z"/>
					<path id="&lt;Path&gt;" class="s27" d="m589.9 458.5l-53.4-30.9c-4.3-2.4-11.2-2.4-15.4 0l-53.2 30.9c-4.2 2.5-4.2 6.5 0 8.9l53.5 30.9c4.2 2.4 11.1 2.4 15.4 0l53.1-30.9c4.2-2.5 4.2-6.5 0-8.9z"/>
					<path id="&lt;Path&gt;" class="s13" d="m564.4 460.4l-31.1-18c-2.5-1.4-6.5-1.4-9 0l-30.9 18c-2.5 1.4-2.5 3.7 0 5.2l31.1 17.9c2.5 1.5 6.5 1.5 9 0l30.9-18c2.5-1.4 2.5-3.7 0-5.1z"/>
					<path id="&lt;Path&gt;" class="s12" d="m589.9 465.8l-53.1 30.9c-4.3 2.5-11.2 2.5-15.4 0l-53.5-30.8c-1.7-1-2.8-2.3-3.1-3.7-0.4 1.9 0.7 3.8 3.1 5.2l53.5 30.9c4.2 2.4 11.1 2.4 15.4 0l53.1-30.9c2.5-1.4 3.5-3.4 3.1-5.2-0.3 1.3-1.3 2.6-3.1 3.6z"/>
					<g id="&lt;Group&gt;">
						<path id="&lt;Path&gt;" class="s12" d="m543.9 505.1l-2.5 1.5v-2.9l2.5-1.5z"/>
						<path id="&lt;Path&gt;" class="s12" d="m549.2 502.1l-2.5 1.4v-2.9l2.5-1.5z"/>
						<path id="&lt;Path&gt;" class="s12" d="m554.5 499l-2.5 1.5v-3l2.5-1.4z"/>
						<path id="&lt;Path&gt;" class="s12" d="m550.2 507.4l-2.5 1.5v-2.9l2.5-1.5z"/>
						<path id="&lt;Path&gt;" class="s12" d="m554.9 504.7l-2.6 1.5v-2.9l2.6-1.5z"/>
						<path id="&lt;Path&gt;" class="s12" d="m571.5 489.2l-2.5 1.5v-3l2.5-1.4z"/>
						<path id="&lt;Path&gt;" class="s12" d="m586.1 480.8l-2.6 1.5v-3l2.6-1.4z"/>
						<path id="&lt;Path&gt;" class="s12" d="m559.8 496l-2.5 1.4v-2.9l2.5-1.5z"/>
					</g>
				</g>
				<g id="&lt;Group&gt;">
					<path id="&lt;Path&gt;" class="s28" d="m593.1 440.7v-25.6l-32.4 4.3-24.2-14c-4.3-2.5-11.2-2.5-15.4 0l-3.8 2.4-52.5 7v25.9q0 0 0 0.1v0.1c0 1.5 1.1 3.1 3.1 4.3l53.5 30.8c4.2 2.5 11.1 2.5 15.4 0l53.1-30.9c2.1-1.2 3.1-2.7 3.2-4.3z"/>
					<path id="&lt;Path&gt;" class="s29" d="m589.9 410.4l-53.4-30.8c-4.3-2.5-11.2-2.5-15.4 0l-53.2 30.9c-4.2 2.4-4.2 6.4 0 8.9l53.5 30.8c4.2 2.5 11.1 2.5 15.4 0l53.1-30.9c4.2-2.4 4.2-6.4 0-8.9z"/>
					<path id="&lt;Path&gt;" class="s30" d="m589.9 410.4l-53.4-30.8c-4.3-2.5-11.2-2.5-15.4 0l-53.2 30.9c-4.2 2.4-4.2 6.4 0 8.9l53.5 30.8c4.2 2.5 11.1 2.5 15.4 0l53.1-30.9c4.2-2.4 4.2-6.4 0-8.9z"/>
					<path id="&lt;Path&gt;" class="s19" d="m569.3 411.9l-35.4-20.4c-2.8-1.6-7.4-1.6-10.2 0l-35.2 20.5c-2.8 1.6-2.8 4.2 0 5.9l35.4 20.4c2.8 1.6 7.4 1.6 10.2 0l35.2-20.5c2.8-1.6 2.8-4.2 0-5.9z"/>
					<path id="&lt;Path&gt;" class="s12" d="m589.9 417.8l-53.1 30.9c-4.3 2.4-11.2 2.4-15.4 0l-53.5-30.9c-1.7-1-2.8-2.3-3.1-3.6-0.4 1.8 0.7 3.8 3.1 5.2l53.5 30.8c4.2 2.5 11.1 2.5 15.4 0l53.1-30.9c2.5-1.4 3.5-3.3 3.1-5.2-0.3 1.3-1.3 2.6-3.1 3.7z"/>
					<g id="&lt;Group&gt;">
						<path id="&lt;Path&gt;" class="s12" d="m543.9 457.1l-2.5 1.4v-2.9l2.5-1.5z"/>
						<path id="&lt;Path&gt;" class="s12" d="m549.2 454l-2.5 1.5v-3l2.5-1.4z"/>
						<path id="&lt;Path&gt;" class="s12" d="m554.5 451l-2.5 1.4v-2.9l2.5-1.5z"/>
						<path id="&lt;Path&gt;" class="s12" d="m550.2 459.4l-2.5 1.4v-2.9l2.5-1.5z"/>
						<path id="&lt;Path&gt;" class="s12" d="m554.9 456.7l-2.6 1.4v-2.9l2.6-1.4z"/>
						<path id="&lt;Path&gt;" class="s12" d="m571.5 441.2l-2.5 1.4v-2.9l2.5-1.5z"/>
						<path id="&lt;Path&gt;" class="s12" d="m586.1 432.7l-2.6 1.5v-2.9l2.6-1.5z"/>
						<path id="&lt;Path&gt;" class="s12" d="m559.8 447.9l-2.5 1.5v-3l2.5-1.4z"/>
					</g>
				</g>
				<g id="&lt;Group&gt;">
					<path id="&lt;Path&gt;" class="s31" d="m593.1 393.2v-25.6l-32.4 4.3-24.2-14c-4.3-2.5-11.2-2.5-15.4 0l-3.8 2.4-52.5 7v25.9q0 0 0 0.1v0.1c0 1.5 1.1 3.1 3.1 4.3l53.5 30.8c4.2 2.5 11.1 2.5 15.4 0l53.1-30.9c2.1-1.2 3.1-2.7 3.2-4.3z"/>
					<path id="&lt;Path&gt;" class="s32" d="m589.9 362.9l-53.4-30.8c-4.3-2.5-11.2-2.5-15.4 0l-53.2 30.9c-4.2 2.5-4.2 6.4 0 8.9l53.5 30.8c4.2 2.5 11.1 2.5 15.4 0l53.1-30.9c4.2-2.4 4.2-6.4 0-8.9z"/>
					<path id="&lt;Path&gt;" class="s33" d="m589.9 362.9l-53.4-30.8c-4.3-2.5-11.2-2.5-15.4 0l-53.2 30.9c-4.2 2.5-4.2 6.4 0 8.9l53.5 30.8c4.2 2.5 11.1 2.5 15.4 0l53.1-30.9c4.2-2.4 4.2-6.4 0-8.9z"/>
					<path id="&lt;Compound Path&gt;" fill-rule="evenodd" class="s19" d="m529 392.7c-2 0-3.9-0.4-5.4-1.3l-35.4-20.4c-1.6-0.9-2.5-2.2-2.5-3.6 0-1.3 0.9-2.6 2.5-3.5l35.2-20.5c3-1.8 7.8-1.8 10.9 0l35.4 20.4c1.6 1 2.4 2.2 2.4 3.6 0 1.4-0.8 2.6-2.4 3.5l-35.2 20.5c-1.6 0.9-3.5 1.3-5.5 1.3zm-0.2-49.2c-1.7 0-3.4 0.4-4.7 1.1l-35.2 20.5c-1.2 0.6-1.8 1.5-1.8 2.3 0 0.9 0.6 1.7 1.8 2.4l35.4 20.4c2.6 1.5 6.8 1.5 9.5 0l35.2-20.5c1.1-0.6 1.7-1.5 1.7-2.3 0-0.9-0.6-1.7-1.7-2.3l-35.4-20.5c-1.3-0.7-3.1-1.1-4.8-1.1z"/>
					<path id="&lt;Path&gt;" class="s12" d="m589.9 370.3l-53.1 30.9c-4.3 2.4-11.2 2.4-15.4 0l-53.5-30.9c-1.7-1-2.8-2.3-3.1-3.6-0.4 1.8 0.7 3.8 3.1 5.2l53.5 30.8c4.2 2.5 11.1 2.5 15.4 0l53.1-30.9c2.5-1.4 3.5-3.3 3.1-5.2-0.3 1.3-1.3 2.6-3.1 3.7z"/>
					<g id="&lt;Group&gt;">
						<path id="&lt;Path&gt;" class="s12" d="m543.9 409.6l-2.5 1.4v-2.9l2.5-1.5z"/>
						<path id="&lt;Path&gt;" class="s12" d="m549.2 406.5l-2.5 1.5v-2.9l2.5-1.5z"/>
						<path id="&lt;Path&gt;" class="s12" d="m554.5 403.5l-2.5 1.4v-2.9l2.5-1.5z"/>
						<path id="&lt;Path&gt;" class="s12" d="m550.2 411.9l-2.5 1.4v-2.9l2.5-1.4z"/>
						<path id="&lt;Path&gt;" class="s12" d="m554.9 409.2l-2.6 1.4v-2.9l2.6-1.4z"/>
						<path id="&lt;Path&gt;" class="s12" d="m571.5 393.7l-2.5 1.4v-2.9l2.5-1.5z"/>
						<path id="&lt;Path&gt;" class="s12" d="m586.1 385.2l-2.6 1.5v-2.9l2.6-1.5z"/>
						<path id="&lt;Path&gt;" class="s12" d="m559.8 400.4l-2.5 1.5v-3l2.5-1.4z"/>
					</g>
				</g>
			</g>
			<g id="&lt;Group&gt;">
				<path id="&lt;Compound Path&gt;" fill-rule="evenodd" class="s9" d="m696.5 591.3c-2.9 0-5.7-0.6-7.9-1.9l-53.5-30.8c-2.2-1.3-3.4-3-3.4-4.9 0-1.9 1.2-3.6 3.4-4.9l53.2-30.9c4.4-2.5 11.5-2.5 15.9 0l53.4 30.9c2.2 1.3 3.4 3 3.4 4.9 0 1.8-1.2 3.5-3.4 4.8l-53.1 30.9c-2.2 1.3-5.1 1.9-8 1.9zm-0.3-74.3c-2.7 0-5.4 0.6-7.4 1.8l-53.2 30.9c-1.9 1.1-2.9 2.5-2.9 4 0 1.5 1 2.9 2.9 4l53.5 30.9c4.1 2.3 10.8 2.3 14.9 0l53.1-30.9c1.9-1.1 2.9-2.6 2.9-4 0-1.5-1-3-2.9-4.1l-53.4-30.8c-2.1-1.2-4.8-1.8-7.5-1.8z"/>
				<g id="&lt;Group&gt;">
					<path id="&lt;Path&gt;" class="s34" d="m760.8 536.8v-25.6l-32.4 4.3-24.2-14c-4.3-2.5-11.2-2.5-15.4 0l-3.8 2.4-52.5 7v25.9q0 0 0 0.1v0.1c0 1.6 1.1 3.1 3.1 4.3l53.5 30.8c4.2 2.5 11.1 2.5 15.4 0l53.1-30.9c2.1-1.2 3.1-2.7 3.2-4.3z"/>
					<path id="&lt;Path&gt;" class="s35" d="m757.6 506.5l-53.4-30.8c-4.3-2.5-11.2-2.5-15.4 0l-53.2 30.9c-4.2 2.5-4.2 6.4 0 8.9l53.5 30.8c4.2 2.5 11.1 2.5 15.4 0l53.1-30.9c4.3-2.4 4.3-6.4 0-8.9z"/>
					<path id="&lt;Path&gt;" class="s12" d="m757.6 513.9l-53.1 30.9c-4.3 2.4-11.2 2.4-15.4 0l-53.5-30.9c-1.7-1-2.8-2.3-3-3.6-0.4 1.8 0.6 3.8 3 5.2l53.5 30.8c4.2 2.5 11.1 2.5 15.4 0l53.1-30.9c2.5-1.4 3.5-3.3 3.1-5.2-0.3 1.4-1.3 2.6-3.1 3.7z"/>
					<g id="&lt;Group&gt;">
						<path id="&lt;Path&gt;" class="s12" d="m711.6 553.2l-2.5 1.4v-2.9l2.5-1.5z"/>
						<path id="&lt;Path&gt;" class="s12" d="m716.9 550.1l-2.5 1.5v-2.9l2.5-1.5z"/>
						<path id="&lt;Path&gt;" class="s12" d="m722.2 547.1l-2.5 1.4v-2.9l2.5-1.5z"/>
						<path id="&lt;Path&gt;" class="s12" d="m717.9 555.5l-2.5 1.4v-2.9l2.5-1.4z"/>
						<path id="&lt;Path&gt;" class="s12" d="m722.6 552.8l-2.6 1.4v-2.9l2.6-1.4z"/>
						<path id="&lt;Path&gt;" class="s12" d="m739.2 537.3l-2.5 1.4v-2.9l2.5-1.5z"/>
						<path id="&lt;Path&gt;" class="s12" d="m753.8 528.8l-2.6 1.5v-2.9l2.6-1.5z"/>
						<path id="&lt;Path&gt;" class="s12" d="m727.5 544l-2.5 1.5v-3l2.5-1.4z"/>
					</g>
				</g>
				<path id="&lt;Path&gt;" class="s13" d="m693.6 533.3l-35.9-20.8c-1.5-0.8-1.3-2.3 0.4-3.2l35.1-20.3c1.7-1 4.2-1.1 5.7-0.3l35.9 20.8c1.5 0.8 1.3 2.3-0.4 3.3l-35.1 20.3c-1.7 0.9-4.2 1-5.7 0.2z"/>
				<path id="&lt;Path&gt;" class="s12" d="m679.5 555.8l-29.7-17.2c-0.7-0.4-1.3-1.5-1.3-2.4v-2.2c0-1 0.6-1.4 1.3-1l29.7 17.1c0.7 0.5 1.2 1.5 1.2 2.5v2.2c0 0.9-0.5 1.4-1.2 1z"/>
				<g id="&lt;Group&gt;">
					<path id="&lt;Path&gt;" class="s36" d="m760.8 488.7v-25.6l-32.4 4.3-24.2-14c-4.3-2.4-11.2-2.4-15.4 0l-3.8 2.4-52.5 7.1v25.9q0 0 0 0v0.1c0 1.6 1.1 3.1 3.1 4.3l53.5 30.9c4.2 2.4 11.1 2.4 15.4 0l53.1-30.9c2.1-1.2 3.1-2.8 3.2-4.3z"/>
					<path id="&lt;Path&gt;" class="s37" d="m757.6 458.5l-53.4-30.9c-4.3-2.4-11.2-2.4-15.4 0l-53.2 30.9c-4.2 2.5-4.2 6.5 0 8.9l53.5 30.9c4.2 2.4 11.1 2.4 15.4 0l53.1-30.9c4.3-2.5 4.3-6.5 0-8.9z"/>
					<path id="&lt;Path&gt;" class="s13" d="m732.2 460.4l-31.2-18c-2.4-1.4-6.5-1.4-8.9 0l-31 18c-2.5 1.4-2.5 3.7 0 5.2l31.1 17.9c2.5 1.5 6.5 1.5 9 0l31-18c2.4-1.4 2.4-3.7 0-5.1z"/>
					<path id="&lt;Path&gt;" class="s12" d="m757.6 465.8l-53.1 30.9c-4.3 2.5-11.2 2.5-15.4 0l-53.5-30.8c-1.7-1-2.8-2.3-3-3.7-0.4 1.9 0.6 3.8 3 5.2l53.5 30.9c4.2 2.4 11.1 2.4 15.4 0l53.1-30.9c2.5-1.4 3.5-3.4 3.1-5.2-0.3 1.3-1.3 2.6-3.1 3.6z"/>
					<g id="&lt;Group&gt;">
						<path id="&lt;Path&gt;" class="s12" d="m711.6 505.1l-2.5 1.5v-2.9l2.5-1.5z"/>
						<path id="&lt;Path&gt;" class="s12" d="m716.9 502.1l-2.5 1.4v-2.9l2.5-1.5z"/>
						<path id="&lt;Path&gt;" class="s12" d="m722.2 499l-2.5 1.5v-3l2.5-1.4z"/>
						<path id="&lt;Path&gt;" class="s12" d="m717.9 507.4l-2.5 1.5v-2.9l2.5-1.5z"/>
						<path id="&lt;Path&gt;" class="s12" d="m722.6 504.7l-2.6 1.5v-2.9l2.6-1.5z"/>
						<path id="&lt;Path&gt;" class="s12" d="m739.2 489.2l-2.5 1.5v-3l2.5-1.4z"/>
						<path id="&lt;Path&gt;" class="s12" d="m753.8 480.8l-2.6 1.5v-3l2.6-1.4z"/>
						<path id="&lt;Path&gt;" class="s12" d="m727.5 496l-2.5 1.4v-2.9l2.5-1.5z"/>
					</g>
				</g>
				<g id="&lt;Group&gt;">
					<path id="&lt;Path&gt;" class="s38" d="m760.8 440.7v-25.6l-32.4 4.3-24.2-14c-4.3-2.5-11.2-2.5-15.4 0l-3.8 2.4-52.5 7v25.9q0 0 0 0.1v0.1c0 1.5 1.1 3.1 3.1 4.3l53.5 30.8c4.2 2.5 11.1 2.5 15.4 0l53.1-30.9c2.1-1.2 3.1-2.7 3.2-4.3z"/>
					<path id="&lt;Path&gt;" class="s39" d="m757.6 410.4l-53.4-30.8c-4.3-2.5-11.2-2.5-15.4 0l-53.2 30.9c-4.2 2.4-4.2 6.4 0 8.9l53.5 30.8c4.2 2.5 11.1 2.5 15.4 0l53.1-30.9c4.3-2.4 4.3-6.4 0-8.9z"/>
					<path id="&lt;Path&gt;" class="s40" d="m757.6 410.4l-53.4-30.8c-4.3-2.5-11.2-2.5-15.4 0l-53.2 30.9c-4.2 2.4-4.2 6.4 0 8.9l53.5 30.8c4.2 2.5 11.1 2.5 15.4 0l53.1-30.9c4.3-2.4 4.3-6.4 0-8.9z"/>
					<path id="&lt;Path&gt;" class="s19" d="m737 411.9l-35.4-20.4c-2.8-1.6-7.3-1.6-10.2 0l-35.2 20.5c-2.8 1.6-2.8 4.2 0 5.9l35.4 20.4c2.8 1.6 7.4 1.6 10.2 0l35.2-20.5c2.8-1.6 2.8-4.2 0-5.9z"/>
					<path id="&lt;Path&gt;" class="s12" d="m757.6 417.8l-53.1 30.9c-4.3 2.4-11.2 2.4-15.4 0l-53.5-30.9c-1.7-1-2.8-2.3-3-3.6-0.4 1.8 0.6 3.8 3 5.2l53.5 30.8c4.2 2.5 11.1 2.5 15.4 0l53.1-30.9c2.5-1.4 3.5-3.3 3.1-5.2-0.3 1.3-1.3 2.6-3.1 3.7z"/>
					<g id="&lt;Group&gt;">
						<path id="&lt;Path&gt;" class="s12" d="m711.6 457.1l-2.5 1.4v-2.9l2.5-1.5z"/>
						<path id="&lt;Path&gt;" class="s12" d="m716.9 454l-2.5 1.5v-3l2.5-1.4z"/>
						<path id="&lt;Path&gt;" class="s12" d="m722.2 451l-2.5 1.4v-2.9l2.5-1.5z"/>
						<path id="&lt;Path&gt;" class="s12" d="m717.9 459.4l-2.5 1.4v-2.9l2.5-1.5z"/>
						<path id="&lt;Path&gt;" class="s12" d="m722.6 456.7l-2.6 1.4v-2.9l2.6-1.4z"/>
						<path id="&lt;Path&gt;" class="s12" d="m739.2 441.2l-2.5 1.4v-2.9l2.5-1.5z"/>
						<path id="&lt;Path&gt;" class="s12" d="m753.8 432.7l-2.6 1.5v-2.9l2.6-1.5z"/>
						<path id="&lt;Path&gt;" class="s12" d="m727.5 447.9l-2.5 1.5v-3l2.5-1.4z"/>
					</g>
				</g>
				<g id="&lt;Group&gt;">
					<path id="&lt;Path&gt;" class="s41" d="m760.8 393.5v-25.6l-32.4 4.3-24.2-14c-4.3-2.4-11.2-2.4-15.4 0l-3.8 2.4-52.5 7.1v25.9q0 0 0 0v0.1c0 1.6 1.1 3.1 3.1 4.3l53.5 30.9c4.2 2.4 11.1 2.4 15.4 0l53.1-30.9c2.1-1.2 3.1-2.8 3.2-4.3z"/>
					<path id="&lt;Path&gt;" class="s42" d="m757.6 363.3l-53.4-30.9c-4.3-2.4-11.2-2.4-15.4 0l-53.2 30.9c-4.2 2.5-4.2 6.5 0 8.9l53.5 30.9c4.2 2.4 11.1 2.4 15.4 0l53.1-30.9c4.3-2.5 4.3-6.5 0-8.9z"/>
					<path id="&lt;Path&gt;" class="s19" d="m732.2 365.2l-31.2-18c-2.4-1.5-6.5-1.5-8.9 0l-31 18c-2.5 1.4-2.5 3.7 0 5.2l31.1 17.9c2.5 1.5 6.5 1.5 9 0l31-18c2.4-1.4 2.4-3.7 0-5.1z"/>
					<path id="&lt;Path&gt;" class="s12" d="m757.6 370.6l-53.1 30.9c-4.3 2.5-11.2 2.5-15.4 0l-53.5-30.8c-1.7-1.1-2.8-2.3-3-3.7-0.4 1.9 0.6 3.8 3 5.2l53.5 30.9c4.2 2.4 11.1 2.4 15.4 0l53.1-30.9c2.5-1.5 3.5-3.4 3.1-5.2-0.3 1.3-1.3 2.6-3.1 3.6z"/>
					<g id="&lt;Group&gt;">
						<path id="&lt;Path&gt;" class="s12" d="m711.6 409.9l-2.5 1.5v-2.9l2.5-1.5z"/>
						<path id="&lt;Path&gt;" class="s12" d="m716.9 406.9l-2.5 1.4v-2.9l2.5-1.5z"/>
						<path id="&lt;Path&gt;" class="s12" d="m722.2 403.8l-2.5 1.5v-3l2.5-1.4z"/>
						<path id="&lt;Path&gt;" class="s12" d="m717.9 412.2l-2.5 1.5v-2.9l2.5-1.5z"/>
						<path id="&lt;Path&gt;" class="s12" d="m722.6 409.5l-2.6 1.5v-2.9l2.6-1.5z"/>
						<path id="&lt;Path&gt;" class="s12" d="m739.2 394l-2.5 1.5v-3l2.5-1.4z"/>
						<path id="&lt;Path&gt;" class="s12" d="m753.8 385.6l-2.6 1.4v-2.9l2.6-1.4z"/>
						<path id="&lt;Path&gt;" class="s12" d="m727.5 400.7l-2.5 1.5v-2.9l2.5-1.5z"/>
					</g>
				</g>
				<g id="&lt;Group&gt;">
					<path id="&lt;Path&gt;" class="s43" d="m760.8 345.5v-25.6l-32.4 4.3-24.2-14c-4.3-2.5-11.2-2.5-15.4 0l-3.8 2.4-52.5 7v25.9q0 0 0 0.1v0.1c0 1.5 1.1 3.1 3.1 4.3l53.5 30.8c4.2 2.5 11.1 2.5 15.4 0l53.1-30.9c2.1-1.2 3.1-2.7 3.2-4.3z"/>
					<path id="&lt;Path&gt;" class="s44" d="m757.6 315.2l-53.4-30.8c-4.3-2.5-11.2-2.5-15.4 0l-53.2 30.9c-4.2 2.4-4.2 6.4 0 8.9l53.5 30.8c4.2 2.5 11.1 2.5 15.4 0l53.1-30.9c4.3-2.4 4.3-6.4 0-8.9z"/>
					<path id="&lt;Path&gt;" class="s45" d="m757.6 315.2l-53.4-30.8c-4.3-2.5-11.2-2.5-15.4 0l-53.2 30.9c-4.2 2.4-4.2 6.4 0 8.9l53.5 30.8c4.2 2.5 11.1 2.5 15.4 0l53.1-30.9c4.3-2.4 4.3-6.4 0-8.9z"/>
					<path id="&lt;Compound Path&gt;" fill-rule="evenodd" class="s19" d="m696.7 345c-1.9 0-3.9-0.4-5.4-1.3l-35.4-20.4c-1.6-0.9-2.5-2.2-2.5-3.6 0-1.3 0.9-2.6 2.5-3.5l35.2-20.5c3-1.8 7.8-1.8 10.9 0l35.4 20.4c1.6 1 2.4 2.2 2.4 3.6 0 1.4-0.8 2.6-2.4 3.5l-35.2 20.5c-1.6 0.9-3.5 1.3-5.5 1.3zm-0.2-49.2c-1.7 0-3.4 0.3-4.7 1.1l-35.2 20.5c-1.2 0.6-1.8 1.5-1.8 2.3 0 0.9 0.6 1.7 1.8 2.4l35.4 20.4c2.6 1.5 6.9 1.5 9.5 0l35.2-20.5c1.1-0.6 1.8-1.5 1.8-2.3 0-0.9-0.7-1.7-1.8-2.4l-35.4-20.4c-1.3-0.8-3-1.1-4.8-1.1z"/>
					<path id="&lt;Path&gt;" class="s12" d="m757.6 322.6l-53.1 30.9c-4.3 2.4-11.2 2.4-15.4 0l-53.5-30.9c-1.7-1-2.8-2.3-3-3.6-0.4 1.8 0.6 3.8 3 5.2l53.5 30.8c4.2 2.5 11.1 2.5 15.4 0l53.1-30.9c2.5-1.4 3.5-3.3 3.1-5.2-0.3 1.3-1.3 2.6-3.1 3.7z"/>
					<g id="&lt;Group&gt;">
						<path id="&lt;Path&gt;" class="s12" d="m711.6 361.9l-2.5 1.4v-2.9l2.5-1.5z"/>
						<path id="&lt;Path&gt;" class="s12" d="m716.9 358.8l-2.5 1.5v-3l2.5-1.4z"/>
						<path id="&lt;Path&gt;" class="s12" d="m722.2 355.7l-2.5 1.5v-2.9l2.5-1.5z"/>
						<path id="&lt;Path&gt;" class="s12" d="m717.9 364.2l-2.5 1.4v-2.9l2.5-1.5z"/>
						<path id="&lt;Path&gt;" class="s12" d="m722.6 361.5l-2.6 1.4v-2.9l2.6-1.4z"/>
						<path id="&lt;Path&gt;" class="s12" d="m739.2 345.9l-2.5 1.5v-2.9l2.5-1.5z"/>
						<path id="&lt;Path&gt;" class="s12" d="m753.8 337.5l-2.6 1.5v-2.9l2.6-1.5z"/>
						<path id="&lt;Path&gt;" class="s12" d="m727.5 352.7l-2.5 1.5v-3l2.5-1.4z"/>
					</g>
				</g>
			</g>
			<path id="&lt;Compound Path&gt;" fill-rule="evenodd" class="s46" d="m360.9 487.6c-2 0-4-0.4-5.5-1.3l-35.4-20.5c-1.6-0.9-2.5-2.2-2.5-3.6 0-1.5 0.9-2.8 2.5-3.7l35.2-20.5c3.1-1.8 8-1.8 11.1 0l35.3 20.5c1.7 0.9 2.6 2.2 2.6 3.6 0 1.5-0.9 2.8-2.6 3.7l-35.2 20.5c-1.5 0.9-3.5 1.3-5.5 1.3zm-0.2-49.2c-1.7 0-3.4 0.4-4.6 1.1l-35.3 20.5c-1.1 0.6-1.7 1.4-1.7 2.2 0 0.8 0.6 1.6 1.7 2.2l35.4 20.4c2.6 1.5 6.9 1.5 9.4 0l35.2-20.4c1.1-0.7 1.7-1.5 1.7-2.3 0-0.8-0.6-1.5-1.7-2.2l-35.4-20.4c-1.3-0.7-3-1.1-4.7-1.1z"/>
			<path id="&lt;Path&gt;" class="s9" d="m359.8 382.9l-0.2-0.1-166.6-47.7 0.2-1 166.4 47.7 169-114.2 167.8-80.1 0.4 0.9-167.7 80z"/>
			<g id="&lt;Group&gt;">
				<path id="&lt;Path&gt;" class="s4" d="m204.4 334.7c0 6.3-5 11.4-11.3 11.4-6.2 0-11.3-5.1-11.3-11.4 0-6.2 5.1-11.3 11.3-11.3 6.3 0 11.3 5.1 11.3 11.3z"/>
				<path id="&lt;Path&gt;" class="s5" d="m198.7 334.7c0 3.1-2.5 5.6-5.6 5.6-3.1 0-5.6-2.5-5.6-5.6 0-3 2.5-5.5 5.6-5.5 3.1 0 5.6 2.5 5.6 5.5z"/>
			</g>
			<g id="&lt;Group&gt;">
				<path id="&lt;Path&gt;" class="s4" d="m371 382.3c0 6.3-5.1 11.3-11.3 11.3-6.3 0-11.3-5-11.3-11.3 0-6.2 5-11.3 11.3-11.3 6.2 0 11.3 5.1 11.3 11.3z"/>
				<path id="&lt;Path&gt;" class="s5" d="m365.3 382.3c0 3.1-2.5 5.6-5.6 5.6-3.1 0-5.6-2.5-5.6-5.6 0-3.1 2.5-5.5 5.6-5.5 3.1 0 5.6 2.4 5.6 5.5z"/>
			</g>
			<g id="&lt;Group&gt;">
				<path id="&lt;Path&gt;" class="s4" d="m540.2 268c0 6.2-5 11.3-11.3 11.3-6.2 0-11.3-5.1-11.3-11.3 0-6.3 5.1-11.3 11.3-11.3 6.3 0 11.3 5 11.3 11.3z"/>
				<path id="&lt;Path&gt;" class="s5" d="m534.5 268c0 3.1-2.5 5.6-5.6 5.6-3.1 0-5.5-2.5-5.5-5.6 0-3.1 2.4-5.6 5.5-5.6 3.1 0 5.6 2.5 5.6 5.6z"/>
			</g>
			<g id="&lt;Group&gt;">
				<path id="&lt;Path&gt;" class="s4" d="m708 188c0 6.2-5.1 11.3-11.4 11.3-6.2 0-11.3-5.1-11.3-11.3 0-6.3 5.1-11.3 11.3-11.3 6.3 0 11.4 5 11.4 11.3z"/>
				<path id="&lt;Path&gt;" class="s5" d="m702.2 188c0 3.1-2.5 5.6-5.6 5.6-3 0-5.5-2.5-5.5-5.6 0-3.1 2.5-5.6 5.5-5.6 3.1 0 5.6 2.5 5.6 5.6z"/>
			</g>
			<g id="&lt;Group&gt;">
				<path id="&lt;Path&gt;" class="s4" d="m529.4 308.8h-1v-29.5h1z"/>
			</g>
			<g id="&lt;Group&gt;">
				<path id="&lt;Path&gt;" class="s4" d="m193.6 368.5h-1v-22.4h1z"/>
			</g>
			<g id="&lt;Group&gt;">
				<path id="&lt;Path&gt;" class="s4" d="m360.2 406.2h-1v-12.6h1z"/>
				<path id="&lt;Path&gt;" class="s4" d="m360.2 419.2h-1v-6.3h1z"/>
			</g>
			<g id="&lt;Group&gt;">
				<path id="&lt;Path&gt;" class="s4" d="m697.1 250.2h-1v-50.9h1z"/>
			</g>
			<g id="&lt;Group&gt;">
				<path id="&lt;Path&gt;" class="s4" d="m697.1 272.2h-1v-15.5h1z"/>
			</g>
		</g>
		<g id="&lt;Group&gt;">
			<path id="&lt;Path&gt;" class="s2" d="m905.7 163.1c18.9-5.5 41.2-8.6 65.1-8.4q4.7 0.1 9.3 0.3c21 1.9 28.4 24 15.8 33.7-5.8 4.4-12.8 4.4-15.8 4.3q-4.6-0.2-9.3-0.2c-23.9-0.2-46.2 2.9-65.1 8.4-19 4.6-20.2-14.8-13.5-26.6 2.2-4 6.4-9.2 13.5-11.5z"/>
			<path id="&lt;Compound Path&gt;" fill-rule="evenodd" class="s9" d="m900.4 202.3c-5.1 0-7.9-2.2-9.5-4.3-4.6-6.1-3-16.7 0.9-23.6 2.3-4.1 6.6-9.4 13.8-11.7 19-5.5 40.7-8.4 63.1-8.4q1 0 2.1 0c3.1 0 6.2 0.1 9.4 0.3 10.5 0.9 18.9 7.3 21.5 16.3 2 7-0.1 13.9-5.6 18.1-5.9 4.5-13 4.4-16 4.4-3.1-0.1-6.2-0.2-9.3-0.2-23.1-0.2-45.5 2.7-65 8.3-2 0.5-3.8 0.8-5.4 0.8zm5.4-38.8c-6.9 2.2-11 7.3-13.2 11.3-3.8 6.7-5.5 16.9-1.1 22.7 2.8 3.7 7.7 4.8 14.1 3.3 19-5.5 40.7-8.4 63.1-8.4q1 0 2.1 0c3.1 0 6.3 0.1 9.4 0.2 2.9 0 9.8 0.1 15.4-4.3 5.2-3.9 7.3-10.5 5.3-17.2-2.5-8.6-10.6-14.8-20.8-15.7-3.1-0.2-6.2-0.3-9.3-0.3-23.1-0.2-45.5 2.7-65 8.4z"/>
		</g>
		<g id="&lt;Group&gt;">
			<path id="&lt;Path&gt;" class="s2" d="m975.7 280.8q-4.5 0.1-9.1 0.1c-23.9-0.2-46.1-3.7-64.6-9.5-18.5-5-19.6 14.4-13.2 26.3 4.6 8.5 10.8 10.9 13.2 11.7 18.5 5.9 40.7 9.3 64.6 9.5q4.6 0.1 9.1-0.1c21.7-1.6 27.4-22.4 17.3-32.2-2.9-2.7-8.2-5.9-17.3-5.8z"/>
			<g id="&lt;Group&gt;">
				<g id="&lt;Group&gt;" style="opacity: .3">
					<path id="&lt;Compound Path&gt;" fill-rule="evenodd" class="s9" d="m1088.2 257.1l-0.3-0.7q-0.5-0.9-1.1-2.7c-4.1-11.7-15.9-22.4-34.2-30.9-12.7-7.2-15.7-17.6-16.5-21.8-0.8-4.9 0.1-11.8 4.3-15.5 3.1-2.7 7.3-3.2 12.5-1.5 18.6 8.6 30.5 19.4 34.6 31.4 0.9 3.4 1.6 6 1.6 18v20.3c0 1.8 0 1.9-0.5 2.7zm-51.3-56.2c0.7 4.1 3.7 14.2 16.1 21.3 18.5 8.5 30.4 19.3 34.5 31.3q0.4 1.1 0.7 1.8c0-0.3 0-0.7 0-1.5v-20.3c0-11.9-0.6-14.5-1.5-17.8-4-11.7-15.8-22.4-34.1-30.9-4.9-1.6-8.8-1.1-11.6 1.4-4 3.5-4.9 10.1-4.1 14.7z"/>
					<path id="&lt;Compound Path&gt;" fill-rule="evenodd" class="s9" d="m849.1 262.7l-0.8-0.1v-38q0-0.5 0-1.1c0.3-6.3 2.7-12.4 7.2-18.3l0.2-0.2c0.8-0.8 2-2 3.2-2.2 1.7-0.2 3.1 0.6 4.2 2.4 3.8 6 3.5 23.2-7 38.5-6 8.3-6.5 13-7 19zm10.3-59.1q-0.2 0-0.4 0c-0.9 0.2-2 1.2-2.8 2l-0.1 0.1c-4.4 5.7-6.7 11.7-6.9 17.9q-0.1 0.5-0.1 1v31.6c0.8-3.7 2.4-7.6 6.4-12.9 10.2-15.1 10.6-31.9 7-37.7-0.6-0.9-1.6-2-3.1-2z"/>
				</g>
				<g id="&lt;Group&gt;">
					<g id="&lt;Group&gt;">
						<path id="&lt;Compound Path&gt;" fill-rule="evenodd" class="s9" d="m857.8 282.5c-1 0-2.3-0.6-3.8-2.5-4.9-6.8-5.4-13.4-5.7-17.3v-38.1h0.8c0 5.7 1.9 11.4 5.6 16.8 8.1 13.5 9.1 26.7 8.4 32.4-0.6 4.7-2.4 8-4.6 8.6q-0.3 0.1-0.7 0.1zm-8.7-51.3v31.4c0.3 3.9 0.8 10.3 5.6 16.9 0.9 1.2 2.2 2.5 3.6 2.1 1.9-0.5 3.4-3.6 4-7.9 0.7-5.6-0.3-18.6-8.3-31.8q-3.5-5.2-4.9-10.7z"/>
						<path id="&lt;Compound Path&gt;" fill-rule="evenodd" class="s9" d="m968.7 319.3q-1 0-2.1 0c-23.2-0.2-45.6-3.4-64.7-9.5-2.4-0.9-8.8-3.3-13.4-11.9-3.9-7.1-5.5-17.9-0.8-23.8 2.1-2.7 6.3-5.3 14.4-3.1 19.1 6 41.4 9.3 64.5 9.4 3 0.1 6.1 0 9.1 0q0.2 0 0.3 0c9.1 0 14.4 3.2 17.2 5.9 4.8 4.6 6.3 11.8 3.9 18.5-3 8.3-11 13.7-21.4 14.4q-3.5 0.1-7 0.1zm-72.2-48.3c-3.5 0-6.3 1.2-8.1 3.6-4.5 5.6-2.9 16 0.8 22.9 4.5 8.4 10.6 10.7 12.9 11.5 19.1 6.1 41.4 9.3 64.5 9.5 3 0 6.1 0 9.1-0.1 10-0.7 17.8-5.9 20.6-13.9 2.3-6.3 0.9-13.2-3.6-17.6-2.8-2.6-7.9-5.7-16.7-5.7q-0.1 0-0.3 0c-3 0.1-6.1 0.1-9.1 0.1-23.2-0.2-45.6-3.5-64.7-9.6q-2.9-0.7-5.4-0.7z"/>
						<path id="&lt;Compound Path&gt;" fill-rule="evenodd" class="s9" d="m1044.3 305.4c-3.7 0-6.7-1.3-8.9-4-4.1-5-4.2-14.3-0.2-21.9 4.5-8.6 11.6-12.3 14.2-13.7 19-8.2 31.6-18.7 36.6-30.4q0.8-1.7 1.4-2.6l0.1-0.2 0.9-0.1 0.1 0.3c0.4 1 0.5 1.3 0.6 5.9v11.7c-0.2 16.5-1.1 19.6-2.4 23.4-5 11.9-17.8 22.6-36.9 30.8q-2.9 0.8-5.5 0.8zm43.6-71.9q-0.5 0.8-1.2 2.3c-5 11.9-17.8 22.5-36.9 30.7-2.6 1.4-9.5 5-13.9 13.4-3.9 7.3-3.8 16.2 0.1 21 2.1 2.5 6.1 5.1 13.5 2.9 18.9-8.1 31.5-18.6 36.5-30.3 1.2-3.7 2.1-6.7 2.2-23.1v-11.7c0-3.7-0.1-4.5-0.3-5.2z"/>
					</g>
				</g>
			</g>
		</g>
		<path id="&lt;Path&gt;" class="s47" d="m1097.5 154.7c0 72.7-58.9 131.7-131.7 131.7-72.7 0-131.7-59-131.7-131.7 0-72.7 59-131.7 131.7-131.7 72.8 0 131.7 59 131.7 131.7z"/>
		<g id="&lt;Group&gt;">
			<path id="&lt;Compound Path&gt;" fill-rule="evenodd" class="s9" d="m966.2 287c-4.1 0-8.3-0.9-11.4-2.7l-77.1-44.5c-3.1-1.8-4.9-4.3-4.9-7 0-2.7 1.8-5.2 4.9-7l76.6-44.6c6.4-3.6 16.6-3.6 23 0l77 44.5c3.2 1.9 4.9 4.3 4.9 7 0 2.7-1.7 5.2-4.9 7.1l-76.6 44.5c-3.2 1.8-7.3 2.7-11.5 2.7zm-0.4-107.1c-3.9 0-7.8 0.9-10.7 2.6l-76.6 44.5c-2.8 1.6-4.3 3.7-4.3 5.8 0 2.2 1.5 4.2 4.3 5.8l77 44.5c5.9 3.4 15.5 3.4 21.4 0l76.6-44.6c2.8-1.6 4.3-3.6 4.3-5.8 0-2.1-1.5-4.2-4.3-5.8l-77-44.4c-2.9-1.7-6.8-2.6-10.7-2.6z"/>
			<path id="&lt;Path&gt;" class="s48" d="m1058.5 207.1v-37l-46.7 6.3-34.9-20.2c-6.1-3.5-16.1-3.5-22.2 0l-5.4 3.5-75.8 10.1v37.3q0 0 0 0.1v0.1c0.1 2.3 1.6 4.5 4.6 6.2l77 44.5c6.1 3.5 16.1 3.5 22.2 0l76.6-44.5c3-1.7 4.5-4 4.6-6.2z"/>
			<path id="&lt;Path&gt;" class="s49" d="m1053.9 163.5l-77-44.5c-6.1-3.5-16.1-3.5-22.2 0l-76.6 44.5c-6.1 3.6-6.1 9.3 0 12.9l77 44.4c6.1 3.5 16.1 3.5 22.2 0l76.6-44.5c6.1-3.6 6.1-9.3 0-12.8z"/>
			<path id="&lt;Path&gt;" class="s50" d="m1053.9 163.5l-77-44.5c-6.1-3.5-16.1-3.5-22.2 0l-76.6 44.5c-6.1 3.6-6.1 9.3 0 12.9l77 44.4c6.1 3.5 16.1 3.5 22.2 0l76.6-44.5c6.1-3.6 6.1-9.3 0-12.8z"/>
			<path id="&lt;Compound Path&gt;" fill-rule="evenodd" class="s19" d="m966.1 206.4c-2.8 0-5.6-0.6-7.8-1.9l-51-29.5c-2.3-1.3-3.6-3.1-3.6-5.1 0-1.9 1.3-3.8 3.6-5.1l50.7-29.5c4.4-2.5 11.3-2.5 15.7 0l51 29.5c2.3 1.3 3.6 3.1 3.6 5.1 0 2-1.3 3.8-3.6 5.1l-50.7 29.5c-2.2 1.3-5 1.9-7.9 1.9zm-0.2-71c-2.5 0-5 0.6-6.9 1.6l-50.7 29.6c-1.7 0.9-2.6 2.1-2.6 3.3 0 1.3 0.9 2.5 2.6 3.4l51 29.5c3.8 2.2 9.9 2.2 13.7 0l50.7-29.5c1.7-1 2.6-2.2 2.6-3.4 0-1.3-0.9-2.5-2.6-3.4l-51-29.5c-1.9-1-4.3-1.6-6.8-1.6z"/>
			<path id="&lt;Path&gt;" class="s12" d="m1053.9 174l-76.6 44.6c-6.1 3.5-16.1 3.5-22.2 0l-77-44.5c-2.6-1.5-4-3.3-4.5-5.3-0.5 2.7 0.9 5.5 4.5 7.6l77 44.4c6.1 3.5 16.1 3.5 22.2 0l76.6-44.5c3.6-2.1 5-4.9 4.5-7.6-0.4 2-1.9 3.8-4.5 5.3z"/>
			<g id="&lt;Group&gt;">
				<path id="&lt;Path&gt;" class="s12" d="m987.7 230.7l-3.7 2.1v-4.2l3.7-2.1z"/>
				<path id="&lt;Path&gt;" class="s12" d="m995.3 226.3l-3.7 2.1v-4.2l3.7-2.1z"/>
				<path id="&lt;Path&gt;" class="s12" d="m1002.9 221.9l-3.6 2.1v-4.2l3.6-2.1z"/>
				<path id="&lt;Path&gt;" class="s12" d="m996.7 234l-3.7 2.1v-4.2l3.7-2.1z"/>
				<path id="&lt;Path&gt;" class="s12" d="m1003.4 230.1l-3.7 2.1v-4.2l3.7-2.1z"/>
				<path id="&lt;Path&gt;" class="s12" d="m1027.4 207.7l-3.7 2.1v-4.2l3.7-2.1z"/>
				<path id="&lt;Path&gt;" class="s12" d="m1048.4 195.6l-3.7 2.1v-4.2l3.7-2.1z"/>
				<path id="&lt;Path&gt;" class="s12" d="m1010.5 217.5l-3.6 2.1v-4.2l3.6-2.2z"/>
			</g>
		</g>
		<path id="&lt;Path&gt;" class="s51" d="m1157 504.5c0 105.6-85.6 191.2-191.2 191.2-105.6 0-191.2-85.6-191.2-191.2 0-105.6 85.6-191.2 191.2-191.2 105.6 0 191.2 85.6 191.2 191.2z"/>
		<g id="&lt;Group&gt;">
			<g id="&lt;Group&gt;">
				<path id="&lt;Path&gt;" class="s2" d="m1068.1 472.4l-88.3-51c-3.7-2.1-6.7 0.2-6.7 5.1v24.7c0 4.9 3 10.6 6.7 12.7l88.3 50.9c3.6 2.2 6.6-0.1 6.6-5v-24.7c0-4.9-3-10.6-6.6-12.7z"/>
				<path id="&lt;Compound Path&gt;" fill-rule="evenodd" class="s9" d="m1070.7 516.4q-1.4 0-3-0.9l-88.3-51c-3.8-2.2-7-8.2-7-13.3v-24.7c0-2.9 1-5.1 2.7-6 1.4-0.9 3.2-0.7 5 0.3l88.3 51c3.9 2.2 7 8.2 7 13.3v24.7c0 2.9-1 5-2.6 6q-1 0.6-2.1 0.6zm-93.6-95q-0.7 0-1.3 0.3c-1.2 0.7-2 2.5-2 4.8v24.7c0 4.6 2.9 10.1 6.3 12.1l88.3 50.9c1.4 0.8 2.7 0.9 3.6 0.4 1.3-0.7 2-2.5 2-4.8v-24.7c0-4.6-2.8-10.1-6.3-12.1l-88.3-50.9q-1.2-0.7-2.3-0.7z"/>
			</g>
			<g id="&lt;Group&gt;">
				<path id="&lt;Path&gt;" class="s2" d="m864.3 472.4l88.3-51c3.6-2.1 6.6 0.2 6.6 5.1v24.7c0 4.9-3 10.6-6.6 12.7l-88.3 50.9c-3.7 2.2-6.7-0.1-6.7-5v-24.7c0-4.9 3-10.6 6.7-12.7z"/>
				<path id="&lt;Compound Path&gt;" fill-rule="evenodd" class="s9" d="m861.6 516.4q-1.1 0-2-0.6c-1.7-1-2.7-3.1-2.7-6v-24.7c0-5.1 3.2-11.1 7-13.3l88.3-51c1.8-1 3.6-1.2 5.1-0.3 1.6 0.9 2.6 3.1 2.6 6v24.7c0 5.1-3.1 11.1-7 13.3l-88.3 51q-1.5 0.9-3 0.9zm3-43.4c-3.4 2-6.3 7.5-6.3 12.1v24.7c0 2.3 0.8 4.1 2 4.8 1 0.5 2.3 0.4 3.6-0.4l88.3-50.9c3.5-2 6.3-7.5 6.3-12.1v-24.7c0-2.3-0.7-4.1-2-4.8-0.9-0.5-2.2-0.4-3.6 0.4z"/>
			</g>
			<g id="&lt;Group&gt;">
				<path id="&lt;Compound Path&gt;" fill-rule="evenodd" class="s9" d="m966 551.3c-4.1 0-8.3-0.9-11.4-2.7l-77-44.5c-3.2-1.8-5-4.3-5-7 0-2.7 1.8-5.2 5-7l76.6-44.6c6.3-3.6 16.6-3.6 22.9 0l77 44.5c3.2 1.8 4.9 4.3 4.9 7 0 2.7-1.7 5.2-4.9 7l-76.6 44.6c-3.2 1.8-7.3 2.7-11.5 2.7zm-0.4-107.1c-3.9 0-7.8 0.8-10.7 2.6l-76.6 44.5c-2.8 1.6-4.3 3.6-4.3 5.8 0 2.1 1.5 4.2 4.3 5.8l77 44.4c5.9 3.4 15.5 3.4 21.5 0l76.6-44.5c2.7-1.6 4.2-3.6 4.2-5.8 0-2.2-1.5-4.2-4.2-5.8l-77-44.4c-3-1.8-6.9-2.6-10.8-2.6z"/>
				<g id="&lt;Group&gt;">
					<path id="&lt;Path&gt;" class="s52" d="m1058.7 472.7v-36.9l-46.7 6.2-34.9-20.2c-6.1-3.5-16.1-3.5-22.2 0l-5.4 3.5-75.8 10.1v37.4q0 0 0 0v0.2c0.1 2.2 1.6 4.5 4.6 6.2l77 44.4c6.1 3.6 16.1 3.6 22.2 0l76.6-44.5c3-1.7 4.5-3.9 4.6-6.2z"/>
					<path id="&lt;Path&gt;" class="s53" d="m1054.1 429.1l-77-44.5c-6.1-3.5-16.1-3.5-22.2 0l-76.6 44.6c-6.1 3.5-6.1 9.3 0 12.8l77 44.4c6.1 3.6 16.1 3.6 22.2 0l76.6-44.5c6.1-3.5 6.1-9.3 0-12.8z"/>
					<path id="&lt;Path&gt;" class="s12" d="m1054.1 439.7l-76.6 44.5c-6.1 3.6-16.1 3.6-22.2 0l-77-44.4c-2.6-1.5-4.1-3.4-4.5-5.3-0.5 2.6 0.9 5.4 4.5 7.5l77 44.5c6.1 3.5 16.1 3.5 22.2 0l76.6-44.6c3.6-2 5-4.8 4.5-7.5-0.5 1.9-1.9 3.8-4.5 5.3z"/>
					<g id="&lt;Group&gt;">
						<path id="&lt;Path&gt;" class="s12" d="m987.8 496.3l-3.6 2.1v-4.2l3.6-2.1z"/>
						<path id="&lt;Path&gt;" class="s12" d="m995.5 491.9l-3.7 2.1v-4.2l3.7-2.1z"/>
						<path id="&lt;Path&gt;" class="s12" d="m1003.1 487.5l-3.6 2.1v-4.2l3.6-2.1z"/>
						<path id="&lt;Path&gt;" class="s12" d="m996.9 499.6l-3.7 2.1v-4.2l3.7-2.1z"/>
						<path id="&lt;Path&gt;" class="s12" d="m1003.6 495.8l-3.7 2.1v-4.3l3.7-2.1z"/>
						<path id="&lt;Path&gt;" class="s12" d="m1027.6 473.4l-3.7 2.1v-4.2l3.7-2.1z"/>
						<path id="&lt;Path&gt;" class="s12" d="m1048.6 461.2l-3.7 2.1v-4.2l3.7-2.1z"/>
						<path id="&lt;Path&gt;" class="s12" d="m1010.7 483.1l-3.6 2.1v-4.2l3.6-2.1z"/>
					</g>
				</g>
				<path id="&lt;Path&gt;" class="s12" d="m941.5 500l-42.8-24.6c-1-0.6-1.8-2.2-1.8-3.6v-3.1c0-1.4 0.8-2 1.8-1.4l42.8 24.6c1 0.6 1.8 2.2 1.8 3.6v3.1c0 1.4-0.8 2-1.8 1.4z"/>
			</g>
			<g id="&lt;Group&gt;">
				<path id="&lt;Path&gt;" class="s2" d="m979.8 552.9l88.3-50.9c3.6-2.1 6.6 0.1 6.6 5v24.7c0 4.9-3 10.6-6.6 12.7l-88.3 51c-3.7 2.1-6.7-0.2-6.7-5.1v-24.7c0-4.9 3-10.5 6.7-12.7z"/>
				<path id="&lt;Compound Path&gt;" fill-rule="evenodd" class="s9" d="m977.1 596.9q-1.1 0-2-0.6c-1.7-0.9-2.7-3.1-2.7-6v-24.7c0-5.1 3.2-11 7-13.3l88.3-50.9c1.8-1.1 3.6-1.2 5.1-0.4 1.6 1 2.6 3.2 2.6 6v24.7c0 5.1-3.1 11.1-7 13.3l-88.3 51q-1.5 0.9-3 0.9zm3-43.3c-3.4 2-6.3 7.4-6.3 12v24.7c0 2.4 0.8 4.1 2 4.8 1 0.6 2.2 0.4 3.6-0.3l88.3-51c3.5-2 6.3-7.4 6.3-12.1v-24.7c0-2.3-0.7-4-2-4.8-0.9-0.5-2.2-0.4-3.6 0.4z"/>
			</g>
			<g id="&lt;Group&gt;">
				<path id="&lt;Path&gt;" class="s2" d="m952.6 553.5l-88.3-51c-3.7-2.1-6.7 0.2-6.7 5.1v24.7c0 4.9 3 10.5 6.7 12.7l88.3 50.9c3.6 2.1 6.6-0.1 6.6-5v-24.7c0-4.9-3-10.6-6.6-12.7z"/>
				<path id="&lt;Compound Path&gt;" fill-rule="evenodd" class="s9" d="m955.2 597.4q-1.4 0-3-0.8l-88.3-51c-3.8-2.2-7-8.2-7-13.3v-24.7c0-2.9 1-5.1 2.7-6 1.4-0.9 3.2-0.7 5 0.3l88.3 51c3.9 2.2 7 8.2 7 13.3v24.7c0 2.8-1 5-2.6 6q-1 0.5-2.1 0.5zm-93.6-94.9q-0.7 0-1.3 0.3c-1.2 0.7-2 2.4-2 4.8v24.7c0 4.6 2.9 10 6.3 12l88.3 51c1.4 0.8 2.7 0.9 3.6 0.4 1.3-0.7 2-2.5 2-4.8v-24.7c0-4.7-2.8-10.1-6.3-12.1l-88.3-50.9q-1.2-0.7-2.3-0.7z"/>
			</g>
			<path id="&lt;Path&gt;" class="s2" d="m1054.1 409.6l-77-44.5c-6.1-3.5-16.1-3.5-22.2 0l-76.6 44.6c-6.1 3.5-6.1 9.3 0 12.8l77 44.5c6.1 3.5 16.1 3.5 22.2 0l76.6-44.6c6.1-3.5 6.1-9.3 0-12.8z"/>
			<path id="&lt;Compound Path&gt;" fill-rule="evenodd" class="s9" d="m966.4 470.3c-4.2 0-8.3-0.9-11.5-2.7l-77-44.5c-3.2-1.8-4.9-4.3-4.9-7 0-2.7 1.7-5.2 4.9-7l76.6-44.6c6.4-3.6 16.6-3.6 22.9 0l77 44.5c3.2 1.8 5 4.3 5 7 0 2.7-1.8 5.2-5 7l-76.5 44.6c-3.2 1.8-7.4 2.7-11.5 2.7zm-0.4-107.1c-3.9 0-7.8 0.9-10.7 2.6l-76.6 44.5c-2.8 1.6-4.3 3.6-4.3 5.8 0 2.1 1.5 4.2 4.3 5.8l77 44.4c5.9 3.5 15.5 3.5 21.4 0l76.6-44.5c2.8-1.6 4.3-3.6 4.3-5.8 0-2.1-1.5-4.2-4.3-5.8l-77-44.4c-2.9-1.7-6.8-2.6-10.7-2.6z"/>
		</g>
		<g id="&lt;Group&gt;">
			<path id="&lt;Path&gt;" class="s4" d="m1101.3 381.2c0 4.6-3.7 8.3-8.3 8.3-4.6 0-8.3-3.7-8.3-8.3 0-4.7 3.7-8.4 8.3-8.4 4.6 0 8.3 3.7 8.3 8.4z"/>
			<path id="&lt;Path&gt;" class="s5" d="m1097.1 381.2c0 2.2-1.8 4-4.1 4-2.3 0-4.1-1.8-4.1-4 0-2.3 1.8-4.1 4.1-4.1 2.3 0 4.1 1.8 4.1 4.1z"/>
		</g>
		<g id="&lt;Group&gt;">
			<path id="&lt;Path&gt;" class="s4" d="m837.9 492.1c0 6.7-5.4 12.1-12.1 12.1-6.7 0-12.2-5.4-12.2-12.1 0-6.7 5.5-12.2 12.2-12.2 6.7 0 12.1 5.5 12.1 12.2z"/>
			<path id="&lt;Path&gt;" class="s5" d="m831.7 492.1c0 3.3-2.6 6-5.9 6-3.3 0-6-2.7-6-6 0-3.3 2.7-6 6-6 3.3 0 5.9 2.7 5.9 6z"/>
		</g>
		<g id="&lt;Group&gt;">
			<path id="&lt;Path&gt;" class="s4" d="m906 99.7c0 5.1-4.1 9.2-9.1 9.2-5.1 0-9.2-4.1-9.2-9.2 0-5.1 4.1-9.2 9.2-9.2 5 0 9.1 4.1 9.1 9.2z"/>
			<path id="&lt;Path&gt;" class="s5" d="m901.4 99.7c0 2.5-2.1 4.5-4.5 4.5-2.5 0-4.6-2-4.6-4.5 0-2.5 2.1-4.5 4.6-4.5 2.4 0 4.5 2 4.5 4.5z"/>
		</g>
		<g id="&lt;Group&gt;">
		</g>
	</g>
</svg>