<svg width="1801" height="1120" viewBox="0 0 1801 1120" fill="none" xmlns="http://www.w3.org/2000/svg">
<g filter="url(#filter0_b_2_40)">
<rect x="345" y="230" width="1109" height="603" rx="30" fill="#59416C" fill-opacity="0.37"/>
<rect x="345.5" y="230.5" width="1108" height="602" rx="29.5" stroke="url(#paint0_linear_2_40)"/>
</g>
<rect x="345" y="273" width="1109" height="517" fill="#D9D9D9" fill-opacity="0.22"/>
<g filter="url(#filter1_d_2_40)">
<rect x="684" y="308" width="739" height="97" fill="#2E0952" fill-opacity="0.68"/>
<rect x="684" y="417" width="739" height="97" fill="#2E0952" fill-opacity="0.68"/>
<rect x="684" y="526" width="739" height="97" fill="#2E0952" fill-opacity="0.68"/>
<rect x="684" y="637" width="739" height="97" fill="#2E0952" fill-opacity="0.68"/>
<rect x="378" y="308" width="286" height="203" fill="#2E0952" fill-opacity="0.68"/>
<rect x="378" y="531" width="286" height="203" fill="#2E0952" fill-opacity="0.68"/>
</g>
<g filter="url(#filter2_bd_2_40)">
<rect x="164" y="230" width="214" height="237" rx="30" fill="#59416C" fill-opacity="0.37" shape-rendering="crispEdges"/>
<rect x="164.5" y="230.5" width="213" height="236" rx="29.5" stroke="url(#paint1_linear_2_40)" shape-rendering="crispEdges"/>
</g>
<g filter="url(#filter3_bd_2_40)">
<rect x="492" y="130" width="229" height="155" rx="30" fill="#59416C" fill-opacity="0.37" shape-rendering="crispEdges"/>
<rect x="492.5" y="130.5" width="228" height="154" rx="29.5" stroke="url(#paint2_linear_2_40)" shape-rendering="crispEdges"/>
</g>
<g filter="url(#filter4_bd_2_40)">
<rect x="835" y="89" width="377" height="64" rx="30" fill="#59416C" fill-opacity="0.37" shape-rendering="crispEdges"/>
<rect x="835.5" y="89.5" width="376" height="63" rx="29.5" stroke="url(#paint3_linear_2_40)" shape-rendering="crispEdges"/>
</g>
<g filter="url(#filter5_bd_2_40)">
<rect x="835" y="175" width="377" height="64" rx="30" fill="#59416C" fill-opacity="0.37" shape-rendering="crispEdges"/>
<rect x="835.5" y="175.5" width="376" height="63" rx="29.5" stroke="url(#paint4_linear_2_40)" shape-rendering="crispEdges"/>
</g>
<g filter="url(#filter6_bd_2_40)">
<rect x="835" y="261" width="377" height="64" rx="30" fill="#59416C" fill-opacity="0.37" shape-rendering="crispEdges"/>
<rect x="835.5" y="261.5" width="376" height="63" rx="29.5" stroke="url(#paint5_linear_2_40)" shape-rendering="crispEdges"/>
</g>
<g filter="url(#filter7_bd_2_40)">
<rect x="1373" y="244" width="289" height="282" rx="30" fill="#59416C" fill-opacity="0.37" shape-rendering="crispEdges"/>
<rect x="1373.5" y="244.5" width="288" height="281" rx="29.5" stroke="url(#paint6_linear_2_40)" shape-rendering="crispEdges"/>
</g>
<g filter="url(#filter8_bd_2_40)">
<rect x="1243" y="555" width="458" height="387" rx="30" fill="#59416C" fill-opacity="0.37" shape-rendering="crispEdges"/>
<rect x="1243.5" y="555.5" width="457" height="386" rx="29.5" stroke="url(#paint7_linear_2_40)" shape-rendering="crispEdges"/>
</g>
<g filter="url(#filter9_bd_2_40)">
<rect x="942" y="887" width="214" height="135" rx="30" fill="#59416C" fill-opacity="0.37" shape-rendering="crispEdges"/>
<rect x="942.5" y="887.5" width="213" height="134" rx="29.5" stroke="url(#paint8_linear_2_40)" shape-rendering="crispEdges"/>
</g>
<g filter="url(#filter10_bd_2_40)">
<rect x="521" y="734" width="364" height="237" rx="30" fill="#59416C" fill-opacity="0.37" shape-rendering="crispEdges"/>
<rect x="521.5" y="734.5" width="363" height="236" rx="29.5" stroke="url(#paint9_linear_2_40)" shape-rendering="crispEdges"/>
</g>
<g filter="url(#filter11_bd_2_40)">
<rect x="177" y="556" width="214" height="331" rx="30" fill="#59416C" fill-opacity="0.37" shape-rendering="crispEdges"/>
<rect x="177.5" y="556.5" width="213" height="330" rx="29.5" stroke="url(#paint10_linear_2_40)" shape-rendering="crispEdges"/>
</g>
<path d="M304 308C304 316.837 311.163 324 320 324C328.837 324 336 316.837 336 308C336 299.163 328.837 292 320 292C311.163 292 304 299.163 304 308ZM418 352.5C418 361.337 425.163 368.5 434 368.5C442.837 368.5 450 361.337 450 352.5C450 343.663 442.837 336.5 434 336.5C425.163 336.5 418 343.663 418 352.5ZM333.364 336.043L336.073 334.753L333.364 336.043ZM382.113 347.77L380.288 345.388L382.113 347.77ZM317.292 309.291L330.656 337.334L336.073 334.753L322.708 306.709L317.292 309.291ZM383.938 350.151L400.506 337.452L396.856 332.69L380.288 345.388L383.938 350.151ZM400.506 337.452C412.979 327.892 431 336.785 431 352.5H437C437 331.811 413.276 320.104 396.856 332.69L400.506 337.452ZM330.656 337.334C340.302 357.575 366.142 363.791 383.938 350.151L380.288 345.388C365.52 356.708 344.077 351.55 336.073 334.753L330.656 337.334Z" fill="#7C4F9F"/>
<path d="M329 633.5C329 642.337 336.163 649.5 345 649.5C353.837 649.5 361 642.337 361 633.5C361 624.663 353.837 617.5 345 617.5C336.163 617.5 329 624.663 329 633.5ZM443 580.5C443 589.337 450.163 596.5 459 596.5C467.837 596.5 475 589.337 475 580.5C475 571.663 467.837 564.5 459 564.5C450.163 564.5 443 571.663 443 580.5ZM346.698 635.973L374.045 617.193L370.648 612.247L343.302 631.027L346.698 635.973ZM403.67 608H434.5V602H403.67V608ZM434.5 608C449.688 608 462 595.688 462 580.5H456C456 592.374 446.374 602 434.5 602V608ZM374.045 617.193C382.764 611.205 393.093 608 403.67 608V602C391.88 602 380.367 605.573 370.648 612.247L374.045 617.193Z" fill="#7C4F9F"/>
<path d="M1121 678C1121 686.837 1128.16 694 1137 694C1145.84 694 1153 686.837 1153 678C1153 669.163 1145.84 662 1137 662C1128.16 662 1121 669.163 1121 678ZM1258 746.5C1258 755.337 1265.16 762.5 1274 762.5C1282.84 762.5 1290 755.337 1290 746.5C1290 737.663 1282.84 730.5 1274 730.5C1265.16 730.5 1258 737.663 1258 746.5ZM1182.03 715.632C1182.03 724.468 1189.19 731.632 1198.03 731.632C1206.86 731.632 1214.03 724.468 1214.03 715.632C1214.03 706.795 1206.86 699.632 1198.03 699.632C1189.19 699.632 1182.03 706.795 1182.03 715.632ZM1242.35 723.444L1272.05 748.783L1275.95 744.217L1246.24 718.879L1242.35 723.444ZM1199.38 718.309C1213.43 711.203 1230.37 713.228 1242.35 723.444L1246.24 718.879C1232.42 707.093 1212.88 704.758 1196.67 712.955L1199.38 718.309ZM1134 678C1134 711.566 1169.41 733.471 1199.38 718.309L1196.67 712.955C1170.71 726.087 1140 707.12 1140 678H1134Z" fill="#7C4F9F"/>
<path d="M826 891C826 899.837 833.163 907 842 907C850.837 907 858 899.837 858 891C858 882.163 850.837 875 842 875C833.163 875 826 882.163 826 891ZM940 935.5C940 944.337 947.163 951.5 956 951.5C964.837 951.5 972 944.337 972 935.5C972 926.663 964.837 919.5 956 919.5C947.163 919.5 940 926.663 940 935.5ZM855.364 919.043L858.073 917.753L855.364 919.043ZM904.113 930.77L902.288 928.388L904.113 930.77ZM839.292 892.291L852.656 920.334L858.073 917.753L844.708 889.709L839.292 892.291ZM905.938 933.151L922.506 920.452L918.856 915.69L902.288 928.388L905.938 933.151ZM922.506 920.452C934.979 910.892 953 919.785 953 935.5H959C959 914.811 935.276 903.104 918.856 915.69L922.506 920.452ZM852.656 920.334C862.302 940.575 888.142 946.791 905.938 933.151L902.288 928.388C887.52 939.708 866.077 934.55 858.073 917.753L852.656 920.334Z" fill="#7C4F9F"/>
<path d="M1094 927.5C1094 936.337 1101.16 943.5 1110 943.5C1118.84 943.5 1126 936.337 1126 927.5C1126 918.663 1118.84 911.5 1110 911.5C1101.16 911.5 1094 918.663 1094 927.5ZM999.5 986C999.5 994.837 1006.66 1002 1015.5 1002C1024.34 1002 1031.5 994.837 1031.5 986C1031.5 977.163 1024.34 970 1015.5 970C1006.66 970 999.5 977.163 999.5 986ZM1107.04 927.993C1108.63 937.513 1109.21 948.667 1107.83 959.287C1106.44 969.937 1103.11 979.797 1097.09 987.001C1091.16 994.097 1082.42 998.859 1069.6 999.088C1056.65 999.319 1039.44 994.914 1016.87 983.331L1014.13 988.669C1037.16 1000.49 1055.38 1005.34 1069.71 1005.09C1084.17 1004.83 1094.58 999.353 1101.69 990.849C1108.71 982.453 1112.31 971.351 1113.78 960.063C1115.25 948.746 1114.62 936.987 1112.96 927.007L1107.04 927.993Z" fill="#7C4F9F"/>
<path d="M673.5 166.5C673.5 175.337 680.663 182.5 689.5 182.5C698.337 182.5 705.5 175.337 705.5 166.5C705.5 157.663 698.337 150.5 689.5 150.5C680.663 150.5 673.5 157.663 673.5 166.5ZM857 122C857 130.837 864.163 138 873 138C881.837 138 889 130.837 889 122C889 113.163 881.837 106 873 106C864.163 106 857 113.163 857 122ZM673.5 205.5C673.5 214.337 680.663 221.5 689.5 221.5C698.337 221.5 705.5 214.337 705.5 205.5C705.5 196.663 698.337 189.5 689.5 189.5C680.663 189.5 673.5 196.663 673.5 205.5ZM857 205.5C857 214.337 864.163 221.5 873 221.5C881.837 221.5 889 214.337 889 205.5C889 196.663 881.837 189.5 873 189.5C864.163 189.5 857 196.663 857 205.5ZM673.5 247C673.5 255.837 680.663 263 689.5 263C698.337 263 705.5 255.837 705.5 247C705.5 238.163 698.337 231 689.5 231C680.663 231 673.5 238.163 673.5 247ZM857 294.5C857 303.337 864.163 310.5 873 310.5C881.837 310.5 889 303.337 889 294.5C889 285.663 881.837 278.5 873 278.5C864.163 278.5 857 285.663 857 294.5ZM689.5 247C690.361 249.874 690.361 249.874 690.361 249.874C690.361 249.874 690.362 249.874 690.363 249.873C690.364 249.873 690.368 249.872 690.372 249.87C690.381 249.868 690.396 249.863 690.416 249.857C690.456 249.846 690.518 249.827 690.601 249.803C690.766 249.755 691.015 249.684 691.342 249.592C691.997 249.408 692.963 249.143 694.197 248.822C696.665 248.181 700.199 247.319 704.443 246.442C712.949 244.684 724.22 242.885 735.436 242.656C746.728 242.425 757.573 243.798 765.492 248.06C769.404 250.165 772.554 252.948 774.74 256.566C776.924 260.182 778.25 264.804 778.25 270.75H784.25C784.25 263.883 782.709 258.154 779.875 253.464C777.044 248.777 773.026 245.3 768.336 242.776C759.052 237.78 746.959 236.419 735.314 236.657C723.592 236.896 711.926 238.769 703.229 240.566C698.871 241.466 695.237 242.352 692.688 243.015C691.413 243.346 690.408 243.622 689.719 243.816C689.374 243.913 689.108 243.989 688.926 244.042C688.835 244.068 688.765 244.089 688.717 244.103C688.693 244.11 688.674 244.116 688.661 244.12C688.655 244.122 688.65 244.123 688.646 244.124C688.644 244.125 688.642 244.125 688.641 244.126C688.64 244.126 688.639 244.126 689.5 247ZM778.25 270.75C778.25 277.617 779.791 283.346 782.625 288.036C785.456 292.723 789.474 296.2 794.164 298.724C803.448 303.72 815.541 305.081 827.186 304.843C838.908 304.604 850.574 302.731 859.271 300.934C863.629 300.034 867.263 299.147 869.812 298.485C871.087 298.154 872.092 297.878 872.781 297.684C873.126 297.587 873.392 297.511 873.574 297.458C873.665 297.432 873.735 297.411 873.783 297.397C873.807 297.39 873.826 297.384 873.839 297.38C873.845 297.378 873.85 297.377 873.854 297.376C873.856 297.375 873.858 297.375 873.859 297.374C873.86 297.374 873.861 297.374 873 294.5C872.139 291.626 872.139 291.626 872.139 291.626C872.139 291.626 872.138 291.626 872.137 291.627C872.136 291.627 872.132 291.628 872.128 291.63C872.119 291.632 872.104 291.637 872.084 291.643C872.044 291.654 871.982 291.673 871.899 291.697C871.734 291.745 871.485 291.816 871.158 291.908C870.503 292.092 869.537 292.357 868.303 292.678C865.835 293.319 862.301 294.181 858.057 295.058C849.551 296.816 838.28 298.615 827.064 298.844C815.772 299.075 804.927 297.702 797.008 293.44C793.096 291.335 789.946 288.552 787.76 284.934C785.576 281.318 784.25 276.696 784.25 270.75H778.25ZM689.5 208.5H781.25V202.5H689.5V208.5ZM781.25 208.5H873V202.5H781.25V208.5ZM689.5 166.5C688.326 169.261 688.328 169.261 688.329 169.262C688.33 169.262 688.332 169.263 688.334 169.264C688.337 169.266 688.343 169.268 688.349 169.271C688.362 169.276 688.381 169.284 688.405 169.294C688.454 169.314 688.524 169.344 688.615 169.382C688.797 169.457 689.064 169.567 689.409 169.706C690.1 169.984 691.107 170.381 692.383 170.863C694.935 171.826 698.574 173.13 702.938 174.499C711.642 177.231 723.337 180.257 735.102 181.331C746.783 182.398 759.006 181.586 768.412 176.166C778.105 170.58 784.25 160.434 784.25 144.25H778.25C778.25 158.691 772.926 166.639 765.416 170.967C757.619 175.461 746.905 176.384 735.648 175.356C724.475 174.336 713.233 171.441 704.734 168.774C700.497 167.445 696.967 166.18 694.502 165.249C693.269 164.784 692.304 164.403 691.651 164.14C691.325 164.009 691.076 163.907 690.911 163.838C690.829 163.804 690.768 163.779 690.728 163.762C690.708 163.753 690.693 163.747 690.684 163.744C690.68 163.742 690.676 163.74 690.675 163.74C690.674 163.739 690.674 163.739 690.673 163.739C690.673 163.739 690.674 163.739 689.5 166.5ZM784.25 144.25C784.25 129.809 789.574 121.861 797.084 117.533C804.881 113.039 815.595 112.116 826.852 113.144C838.025 114.164 849.267 117.059 857.766 119.726C862.003 121.055 865.533 122.32 867.998 123.251C869.231 123.716 870.196 124.097 870.849 124.36C871.175 124.491 871.424 124.593 871.589 124.662C871.671 124.696 871.732 124.721 871.772 124.738C871.792 124.746 871.807 124.753 871.816 124.756C871.82 124.758 871.824 124.76 871.825 124.76C871.826 124.761 871.826 124.761 871.827 124.761C871.827 124.761 871.826 124.761 873 122C874.174 119.239 874.172 119.239 874.171 119.238C874.17 119.238 874.168 119.237 874.166 119.236C874.163 119.234 874.157 119.232 874.151 119.229C874.138 119.224 874.119 119.216 874.095 119.206C874.046 119.185 873.976 119.156 873.885 119.118C873.703 119.043 873.436 118.933 873.091 118.794C872.4 118.516 871.393 118.119 870.117 117.637C867.565 116.674 863.926 115.37 859.562 114.001C850.858 111.269 839.163 108.243 827.398 107.169C815.717 106.102 803.494 106.914 794.088 112.334C784.395 117.92 778.25 128.066 778.25 144.25H784.25Z" fill="#7C4F9F"/>
<path d="M1442.5 421.737C1442.5 430.573 1435.34 437.737 1426.5 437.737C1417.66 437.737 1410.5 430.573 1410.5 421.737C1410.5 412.9 1417.66 405.737 1426.5 405.737C1435.34 405.737 1442.5 412.9 1442.5 421.737ZM1259 377.237C1259 386.073 1251.84 393.237 1243 393.237C1234.16 393.237 1227 386.073 1227 377.237C1227 368.4 1234.16 361.237 1243 361.237C1251.84 361.237 1259 368.4 1259 377.237ZM1442.5 460.737C1442.5 469.573 1435.34 476.737 1426.5 476.737C1417.66 476.737 1410.5 469.573 1410.5 460.737C1410.5 451.9 1417.66 444.737 1426.5 444.737C1435.34 444.737 1442.5 451.9 1442.5 460.737ZM1259 460.737C1259 469.573 1251.84 476.737 1243 476.737C1234.16 476.737 1227 469.573 1227 460.737C1227 451.9 1234.16 444.737 1243 444.737C1251.84 444.737 1259 451.9 1259 460.737ZM1442.5 502.237C1442.5 511.073 1435.34 518.237 1426.5 518.237C1417.66 518.237 1410.5 511.073 1410.5 502.237C1410.5 493.4 1417.66 486.237 1426.5 486.237C1435.34 486.237 1442.5 493.4 1442.5 502.237ZM1259 549.737C1259 558.573 1251.84 565.737 1243 565.737C1234.16 565.737 1227 558.573 1227 549.737C1227 540.9 1234.16 533.737 1243 533.737C1251.84 533.737 1259 540.9 1259 549.737ZM1426.5 502.237C1425.64 505.11 1425.64 505.11 1425.64 505.11C1425.64 505.11 1425.64 505.11 1425.64 505.11C1425.64 505.109 1425.63 505.108 1425.63 505.107C1425.62 505.104 1425.6 505.1 1425.58 505.094C1425.54 505.082 1425.48 505.064 1425.4 505.04C1425.23 504.992 1424.98 504.92 1424.66 504.828C1424 504.644 1423.04 504.379 1421.8 504.059C1419.33 503.417 1415.8 502.555 1411.56 501.679C1403.05 499.921 1391.78 498.122 1380.56 497.892C1369.27 497.662 1358.43 499.035 1350.51 503.296C1346.6 505.401 1343.45 508.184 1341.26 511.803C1339.08 515.419 1337.75 520.041 1337.75 525.987H1331.75C1331.75 519.12 1333.29 513.39 1336.12 508.701C1338.96 504.014 1342.97 500.537 1347.66 498.013C1356.95 493.017 1369.04 491.656 1380.69 491.894C1392.41 492.133 1404.07 494.006 1412.77 495.803C1417.13 496.703 1420.76 497.589 1423.31 498.252C1424.59 498.583 1425.59 498.858 1426.28 499.052C1426.63 499.149 1426.89 499.226 1427.07 499.279C1427.17 499.305 1427.24 499.326 1427.28 499.34C1427.31 499.347 1427.33 499.352 1427.34 499.356C1427.35 499.358 1427.35 499.36 1427.35 499.361C1427.36 499.361 1427.36 499.362 1427.36 499.362C1427.36 499.363 1427.36 499.363 1426.5 502.237ZM1337.75 525.987C1337.75 532.853 1336.21 538.583 1333.38 543.273C1330.54 547.96 1326.53 551.436 1321.84 553.96C1312.55 558.957 1300.46 560.318 1288.81 560.08C1277.09 559.84 1265.43 557.968 1256.73 556.171C1252.37 555.27 1248.74 554.384 1246.19 553.722C1244.91 553.391 1243.91 553.115 1243.22 552.921C1242.87 552.824 1242.61 552.748 1242.43 552.695C1242.33 552.668 1242.26 552.648 1242.22 552.634C1242.19 552.626 1242.17 552.621 1242.16 552.617C1242.15 552.615 1242.15 552.614 1242.15 552.612C1242.14 552.612 1242.14 552.611 1242.14 552.611C1242.14 552.611 1242.14 552.61 1243 549.737C1243.86 546.863 1243.86 546.863 1243.86 546.863C1243.86 546.863 1243.86 546.863 1243.86 546.863C1243.86 546.864 1243.87 546.865 1243.87 546.866C1243.88 546.869 1243.9 546.873 1243.92 546.879C1243.96 546.891 1244.02 546.909 1244.1 546.933C1244.27 546.981 1244.52 547.053 1244.84 547.145C1245.5 547.329 1246.46 547.594 1247.7 547.915C1250.17 548.556 1253.7 549.418 1257.94 550.295C1266.45 552.052 1277.72 553.852 1288.94 554.081C1300.23 554.312 1311.07 552.939 1318.99 548.677C1322.9 546.572 1326.05 543.789 1328.24 540.17C1330.42 536.554 1331.75 531.932 1331.75 525.987H1337.75ZM1426.5 463.737H1334.75V457.737H1426.5V463.737ZM1334.75 463.737H1243V457.737H1334.75V463.737ZM1426.5 421.737C1427.67 424.498 1427.67 424.498 1427.67 424.499C1427.67 424.499 1427.67 424.5 1427.67 424.501C1427.66 424.502 1427.66 424.504 1427.65 424.507C1427.64 424.513 1427.62 424.521 1427.59 424.531C1427.55 424.551 1427.48 424.58 1427.39 424.618C1427.2 424.694 1426.94 424.803 1426.59 424.942C1425.9 425.221 1424.89 425.618 1423.62 426.1C1421.06 427.063 1417.43 428.366 1413.06 429.736C1404.36 432.467 1392.66 435.494 1380.9 436.568C1369.22 437.634 1356.99 436.823 1347.59 431.402C1337.9 425.816 1331.75 415.671 1331.75 399.487H1337.75C1337.75 413.927 1343.07 421.876 1350.58 426.204C1358.38 430.697 1369.1 431.62 1380.35 430.593C1391.52 429.573 1402.77 426.678 1411.27 424.011C1415.5 422.681 1419.03 421.416 1421.5 420.486C1422.73 420.021 1423.7 419.64 1424.35 419.377C1424.68 419.245 1424.92 419.143 1425.09 419.075C1425.17 419.041 1425.23 419.015 1425.27 418.999C1425.29 418.99 1425.31 418.984 1425.32 418.98C1425.32 418.978 1425.32 418.977 1425.33 418.976C1425.33 418.976 1425.33 418.976 1425.33 418.976C1425.33 418.976 1425.33 418.976 1426.5 421.737ZM1331.75 399.487C1331.75 385.046 1326.43 377.098 1318.92 372.77C1311.12 368.276 1300.4 367.353 1289.15 368.381C1277.98 369.4 1266.73 372.295 1258.23 374.962C1254 376.292 1250.47 377.557 1248 378.487C1246.77 378.952 1245.8 379.333 1245.15 379.596C1244.82 379.728 1244.58 379.83 1244.41 379.898C1244.33 379.932 1244.27 379.958 1244.23 379.975C1244.21 379.983 1244.19 379.989 1244.18 379.993C1244.18 379.995 1244.18 379.996 1244.17 379.997C1244.17 379.997 1244.17 379.998 1244.17 379.998C1244.17 379.998 1244.17 379.998 1243 377.237C1241.83 374.476 1241.83 374.475 1241.83 374.475C1241.83 374.474 1241.83 374.473 1241.83 374.473C1241.84 374.471 1241.84 374.469 1241.85 374.466C1241.86 374.46 1241.88 374.453 1241.91 374.442C1241.95 374.422 1242.02 374.393 1242.11 374.355C1242.3 374.28 1242.56 374.17 1242.91 374.031C1243.6 373.753 1244.61 373.356 1245.88 372.874C1248.44 371.911 1252.07 370.607 1256.44 369.238C1265.14 366.506 1276.84 363.479 1288.6 362.405C1300.28 361.339 1312.51 362.15 1321.91 367.571C1331.6 373.157 1337.75 383.302 1337.75 399.487H1331.75Z" fill="#7C4F9F"/>
<defs>
<filter id="filter0_b_2_40" x="325" y="210" width="1149" height="643" filterUnits="userSpaceOnUse" color-interpolation-filters="sRGB">
<feFlood flood-opacity="0" result="BackgroundImageFix"/>
<feGaussianBlur in="BackgroundImageFix" stdDeviation="10"/>
<feComposite in2="SourceAlpha" operator="in" result="effect1_backgroundBlur_2_40"/>
<feBlend mode="normal" in="SourceGraphic" in2="effect1_backgroundBlur_2_40" result="shape"/>
</filter>
<filter id="filter1_d_2_40" x="368" y="298" width="1085" height="466" filterUnits="userSpaceOnUse" color-interpolation-filters="sRGB">
<feFlood flood-opacity="0" result="BackgroundImageFix"/>
<feColorMatrix in="SourceAlpha" type="matrix" values="0 0 0 0 0 0 0 0 0 0 0 0 0 0 0 0 0 0 127 0" result="hardAlpha"/>
<feOffset dx="10" dy="10"/>
<feGaussianBlur stdDeviation="10"/>
<feComposite in2="hardAlpha" operator="out"/>
<feColorMatrix type="matrix" values="0 0 0 0 0 0 0 0 0 0 0 0 0 0 0 0 0 0 0.25 0"/>
<feBlend mode="normal" in2="BackgroundImageFix" result="effect1_dropShadow_2_40"/>
<feBlend mode="normal" in="SourceGraphic" in2="effect1_dropShadow_2_40" result="shape"/>
</filter>
<filter id="filter2_bd_2_40" x="144" y="210" width="258" height="281" filterUnits="userSpaceOnUse" color-interpolation-filters="sRGB">
<feFlood flood-opacity="0" result="BackgroundImageFix"/>
<feGaussianBlur in="BackgroundImageFix" stdDeviation="10"/>
<feComposite in2="SourceAlpha" operator="in" result="effect1_backgroundBlur_2_40"/>
<feColorMatrix in="SourceAlpha" type="matrix" values="0 0 0 0 0 0 0 0 0 0 0 0 0 0 0 0 0 0 127 0" result="hardAlpha"/>
<feOffset dx="4" dy="4"/>
<feGaussianBlur stdDeviation="10"/>
<feComposite in2="hardAlpha" operator="out"/>
<feColorMatrix type="matrix" values="0 0 0 0 0 0 0 0 0 0 0 0 0 0 0 0 0 0 0.25 0"/>
<feBlend mode="normal" in2="effect1_backgroundBlur_2_40" result="effect2_dropShadow_2_40"/>
<feBlend mode="normal" in="SourceGraphic" in2="effect2_dropShadow_2_40" result="shape"/>
</filter>
<filter id="filter3_bd_2_40" x="472" y="110" width="273" height="199" filterUnits="userSpaceOnUse" color-interpolation-filters="sRGB">
<feFlood flood-opacity="0" result="BackgroundImageFix"/>
<feGaussianBlur in="BackgroundImageFix" stdDeviation="10"/>
<feComposite in2="SourceAlpha" operator="in" result="effect1_backgroundBlur_2_40"/>
<feColorMatrix in="SourceAlpha" type="matrix" values="0 0 0 0 0 0 0 0 0 0 0 0 0 0 0 0 0 0 127 0" result="hardAlpha"/>
<feOffset dx="4" dy="4"/>
<feGaussianBlur stdDeviation="10"/>
<feComposite in2="hardAlpha" operator="out"/>
<feColorMatrix type="matrix" values="0 0 0 0 0 0 0 0 0 0 0 0 0 0 0 0 0 0 0.25 0"/>
<feBlend mode="normal" in2="effect1_backgroundBlur_2_40" result="effect2_dropShadow_2_40"/>
<feBlend mode="normal" in="SourceGraphic" in2="effect2_dropShadow_2_40" result="shape"/>
</filter>
<filter id="filter4_bd_2_40" x="815" y="69" width="421" height="108" filterUnits="userSpaceOnUse" color-interpolation-filters="sRGB">
<feFlood flood-opacity="0" result="BackgroundImageFix"/>
<feGaussianBlur in="BackgroundImageFix" stdDeviation="10"/>
<feComposite in2="SourceAlpha" operator="in" result="effect1_backgroundBlur_2_40"/>
<feColorMatrix in="SourceAlpha" type="matrix" values="0 0 0 0 0 0 0 0 0 0 0 0 0 0 0 0 0 0 127 0" result="hardAlpha"/>
<feOffset dx="4" dy="4"/>
<feGaussianBlur stdDeviation="10"/>
<feComposite in2="hardAlpha" operator="out"/>
<feColorMatrix type="matrix" values="0 0 0 0 0 0 0 0 0 0 0 0 0 0 0 0 0 0 0.25 0"/>
<feBlend mode="normal" in2="effect1_backgroundBlur_2_40" result="effect2_dropShadow_2_40"/>
<feBlend mode="normal" in="SourceGraphic" in2="effect2_dropShadow_2_40" result="shape"/>
</filter>
<filter id="filter5_bd_2_40" x="815" y="155" width="421" height="108" filterUnits="userSpaceOnUse" color-interpolation-filters="sRGB">
<feFlood flood-opacity="0" result="BackgroundImageFix"/>
<feGaussianBlur in="BackgroundImageFix" stdDeviation="10"/>
<feComposite in2="SourceAlpha" operator="in" result="effect1_backgroundBlur_2_40"/>
<feColorMatrix in="SourceAlpha" type="matrix" values="0 0 0 0 0 0 0 0 0 0 0 0 0 0 0 0 0 0 127 0" result="hardAlpha"/>
<feOffset dx="4" dy="4"/>
<feGaussianBlur stdDeviation="10"/>
<feComposite in2="hardAlpha" operator="out"/>
<feColorMatrix type="matrix" values="0 0 0 0 0 0 0 0 0 0 0 0 0 0 0 0 0 0 0.25 0"/>
<feBlend mode="normal" in2="effect1_backgroundBlur_2_40" result="effect2_dropShadow_2_40"/>
<feBlend mode="normal" in="SourceGraphic" in2="effect2_dropShadow_2_40" result="shape"/>
</filter>
<filter id="filter6_bd_2_40" x="815" y="241" width="421" height="108" filterUnits="userSpaceOnUse" color-interpolation-filters="sRGB">
<feFlood flood-opacity="0" result="BackgroundImageFix"/>
<feGaussianBlur in="BackgroundImageFix" stdDeviation="10"/>
<feComposite in2="SourceAlpha" operator="in" result="effect1_backgroundBlur_2_40"/>
<feColorMatrix in="SourceAlpha" type="matrix" values="0 0 0 0 0 0 0 0 0 0 0 0 0 0 0 0 0 0 127 0" result="hardAlpha"/>
<feOffset dx="4" dy="4"/>
<feGaussianBlur stdDeviation="10"/>
<feComposite in2="hardAlpha" operator="out"/>
<feColorMatrix type="matrix" values="0 0 0 0 0 0 0 0 0 0 0 0 0 0 0 0 0 0 0.25 0"/>
<feBlend mode="normal" in2="effect1_backgroundBlur_2_40" result="effect2_dropShadow_2_40"/>
<feBlend mode="normal" in="SourceGraphic" in2="effect2_dropShadow_2_40" result="shape"/>
</filter>
<filter id="filter7_bd_2_40" x="1353" y="224" width="333" height="326" filterUnits="userSpaceOnUse" color-interpolation-filters="sRGB">
<feFlood flood-opacity="0" result="BackgroundImageFix"/>
<feGaussianBlur in="BackgroundImageFix" stdDeviation="10"/>
<feComposite in2="SourceAlpha" operator="in" result="effect1_backgroundBlur_2_40"/>
<feColorMatrix in="SourceAlpha" type="matrix" values="0 0 0 0 0 0 0 0 0 0 0 0 0 0 0 0 0 0 127 0" result="hardAlpha"/>
<feOffset dx="4" dy="4"/>
<feGaussianBlur stdDeviation="10"/>
<feComposite in2="hardAlpha" operator="out"/>
<feColorMatrix type="matrix" values="0 0 0 0 0 0 0 0 0 0 0 0 0 0 0 0 0 0 0.25 0"/>
<feBlend mode="normal" in2="effect1_backgroundBlur_2_40" result="effect2_dropShadow_2_40"/>
<feBlend mode="normal" in="SourceGraphic" in2="effect2_dropShadow_2_40" result="shape"/>
</filter>
<filter id="filter8_bd_2_40" x="1223" y="535" width="502" height="431" filterUnits="userSpaceOnUse" color-interpolation-filters="sRGB">
<feFlood flood-opacity="0" result="BackgroundImageFix"/>
<feGaussianBlur in="BackgroundImageFix" stdDeviation="10"/>
<feComposite in2="SourceAlpha" operator="in" result="effect1_backgroundBlur_2_40"/>
<feColorMatrix in="SourceAlpha" type="matrix" values="0 0 0 0 0 0 0 0 0 0 0 0 0 0 0 0 0 0 127 0" result="hardAlpha"/>
<feOffset dx="4" dy="4"/>
<feGaussianBlur stdDeviation="10"/>
<feComposite in2="hardAlpha" operator="out"/>
<feColorMatrix type="matrix" values="0 0 0 0 0 0 0 0 0 0 0 0 0 0 0 0 0 0 0.25 0"/>
<feBlend mode="normal" in2="effect1_backgroundBlur_2_40" result="effect2_dropShadow_2_40"/>
<feBlend mode="normal" in="SourceGraphic" in2="effect2_dropShadow_2_40" result="shape"/>
</filter>
<filter id="filter9_bd_2_40" x="922" y="867" width="258" height="179" filterUnits="userSpaceOnUse" color-interpolation-filters="sRGB">
<feFlood flood-opacity="0" result="BackgroundImageFix"/>
<feGaussianBlur in="BackgroundImageFix" stdDeviation="10"/>
<feComposite in2="SourceAlpha" operator="in" result="effect1_backgroundBlur_2_40"/>
<feColorMatrix in="SourceAlpha" type="matrix" values="0 0 0 0 0 0 0 0 0 0 0 0 0 0 0 0 0 0 127 0" result="hardAlpha"/>
<feOffset dx="4" dy="4"/>
<feGaussianBlur stdDeviation="10"/>
<feComposite in2="hardAlpha" operator="out"/>
<feColorMatrix type="matrix" values="0 0 0 0 0 0 0 0 0 0 0 0 0 0 0 0 0 0 0.25 0"/>
<feBlend mode="normal" in2="effect1_backgroundBlur_2_40" result="effect2_dropShadow_2_40"/>
<feBlend mode="normal" in="SourceGraphic" in2="effect2_dropShadow_2_40" result="shape"/>
</filter>
<filter id="filter10_bd_2_40" x="501" y="714" width="408" height="281" filterUnits="userSpaceOnUse" color-interpolation-filters="sRGB">
<feFlood flood-opacity="0" result="BackgroundImageFix"/>
<feGaussianBlur in="BackgroundImageFix" stdDeviation="10"/>
<feComposite in2="SourceAlpha" operator="in" result="effect1_backgroundBlur_2_40"/>
<feColorMatrix in="SourceAlpha" type="matrix" values="0 0 0 0 0 0 0 0 0 0 0 0 0 0 0 0 0 0 127 0" result="hardAlpha"/>
<feOffset dx="4" dy="4"/>
<feGaussianBlur stdDeviation="10"/>
<feComposite in2="hardAlpha" operator="out"/>
<feColorMatrix type="matrix" values="0 0 0 0 0 0 0 0 0 0 0 0 0 0 0 0 0 0 0.25 0"/>
<feBlend mode="normal" in2="effect1_backgroundBlur_2_40" result="effect2_dropShadow_2_40"/>
<feBlend mode="normal" in="SourceGraphic" in2="effect2_dropShadow_2_40" result="shape"/>
</filter>
<filter id="filter11_bd_2_40" x="157" y="536" width="258" height="375" filterUnits="userSpaceOnUse" color-interpolation-filters="sRGB">
<feFlood flood-opacity="0" result="BackgroundImageFix"/>
<feGaussianBlur in="BackgroundImageFix" stdDeviation="10"/>
<feComposite in2="SourceAlpha" operator="in" result="effect1_backgroundBlur_2_40"/>
<feColorMatrix in="SourceAlpha" type="matrix" values="0 0 0 0 0 0 0 0 0 0 0 0 0 0 0 0 0 0 127 0" result="hardAlpha"/>
<feOffset dx="4" dy="4"/>
<feGaussianBlur stdDeviation="10"/>
<feComposite in2="hardAlpha" operator="out"/>
<feColorMatrix type="matrix" values="0 0 0 0 0 0 0 0 0 0 0 0 0 0 0 0 0 0 0.25 0"/>
<feBlend mode="normal" in2="effect1_backgroundBlur_2_40" result="effect2_dropShadow_2_40"/>
<feBlend mode="normal" in="SourceGraphic" in2="effect2_dropShadow_2_40" result="shape"/>
</filter>
<linearGradient id="paint0_linear_2_40" x1="361.5" y1="531" x2="1256.5" y2="531" gradientUnits="userSpaceOnUse">
<stop stop-color="white"/>
<stop offset="1" stop-color="white" stop-opacity="0.31"/>
</linearGradient>
<linearGradient id="paint1_linear_2_40" x1="167.184" y1="348.303" x2="339.889" y2="348.303" gradientUnits="userSpaceOnUse">
<stop stop-color="white"/>
<stop offset="1" stop-color="white" stop-opacity="0.31"/>
</linearGradient>
<linearGradient id="paint2_linear_2_40" x1="495.407" y1="207.371" x2="680.218" y2="207.371" gradientUnits="userSpaceOnUse">
<stop stop-color="white"/>
<stop offset="1" stop-color="white" stop-opacity="0.31"/>
</linearGradient>
<linearGradient id="paint3_linear_2_40" x1="840.609" y1="120.947" x2="1144.86" y2="120.947" gradientUnits="userSpaceOnUse">
<stop stop-color="white"/>
<stop offset="1" stop-color="white" stop-opacity="0.31"/>
</linearGradient>
<linearGradient id="paint4_linear_2_40" x1="840.609" y1="206.947" x2="1144.86" y2="206.947" gradientUnits="userSpaceOnUse">
<stop stop-color="white"/>
<stop offset="1" stop-color="white" stop-opacity="0.31"/>
</linearGradient>
<linearGradient id="paint5_linear_2_40" x1="840.609" y1="292.947" x2="1144.86" y2="292.947" gradientUnits="userSpaceOnUse">
<stop stop-color="white"/>
<stop offset="1" stop-color="white" stop-opacity="0.31"/>
</linearGradient>
<linearGradient id="paint6_linear_2_40" x1="1377.3" y1="384.766" x2="1610.53" y2="384.766" gradientUnits="userSpaceOnUse">
<stop stop-color="white"/>
<stop offset="1" stop-color="white" stop-opacity="0.31"/>
</linearGradient>
<linearGradient id="paint7_linear_2_40" x1="1249.81" y1="748.179" x2="1619.44" y2="748.179" gradientUnits="userSpaceOnUse">
<stop stop-color="white"/>
<stop offset="1" stop-color="white" stop-opacity="0.31"/>
</linearGradient>
<linearGradient id="paint8_linear_2_40" x1="945.184" y1="954.388" x2="1117.89" y2="954.388" gradientUnits="userSpaceOnUse">
<stop stop-color="white"/>
<stop offset="1" stop-color="white" stop-opacity="0.31"/>
</linearGradient>
<linearGradient id="paint9_linear_2_40" x1="526.416" y1="852.303" x2="820.176" y2="852.303" gradientUnits="userSpaceOnUse">
<stop stop-color="white"/>
<stop offset="1" stop-color="white" stop-opacity="0.31"/>
</linearGradient>
<linearGradient id="paint10_linear_2_40" x1="180.184" y1="721.226" x2="352.889" y2="721.226" gradientUnits="userSpaceOnUse">
<stop stop-color="white"/>
<stop offset="1" stop-color="white" stop-opacity="0.31"/>
</linearGradient>
</defs>
</svg>
