<svg version="1.2" xmlns="http://www.w3.org/2000/svg" viewBox="0 0 1200 900" width="1200" height="900">
	<title>4102329_893-ai</title>
	<defs>
		<linearGradient id="g1" x2="1" gradientUnits="userSpaceOnUse" gradientTransform="matrix(137.452,0,0,79.358,803.648,391.737)">
			<stop offset="0" stop-color="#01c8ef"/>
			<stop offset="1" stop-color="#172f78"/>
		</linearGradient>
		<radialGradient id="g2" cx="0" cy="0" r="1" gradientUnits="userSpaceOnUse" gradientTransform="matrix(306.754,0,0,306.754,779.28,354.378)">
			<stop offset="0" stop-color="#01c8ef"/>
			<stop offset="1" stop-color="#172f78"/>
		</radialGradient>
		<linearGradient id="g3" x2="1" gradientUnits="userSpaceOnUse" gradientTransform="matrix(137.452,0,0,79.358,508.085,221.92)">
			<stop offset="0" stop-color="#01c8ef"/>
			<stop offset="1" stop-color="#172f78"/>
		</linearGradient>
		<radialGradient id="g4" cx="0" cy="0" r="1" gradientUnits="userSpaceOnUse" gradientTransform="matrix(306.754,0,0,306.754,483.717,184.562)">
			<stop offset="0" stop-color="#01c8ef"/>
			<stop offset="1" stop-color="#172f78"/>
		</radialGradient>
		<linearGradient id="g5" x2="1" gradientUnits="userSpaceOnUse" gradientTransform="matrix(218.619,0,0,236.158,575.804,205.891)">
			<stop offset="0" stop-color="#b6246e"/>
			<stop offset="1" stop-color="#f9636b"/>
		</linearGradient>
		<linearGradient id="g6" x2="1" gradientUnits="userSpaceOnUse" gradientTransform="matrix(122.775,0,0,70.408,618.695,347.489)">
			<stop offset="0" stop-color="#f9636b"/>
			<stop offset=".325" stop-color="#b7256e"/>
			<stop offset="1" stop-color="#b6246e"/>
		</linearGradient>
		<linearGradient id="g7" x2="1" gradientUnits="userSpaceOnUse" gradientTransform="matrix(-242.637,12.958,-7.669,-143.61,768.162,505.139)">
			<stop offset="0" stop-color="#b6246e"/>
			<stop offset="1" stop-color="#f9636b"/>
		</linearGradient>
		<linearGradient id="g8" x2="1" gradientUnits="userSpaceOnUse" gradientTransform="matrix(137.452,0,0,79.358,508.237,561.573)">
			<stop offset="0" stop-color="#01c8ef"/>
			<stop offset="1" stop-color="#172f78"/>
		</linearGradient>
		<radialGradient id="g9" cx="0" cy="0" r="1" gradientUnits="userSpaceOnUse" gradientTransform="matrix(306.754,0,0,306.754,483.869,524.214)">
			<stop offset="0" stop-color="#01c8ef"/>
			<stop offset="1" stop-color="#172f78"/>
		</radialGradient>
		<linearGradient id="g10" x2="1" gradientUnits="userSpaceOnUse" gradientTransform="matrix(137.452,0,0,79.358,212.056,391.737)">
			<stop offset="0" stop-color="#01c8ef"/>
			<stop offset="1" stop-color="#172f78"/>
		</linearGradient>
		<radialGradient id="g11" cx="0" cy="0" r="1" gradientUnits="userSpaceOnUse" gradientTransform="matrix(306.754,0,0,306.754,187.688,354.378)">
			<stop offset="0" stop-color="#01c8ef"/>
			<stop offset="1" stop-color="#172f78"/>
		</radialGradient>
	</defs>
	<style>
		.s0 { opacity: .8;fill: #172f78 } 
		.s1 { opacity: .4;fill: #172f78 } 
		.s2 { opacity: .6;fill: #172f78 } 
		.s3 { fill: #172f78 } 
		.s4 { fill: #03a7d3 } 
		.s5 { fill: url(#g1) } 
		.s6 { fill: url(#g2) } 
		.s7 { fill: #ffffff } 
		.s8 { fill: #11203c } 
		.s9 { fill: url(#g3) } 
		.s10 { fill: url(#g4) } 
		.s11 { fill: url(#g5) } 
		.s12 { fill: url(#g6) } 
		.s13 { fill: url(#g7) } 
		.s14 { fill: #380031 } 
		.s15 { opacity: .5;fill: #380031 } 
		.s16 { fill: url(#g8) } 
		.s17 { fill: url(#g9) } 
		.s18 { fill: url(#g10) } 
		.s19 { fill: url(#g11) } 
		.s20 { opacity: .4;fill: #03a7d3 } 
		.s21 { opacity: .8;fill: #03a7d3 } 
	</style>
	<g id="_Artboards_">
	</g>
	<g id="321353356351 1">
		<g id="&lt;Group&gt;" style="opacity: .3">
		</g>
		<g id="&lt;Clip Group&gt;">
			<g id="&lt;Group&gt;" style="opacity: .8">
			</g>
		</g>
		<path id="&lt;Path&gt;" class="s0" d="m648.2 640.9c0 3.3-2.6 6-5.9 6-3.3 0-6-2.7-6-6 0-3.3 2.7-6 6-6 3.3 0 5.9 2.7 5.9 6z"/>
		<path id="&lt;Path&gt;" class="s1" d="m461.3 699.6c0 2.4-1.9 4.3-4.3 4.3-2.4 0-4.3-1.9-4.3-4.3 0-2.3 1.9-4.3 4.3-4.3 2.4 0 4.3 2 4.3 4.3z"/>
		<path id="&lt;Path&gt;" class="s1" d="m465.3 699.6c0 4.6-3.7 8.3-8.3 8.3-4.6 0-8.3-3.7-8.3-8.3 0-4.5 3.7-8.2 8.3-8.2 4.6 0 8.3 3.7 8.3 8.2z"/>
		<path id="&lt;Path&gt;" class="s1" d="m564.2 398.8c0 1.8-1.4 3.3-3.3 3.3-1.8 0-3.3-1.5-3.3-3.3 0-1.8 1.5-3.3 3.3-3.3 1.9 0 3.3 1.5 3.3 3.3z"/>
		<path id="&lt;Path&gt;" class="s2" d="m194.4 321.2c0 1.8-1.5 3.3-3.4 3.3-1.8 0-3.3-1.5-3.3-3.3 0-1.9 1.5-3.4 3.3-3.4 1.9 0 3.4 1.5 3.4 3.4z"/>
		<path id="&lt;Path&gt;" class="s2" d="m365.6 273.6c0 2.7-2.2 4.9-4.9 4.9-2.8 0-5-2.2-5-4.9 0-2.8 2.2-5 5-5 2.7 0 4.9 2.2 4.9 5z"/>
		<path id="&lt;Path&gt;" class="s0" d="m362.7 273.6c0 1.1-0.9 2-2 2-1.2 0-2.1-0.9-2.1-2 0-1.2 0.9-2.1 2.1-2.1 1.1 0 2 0.9 2 2.1z"/>
		<path id="&lt;Path&gt;" class="s1" d="m612.9 349.6c0 7.3-5.9 13.2-13.2 13.2-7.3 0-13.2-5.9-13.2-13.2 0-7.3 5.9-13.2 13.2-13.2 7.3 0 13.2 5.9 13.2 13.2z"/>
		<path id="&lt;Path&gt;" class="s0" d="m605.2 349.6c0 3-2.5 5.5-5.5 5.5-3.1 0-5.5-2.5-5.5-5.5 0-3 2.4-5.5 5.5-5.5 3 0 5.5 2.5 5.5 5.5z"/>
		<path id="&lt;Path&gt;" class="s3" d="m628.8 445.3l-29.9-96.4 0.9 0.2 244.1 34.2-0.2 1-243.2-34 29.3 94.7z"/>
		<g id="&lt;Group&gt;">
		</g>
		<g id="&lt;Group&gt;">
			<g id="&lt;Group&gt;">
			</g>
			<g id="&lt;Group&gt;">
			</g>
			<g id="&lt;Group&gt;">
			</g>
			<g id="&lt;Group&gt;">
			</g>
		</g>
		<g id="&lt;Group&gt;">
			<path id="&lt;Path&gt;" class="s3" d="m493.1 520.1l-15.8-15.8 0.8-0.8 15.8 15.8z"/>
			<path id="&lt;Path&gt;" class="s4" d="m501.8 528.8l-5-5 0.8-0.8 5 5z"/>
		</g>
		<g id="&lt;Group&gt;">
			<path id="&lt;Path&gt;" class="s4" d="m651.1 516.6l-15.8-15.8 0.8-0.8 15.8 15.8z"/>
			<path id="&lt;Path&gt;" class="s3" d="m659.2 524.7l-4.5-4.5 0.8-0.8 4.5 4.5z"/>
			<path id="&lt;Path&gt;" class="s3" d="m667.5 532.9l-4.5-4.5 0.8-0.8 4.5 4.5z"/>
		</g>
		<g id="&lt;Group&gt;">
			<path id="&lt;Path&gt;" class="s3" d="m651.4 281.5l-15.7-15.7 0.8-0.8 15.7 15.7z"/>
			<path id="&lt;Path&gt;" class="s4" d="m659.5 289.7l-4.5-4.5 0.8-0.8 4.5 4.5z"/>
			<path id="&lt;Path&gt;" class="s4" d="m667.8 297.9l-4.5-4.5 0.8-0.8 4.5 4.5z"/>
			<path id="&lt;Path&gt;" class="s4" d="m684.3 314.5l-12.7-12.8 0.8-0.8 12.7 12.8z"/>
		</g>
		<g id="&lt;Group&gt;">
			<path id="&lt;Path&gt;" class="s3" d="m887.5 352.9l-5.1-5.1 0.8-0.8 5.1 5.1z"/>
		</g>
		<g id="&lt;Group&gt;">
			<path id="&lt;Path&gt;" class="s3" d="m449.7 300.2l-5-5 0.8-0.8 5 5z"/>
			<g id="&lt;Group&gt;">
				<path id="&lt;Path&gt;" class="s4" d="m441 291.5l-15.7-15.8 0.8-0.8 15.7 15.8z"/>
				<path id="&lt;Path&gt;" class="s3" d="m420.6 271.1l-16-16 0.8-0.8 16 15.9z"/>
			</g>
		</g>
		<g id="&lt;Group&gt;">
			<path id="&lt;Path&gt;" class="s4" d="m557.7 643.4l-0.4-0.2-230-132.8 0.8-1.3 229.6 132.5 265.1-153.8 0.7 1.3z"/>
			<path id="&lt;Path&gt;" class="s4" d="m303.8 496.8l-43.7-25.2 265.8-154.4 0.8 1.4-263.6 153 41.4 23.9z"/>
			<g id="&lt;Group&gt;">
				<path id="&lt;Compound Path&gt;" fill-rule="evenodd" class="s4" d="m889.7 524.6c-3.4 0-6.8-0.8-9.3-2.2l-62-35.8c-2.7-1.5-4.1-3.6-4.1-5.8 0-2.3 1.4-4.3 4.1-5.9l107.7-62.1c5.1-3 13.4-3 18.6 0l62 35.8c2.6 1.5 4.1 3.5 4.1 5.8 0 2.2-1.5 4.3-4.1 5.8l-107.7 62.2c-2.6 1.4-5.9 2.2-9.3 2.2zm45.7-112.5c-3.1 0-6.2 0.6-8.6 2l-107.7 62.2c-2.1 1.2-3.3 2.8-3.3 4.5 0 1.6 1.2 3.2 3.3 4.4l62 35.8c4.7 2.8 12.4 2.8 17.1 0l107.7-62.1c2.1-1.3 3.3-2.9 3.3-4.5 0-1.7-1.2-3.3-3.3-4.5l-62-35.8c-2.3-1.4-5.4-2-8.5-2z"/>
				<g id="&lt;Group&gt;">
					<path id="&lt;Path&gt;" class="s5" d="m1010.3 434.8v-29.7l-37.6 5-28.1-16.2c-4.9-2.9-12.9-2.9-17.9 0l-50.4 29.1-60.9 8.1v30.1q0 0 0 0v0.2c0.1 1.8 1.3 3.6 3.7 5l62 35.7c4.9 2.9 12.9 2.9 17.8 0l107.7-62.1c2.4-1.4 3.6-3.2 3.7-5z"/>
					<path id="&lt;Path&gt;" class="s6" d="m1006.6 399.7l-62-35.8c-4.9-2.8-12.9-2.8-17.9 0l-107.6 62.2c-5 2.8-5 7.5 0 10.3l62 35.8c4.9 2.8 12.9 2.8 17.8 0l107.7-62.2c4.9-2.8 4.9-7.4 0-10.3z"/>
					<path id="&lt;Path&gt;" class="s7" d="m1006.6 408.2l-107.7 62.2c-4.9 2.8-12.9 2.8-17.8 0l-62-35.8c-2.1-1.2-3.3-2.7-3.6-4.2-0.5 2.1 0.7 4.4 3.6 6l62 35.8c4.9 2.8 12.9 2.8 17.8 0l107.7-62.2c2.9-1.6 4-3.9 3.6-6-0.4 1.5-1.5 3-3.6 4.2z"/>
					<g id="&lt;Group&gt;">
						<path id="&lt;Path&gt;" class="s7" d="m935.2 463.5l-2.9 1.7v-3.4l2.9-1.7z"/>
						<path id="&lt;Path&gt;" class="s7" d="m941.4 460l-3 1.7v-3.4l3-1.7z"/>
						<path id="&lt;Path&gt;" class="s7" d="m947.5 456.4l-2.9 1.7v-3.4l2.9-1.7z"/>
						<path id="&lt;Path&gt;" class="s7" d="m942.5 466.2l-2.9 1.7v-3.4l2.9-1.7z"/>
						<path id="&lt;Path&gt;" class="s7" d="m947.9 463.1l-2.9 1.7v-3.4l2.9-1.7z"/>
						<path id="&lt;Path&gt;" class="s7" d="m967.2 445l-2.9 1.7v-3.3l2.9-1.7z"/>
						<path id="&lt;Path&gt;" class="s7" d="m984.1 435.3l-2.9 1.7v-3.4l2.9-1.7z"/>
						<path id="&lt;Path&gt;" class="s7" d="m953.7 452.9l-3 1.7v-3.4l3-1.7z"/>
					</g>
					<g id="&lt;Group&gt;">
						<g id="&lt;Group&gt;">
							<path id="&lt;Path&gt;" class="s8" d="m912 391.7l43.8 25.2-4 2.3-43.8-25.2z"/>
							<path id="&lt;Path&gt;" class="s7" d="m909.5 394.9l2.7-1.6 42.3 24.3 1.3-0.7-43.8-25.2-4 2.3z"/>
						</g>
						<g id="&lt;Group&gt;">
							<path id="&lt;Path&gt;" class="s8" d="m924.3 384.6l43.8 25.2-4.1 2.3-43.8-25.2z"/>
							<path id="&lt;Path&gt;" class="s7" d="m921.8 387.8l2.7-1.6 42.3 24.3 1.3-0.7-43.8-25.2-4.1 2.3z"/>
						</g>
						<g id="&lt;Group&gt;">
							<path id="&lt;Path&gt;" class="s8" d="m936.6 377.5l43.7 25.2-4 2.3-43.8-25.2z"/>
							<path id="&lt;Path&gt;" class="s7" d="m934 380.7l2.8-1.6 42.3 24.3 1.2-0.7-43.7-25.2-4.1 2.3z"/>
						</g>
					</g>
				</g>
				<path id="&lt;Compound Path&gt;" fill-rule="evenodd" class="s8" d="m889.2 458.3c-1.2 0-2.3-0.3-3.2-0.7l-41.7-24.1c-0.9-0.6-1.4-1.3-1.4-2.2 0-0.9 0.7-1.9 1.9-2.6l40.8-23.5c2.1-1.3 5.2-1.4 7.1-0.3l41.7 24.1c0.9 0.5 1.4 1.3 1.4 2.1 0 1-0.6 2-1.8 2.6l-40.8 23.6c-1.2 0.6-2.6 1-4 1zm-2.6-1.7c1.5 0.9 4.3 0.8 6.1-0.3l40.7-23.5c0.9-0.5 1.4-1.1 1.4-1.7 0-0.6-0.5-0.9-0.9-1.2l-41.7-24.1c-1.5-0.8-4.3-0.7-6.1 0.3l-40.7 23.6c-0.9 0.4-1.4 1.1-1.4 1.6 0 0.6 0.5 1 0.9 1.2z"/>
				<path id="&lt;Path&gt;" class="s8" d="m869.9 483.1l-34.4-19.8c-0.8-0.5-1.5-1.8-1.5-2.9v-2.5c0-1.1 0.7-1.6 1.5-1.2l34.4 19.9c0.8 0.5 1.5 1.8 1.5 2.9v2.5c0 1.1-0.7 1.6-1.5 1.1z"/>
			</g>
			<g id="&lt;Group&gt;">
				<path id="&lt;Compound Path&gt;" fill-rule="evenodd" class="s4" d="m594.1 354.8c-3.4 0-6.7-0.8-9.3-2.3l-62-35.7c-2.6-1.6-4.1-3.6-4.1-5.9 0-2.2 1.5-4.3 4.1-5.8l107.7-62.1c5.1-3 13.5-3 18.6 0l62 35.7c2.6 1.6 4.1 3.6 4.1 5.9 0 2.2-1.5 4.3-4.1 5.8l-107.7 62.1c-2.5 1.5-5.9 2.3-9.3 2.3zm45.7-112.6c-3.1 0-6.2 0.7-8.5 2.1l-107.7 62.1c-2.2 1.3-3.3 2.9-3.3 4.5 0 1.7 1.1 3.3 3.3 4.5l62 35.8c4.7 2.7 12.4 2.7 17.1 0l107.6-62.1c2.2-1.3 3.4-2.9 3.4-4.5 0-1.7-1.2-3.3-3.4-4.5l-61.9-35.8c-2.4-1.4-5.5-2.1-8.6-2.1z"/>
				<g id="&lt;Group&gt;">
					<path id="&lt;Path&gt;" class="s9" d="m714.7 265v-29.7l-37.5 5-28.2-16.2c-4.9-2.9-12.9-2.9-17.8 0l-50.4 29-61 8.2v30.1q0 0 0 0v0.1c0.1 1.9 1.3 3.7 3.7 5l62 35.8c4.9 2.9 12.9 2.9 17.9 0l107.6-62.1c2.4-1.4 3.6-3.2 3.7-5z"/>
					<path id="&lt;Path&gt;" class="s10" d="m711 229.9l-62-35.8c-4.9-2.8-12.9-2.8-17.8 0l-107.7 62.2c-4.9 2.8-4.9 7.4 0 10.3l62 35.8c4.9 2.8 12.9 2.8 17.9 0l107.6-62.2c5-2.8 5-7.5 0-10.3z"/>
					<path id="&lt;Path&gt;" class="s7" d="m711 238.4l-107.6 62.2c-5 2.8-13 2.8-17.9 0l-62-35.8c-2.1-1.2-3.3-2.7-3.6-4.3-0.4 2.2 0.7 4.4 3.6 6.1l62 35.8c4.9 2.8 12.9 2.8 17.9 0l107.6-62.2c2.9-1.6 4.1-3.9 3.6-6-0.3 1.5-1.5 3-3.6 4.2z"/>
					<g id="&lt;Group&gt;">
						<path id="&lt;Path&gt;" class="s7" d="m639.7 293.7l-3 1.7v-3.4l3-1.7z"/>
						<path id="&lt;Path&gt;" class="s7" d="m645.8 290.1l-2.9 1.7v-3.4l2.9-1.6z"/>
						<path id="&lt;Path&gt;" class="s7" d="m652 286.6l-3 1.7v-3.4l3-1.7z"/>
						<path id="&lt;Path&gt;" class="s7" d="m646.9 296.4l-2.9 1.7v-3.4l2.9-1.7z"/>
						<path id="&lt;Path&gt;" class="s7" d="m652.3 293.2l-2.9 1.7v-3.4l2.9-1.6z"/>
						<path id="&lt;Path&gt;" class="s7" d="m671.6 275.2l-2.9 1.7v-3.4l2.9-1.7z"/>
						<path id="&lt;Path&gt;" class="s7" d="m688.6 265.5l-3 1.7v-3.4l3-1.7z"/>
						<path id="&lt;Path&gt;" class="s7" d="m658.1 283.1l-2.9 1.6v-3.3l2.9-1.7z"/>
					</g>
					<g id="&lt;Group&gt;">
						<g id="&lt;Group&gt;">
							<path id="&lt;Path&gt;" class="s8" d="m616.5 221.8l43.7 25.3-4 2.3-43.8-25.2z"/>
							<path id="&lt;Path&gt;" class="s7" d="m613.9 225.1l2.8-1.6 42.3 24.3 1.2-0.7-43.7-25.3-4.1 2.4z"/>
						</g>
						<g id="&lt;Group&gt;">
							<path id="&lt;Path&gt;" class="s8" d="m628.7 214.7l43.8 25.3-4 2.3-43.8-25.2z"/>
							<path id="&lt;Path&gt;" class="s7" d="m626.2 218l2.8-1.6 42.2 24.3 1.3-0.7-43.8-25.3-4 2.4z"/>
						</g>
						<g id="&lt;Group&gt;">
							<path id="&lt;Path&gt;" class="s8" d="m641 207.6l43.8 25.3-4.1 2.3-43.7-25.2z"/>
							<path id="&lt;Path&gt;" class="s7" d="m638.5 210.9l2.7-1.6 42.3 24.3 1.3-0.7-43.8-25.3-4 2.4z"/>
						</g>
					</g>
				</g>
				<path id="&lt;Compound Path&gt;" fill-rule="evenodd" class="s8" d="m593.6 288.5c-1.1 0-2.3-0.3-3.1-0.8l-41.7-24c-0.9-0.6-1.4-1.3-1.4-2.2 0-1 0.6-1.9 1.8-2.6l40.8-23.5c2.1-1.3 5.3-1.4 7.2-0.3l41.7 24.1c0.9 0.5 1.4 1.3 1.4 2.1 0 1-0.7 1.9-1.9 2.6l-40.8 23.6c-1.1 0.6-2.6 1-4 1zm0.4-53c-1.2 0-2.5 0.2-3.5 0.8l-40.7 23.5c-0.8 0.5-1.4 1.2-1.4 1.7 0 0.6 0.5 1 0.9 1.2l41.7 24.1c1.5 0.9 4.3 0.7 6.1-0.3l40.7-23.5c0.9-0.5 1.4-1.1 1.4-1.7 0-0.6-0.5-1-0.9-1.2l-41.7-24.1c-0.7-0.4-1.6-0.5-2.6-0.5z"/>
				<path id="&lt;Path&gt;" class="s8" d="m574.3 313.3l-34.4-19.8c-0.8-0.5-1.5-1.8-1.5-2.9v-2.5c0-1.1 0.7-1.6 1.5-1.2l34.4 19.9c0.9 0.5 1.5 1.7 1.5 2.8v2.6c0 1.1-0.6 1.6-1.5 1.1z"/>
			</g>
			<g id="&lt;Group&gt;">
				<g id="&lt;Group&gt;">
					<g id="&lt;Group&gt;">
						<path id="&lt;Compound Path&gt;" fill-rule="evenodd" class="s1" d="m630 558.7c-1.6 0-3.3-0.3-4.5-1.1l-170.6-98.4c-1.2-0.8-1.9-1.8-1.9-3 0-1.3 0.9-2.7 2.6-3.6l109.5-63.3c3.1-1.7 7.6-1.9 10.3-0.4l170.6 98.5c1.3 0.8 1.9 1.8 1.9 3 0.1 1.3-0.9 2.7-2.6 3.6l-109.5 63.2c-1.7 1-3.8 1.5-5.8 1.5zm-3.9-2.1c2.3 1.4 6.4 1.2 9.1-0.4l109.5-63.2c1.3-0.7 2.1-1.7 2.1-2.6 0-0.8-0.5-1.4-1.4-2l-170.6-98.5c-2.3-1.3-6.4-1.1-9.1 0.4l-109.5 63.3c-1.3 0.7-2.1 1.7-2.1 2.6 0 0.8 0.5 1.4 1.4 2z"/>
						<path id="&lt;Compound Path&gt;" fill-rule="evenodd" class="s4" d="m630 531.8c-1.6 0-3.3-0.3-4.5-1l-170.6-98.5c-1.2-0.8-1.9-1.8-1.9-3 0-1.3 0.9-2.7 2.6-3.6l109.5-63.2c3.1-1.8 7.6-2 10.3-0.4l170.6 98.4c1.3 0.8 1.9 1.8 1.9 3 0.1 1.3-0.9 2.7-2.6 3.6l-109.5 63.3c-1.7 0.9-3.8 1.4-5.8 1.4zm-3.9-2c2.3 1.3 6.4 1.1 9.1-0.4l109.5-63.3c1.3-0.7 2.1-1.7 2.1-2.6 0-0.8-0.5-1.4-1.4-2l-170.6-98.4c-2.3-1.4-6.4-1.2-9.1 0.4l-109.5 63.2c-1.3 0.7-2.1 1.7-2.1 2.6 0 0.8 0.5 1.4 1.4 2z"/>
						<path id="&lt;Path&gt;" class="s11" d="m791 304.7l-169.9-98.2c-1.2-0.6-2.4-0.8-3.5-0.4q0 0 0 0l-3.1 1.1 1.1 0.2q-0.7 0.8-1.1 2l-38.4 124.7c-0.9 3.1 0.4 6.9 3.1 8.4l169.9 98.1q0.7 0.4 1.3 0.5l-0.4 0.9 3-1c1.2-0.5 2.2-1.6 2.7-3.2l38.4-124.8c1-3-0.4-6.8-3.1-8.3z"/>
						<path id="&lt;Path&gt;" class="s12" d="m743.1 445.3v0.1l-167.8-96.9c-2.5-1.5-6.8-1.3-9.7 0.4l-108.4 62.6-3.6-1.4 1 5c0.1 0.8 0.7 1.5 1.6 2.1l169.4 97.8c2.5 1.4 6.8 1.2 9.7-0.4l108.7-62.8c1.3-0.8 2.1-1.7 2.3-2.7l1-4.9z"/>
						<path id="&lt;Path&gt;" class="s13" d="m625.8 510.5l-170.6-98.5c-2.5-1.4-2.2-3.9 0.7-5.6l109.5-63.2c2.9-1.7 7.2-1.8 9.7-0.4l170.6 98.5c2.5 1.4 2.2 3.9-0.7 5.6l-109.5 63.2c-2.9 1.7-7.2 1.8-9.7 0.4z"/>
						<path id="&lt;Path&gt;" class="s7" d="m455.2 409.2l170.6 98.4c2.5 1.5 6.8 1.3 9.7-0.4l109.5-63.2c0.9-0.5 1.5-1.1 1.9-1.7 1 1.5 0.4 3.3-1.9 4.6l-109.5 63.2c-2.9 1.7-7.2 1.8-9.7 0.4l-170.6-98.5c-1.7-1-2.1-2.5-1.2-3.9 0.3 0.4 0.7 0.8 1.2 1.1z"/>
						<path id="&lt;Path&gt;" class="s4" d="m746.2 441.6l-169.9-98.1c-2.6-1.5-4-5.3-3.1-8.4l38.4-124.7c1-3.1 3.9-4.4 6.6-2.8l169.9 98.1c2.7 1.5 4.1 5.3 3.1 8.4l-38.4 124.7c-0.9 3.1-3.9 4.4-6.6 2.8z"/>
						<path id="&lt;Compound Path&gt;" fill-rule="evenodd" class="s4" d="m748.6 442.7q-1.3 0-2.5-0.8l-170-98.1c-2.8-1.6-4.2-5.5-3.2-8.8l38.4-124.7c0.5-1.7 1.5-2.9 2.9-3.5 1.4-0.5 2.8-0.3 4.2 0.4l169.9 98.2c2.8 1.6 4.3 5.5 3.3 8.8l-38.5 124.7c-0.5 1.7-1.5 2.9-2.9 3.5q-0.8 0.3-1.6 0.3zm-132.7-235.4q-0.7 0-1.4 0.2c-1.2 0.5-2.1 1.5-2.5 3l-38.4 124.7c-0.9 3 0.4 6.6 2.9 8l169.9 98.1c1.2 0.7 2.4 0.8 3.5 0.4 1.2-0.5 2.1-1.5 2.6-3l38.4-124.7c0.9-3-0.4-6.6-3-8l-169.9-98.1q-1.1-0.6-2.1-0.6z"/>
					</g>
					<g id="&lt;Group&gt;" style="opacity: .5">
						<path id="&lt;Path&gt;" class="s14" d="m540.3 394l-5.6-3.3c-0.5-0.3-0.4-0.7 0.1-1l6.6-3.9c0.6-0.3 1.4-0.3 1.8 0l5.7 3.2c0.4 0.3 0.4 0.7-0.2 1l-6.6 3.9c-0.6 0.3-1.3 0.3-1.8 0.1z"/>
						<path id="&lt;Path&gt;" class="s14" d="m549 399l-5.6-3.3c-0.5-0.2-0.4-0.7 0.1-1l6.7-3.8c0.5-0.3 1.3-0.4 1.7-0.1l5.7 3.3c0.4 0.2 0.4 0.7-0.2 1l-6.6 3.8c-0.5 0.3-1.3 0.4-1.8 0.1z"/>
						<path id="&lt;Path&gt;" class="s14" d="m557.7 404l-5.6-3.2c-0.5-0.3-0.4-0.8 0.1-1.1l6.7-3.8c0.5-0.3 1.3-0.3 1.7-0.1l5.7 3.3c0.4 0.2 0.4 0.7-0.1 1l-6.7 3.8c-0.5 0.4-1.3 0.4-1.8 0.1z"/>
						<path id="&lt;Path&gt;" class="s14" d="m569.8 399.9l-5.7-3.3c-0.4-0.3-0.4-0.7 0.2-1l5.6-3.2c0.5-0.3 1.3-0.4 1.7-0.1l5.7 3.2c0.4 0.3 0.4 0.8-0.2 1.1l-5.6 3.2c-0.5 0.3-1.3 0.3-1.7 0.1z"/>
						<path id="&lt;Path&gt;" class="s14" d="m578.5 404.9l-5.7-3.3c-0.4-0.2-0.3-0.7 0.2-1l5.6-3.2c0.5-0.3 1.3-0.3 1.7-0.1l5.7 3.3c0.4 0.2 0.4 0.7-0.2 1l-5.5 3.2c-0.6 0.3-1.4 0.4-1.8 0.1z"/>
						<path id="&lt;Path&gt;" class="s14" d="m587.2 409.9l-5.6-3.2c-0.5-0.3-0.4-0.7 0.1-1.1l5.6-3.2c0.5-0.3 1.3-0.3 1.7-0.1l5.7 3.3c0.4 0.3 0.4 0.7-0.1 1l-5.6 3.3c-0.6 0.3-1.3 0.3-1.8 0z"/>
						<path id="&lt;Path&gt;" class="s14" d="m595.9 415l-5.6-3.3c-0.5-0.3-0.4-0.7 0.1-1l5.6-3.2c0.5-0.3 1.3-0.4 1.8-0.1l5.6 3.2c0.5 0.3 0.4 0.8-0.1 1.1l-5.6 3.2c-0.5 0.3-1.3 0.3-1.8 0.1z"/>
						<path id="&lt;Path&gt;" class="s14" d="m604.6 420l-5.6-3.3c-0.5-0.2-0.4-0.7 0.1-1l5.6-3.2c0.5-0.3 1.3-0.4 1.8-0.1l5.6 3.3c0.5 0.2 0.4 0.7-0.1 1l-5.6 3.2c-0.5 0.3-1.3 0.3-1.8 0.1z"/>
						<path id="&lt;Path&gt;" class="s14" d="m613.3 425l-5.6-3.2c-0.5-0.3-0.4-0.8 0.1-1.1l5.6-3.2c0.5-0.3 1.3-0.3 1.8-0.1l5.6 3.3c0.5 0.3 0.4 0.7-0.1 1l-5.6 3.2c-0.5 0.3-1.3 0.4-1.8 0.1z"/>
						<path id="&lt;Path&gt;" class="s14" d="m622.1 430l-5.7-3.2c-0.4-0.3-0.4-0.7 0.1-1l5.6-3.3c0.6-0.3 1.3-0.3 1.8 0l5.6 3.2c0.5 0.3 0.4 0.7-0.1 1l-5.6 3.3c-0.5 0.3-1.3 0.3-1.7 0z"/>
						<path id="&lt;Path&gt;" class="s14" d="m630.8 435.1l-5.7-3.3c-0.4-0.2-0.4-0.7 0.2-1l5.5-3.2c0.6-0.3 1.4-0.4 1.8-0.1l5.7 3.3c0.4 0.2 0.3 0.7-0.2 1l-5.6 3.2c-0.5 0.3-1.3 0.3-1.7 0.1z"/>
						<path id="&lt;Path&gt;" class="s14" d="m639.5 440.1l-5.7-3.2c-0.4-0.3-0.4-0.8 0.2-1.1l5.6-3.2c0.5-0.3 1.3-0.3 1.7-0.1l5.7 3.3c0.4 0.2 0.4 0.7-0.2 1l-5.6 3.2c-0.5 0.3-1.3 0.4-1.7 0.1z"/>
						<path id="&lt;Path&gt;" class="s14" d="m648.2 445.1l-5.7-3.2c-0.4-0.3-0.3-0.7 0.2-1l5.6-3.3c0.5-0.3 1.3-0.3 1.7 0l5.7 3.2c0.4 0.3 0.4 0.7-0.2 1l-5.5 3.3c-0.6 0.3-1.4 0.3-1.8 0z"/>
						<path id="&lt;Path&gt;" class="s14" d="m582.6 397.5l-5.6-3.3c-0.5-0.2-0.4-0.7 0.1-1l5.6-3.2c0.5-0.3 1.3-0.4 1.8-0.1l5.6 3.3c0.5 0.2 0.4 0.7-0.1 1l-5.6 3.2c-0.5 0.3-1.3 0.3-1.8 0.1z"/>
						<path id="&lt;Path&gt;" class="s14" d="m573.8 392.4l-5.7-3.3c-0.4-0.2-0.4-0.7 0.2-1l5.5-3.2c0.6-0.3 1.4-0.4 1.8-0.1l5.7 3.3c0.4 0.2 0.4 0.7-0.2 1l-5.6 3.2c-0.5 0.3-1.3 0.3-1.7 0.1z"/>
						<path id="&lt;Path&gt;" class="s14" d="m564.9 387.3l-12.1-7c-0.5-0.3-0.4-0.8 0.1-1.1l5.6-3.2c0.5-0.3 1.3-0.3 1.8-0.1l12.1 7c0.5 0.3 0.4 0.8-0.1 1.1l-5.6 3.2c-0.5 0.3-1.3 0.3-1.8 0.1z"/>
						<path id="&lt;Path&gt;" class="s14" d="m571.1 381l-9.9-5.6c-0.4-0.3-0.3-0.8 0.2-1.1l5.6-3.2c0.5-0.3 1.3-0.3 1.7-0.1l9.9 5.7c0.4 0.3 0.4 0.7-0.1 1l-5.6 3.3c-0.5 0.3-1.3 0.3-1.8 0z"/>
						<path id="&lt;Path&gt;" class="s14" d="m591.3 402.5l-5.6-3.2c-0.5-0.3-0.4-0.8 0.1-1.1l5.6-3.2c0.5-0.3 1.3-0.3 1.8-0.1l5.6 3.3c0.5 0.3 0.4 0.7-0.1 1l-5.6 3.2c-0.5 0.3-1.3 0.4-1.8 0.1z"/>
						<path id="&lt;Path&gt;" class="s14" d="m600 407.5l-5.6-3.2c-0.5-0.3-0.4-0.7 0.1-1l5.6-3.3c0.5-0.3 1.3-0.3 1.8 0l5.6 3.2c0.5 0.3 0.4 0.7-0.1 1l-5.6 3.3c-0.5 0.3-1.3 0.3-1.8 0z"/>
						<path id="&lt;Path&gt;" class="s14" d="m608.8 412.6l-5.7-3.3c-0.4-0.2-0.4-0.7 0.1-1l5.6-3.2c0.6-0.3 1.3-0.4 1.8-0.1l5.6 3.3c0.5 0.2 0.4 0.7-0.1 1l-5.6 3.2c-0.5 0.3-1.3 0.3-1.7 0.1z"/>
						<path id="&lt;Path&gt;" class="s14" d="m617.5 417.6l-5.7-3.3c-0.4-0.2-0.4-0.7 0.2-1l5.5-3.2c0.6-0.3 1.4-0.3 1.8-0.1l5.7 3.3c0.4 0.2 0.3 0.7-0.2 1l-5.6 3.2c-0.5 0.3-1.3 0.4-1.7 0.1z"/>
						<path id="&lt;Path&gt;" class="s14" d="m626.2 422.6l-5.7-3.2c-0.4-0.3-0.4-0.7 0.2-1l5.6-3.3c0.5-0.3 1.3-0.3 1.7 0l5.7 3.2c0.4 0.3 0.4 0.7-0.2 1l-5.6 3.3c-0.5 0.3-1.3 0.3-1.7 0z"/>
						<path id="&lt;Path&gt;" class="s14" d="m634.9 427.7l-5.7-3.3c-0.4-0.3-0.3-0.7 0.2-1l5.6-3.2c0.5-0.3 1.3-0.4 1.7-0.1l5.7 3.2c0.4 0.3 0.4 0.8-0.2 1.1l-5.5 3.2c-0.6 0.3-1.4 0.3-1.8 0.1z"/>
						<path id="&lt;Path&gt;" class="s14" d="m643.6 432.7l-5.6-3.3c-0.5-0.2-0.4-0.7 0.1-1l5.6-3.2c0.5-0.3 1.3-0.3 1.7-0.1l5.7 3.3c0.4 0.2 0.4 0.7-0.1 1l-5.6 3.2c-0.6 0.3-1.3 0.4-1.8 0.1z"/>
						<path id="&lt;Path&gt;" class="s14" d="m652.3 437.7l-5.6-3.2c-0.5-0.3-0.4-0.7 0.1-1.1l5.6-3.2c0.5-0.3 1.3-0.3 1.8-0.1l5.6 3.3c0.5 0.3 0.4 0.7-0.1 1l-5.6 3.3c-0.5 0.3-1.3 0.3-1.8 0z"/>
						<path id="&lt;Path&gt;" class="s14" d="m661 442.8l-5.6-3.3c-0.5-0.3-0.4-0.7 0.1-1l5.6-3.2c0.5-0.3 1.3-0.4 1.8-0.1l5.6 3.2c0.5 0.3 0.4 0.8-0.1 1.1l-5.6 3.2c-0.5 0.3-1.3 0.3-1.8 0.1z"/>
						<path id="&lt;Path&gt;" class="s14" d="m676.5 451.7l-12.3-7.1c-0.4-0.3-0.4-0.7 0.1-1l5.6-3.3c0.5-0.3 1.3-0.3 1.8 0l12.3 7.1c0.5 0.2 0.4 0.7-0.1 1l-5.6 3.2c-0.5 0.3-1.3 0.4-1.8 0.1z"/>
						<path id="&lt;Path&gt;" class="s14" d="m693.5 441.9l-10.4-6c-0.5-0.3-0.4-0.7 0.1-1l5.6-3.2c0.5-0.3 1.3-0.4 1.8-0.1l10.4 6c0.4 0.2 0.4 0.7-0.2 1l-5.6 3.2c-0.5 0.3-1.3 0.4-1.7 0.1z"/>
						<path id="&lt;Path&gt;" class="s14" d="m606.6 401.5l-5.7-3.2c-0.4-0.3-0.4-0.7 0.2-1l5.6-3.3c0.5-0.3 1.3-0.3 1.7 0l5.7 3.2c0.4 0.3 0.4 0.7-0.2 1l-5.5 3.3c-0.6 0.3-1.4 0.3-1.8 0z"/>
						<path id="&lt;Path&gt;" class="s14" d="m597.7 396.4l-5.7-3.3c-0.4-0.2-0.4-0.7 0.1-1l5.6-3.2c0.6-0.3 1.3-0.4 1.8-0.1l5.6 3.3c0.5 0.2 0.4 0.7-0.1 1l-5.6 3.2c-0.5 0.3-1.3 0.3-1.7 0.1z"/>
						<path id="&lt;Path&gt;" class="s14" d="m588.7 391.2l-5.6-3.2c-0.5-0.3-0.4-0.8 0.1-1.1l5.6-3.2c0.5-0.3 1.3-0.3 1.8-0.1l5.6 3.3c0.5 0.3 0.4 0.7-0.1 1l-5.6 3.2c-0.5 0.3-1.3 0.4-1.8 0.1z"/>
						<path id="&lt;Path&gt;" class="s14" d="m579.8 386.1l-5.6-3.3c-0.5-0.3-0.4-0.7 0.1-1l5.6-3.2c0.5-0.3 1.3-0.4 1.7-0.1l5.7 3.2c0.4 0.3 0.4 0.8-0.1 1.1l-5.6 3.2c-0.6 0.3-1.3 0.3-1.8 0.1z"/>
						<path id="&lt;Path&gt;" class="s14" d="m615.3 406.6l-5.6-3.3c-0.5-0.3-0.4-0.7 0.1-1l5.6-3.2c0.5-0.3 1.3-0.4 1.7-0.1l5.7 3.2c0.4 0.3 0.4 0.8-0.1 1.1l-5.6 3.2c-0.6 0.3-1.3 0.3-1.8 0.1z"/>
						<path id="&lt;Path&gt;" class="s14" d="m624 411.6l-5.6-3.3c-0.5-0.2-0.4-0.7 0.1-1l5.6-3.2c0.5-0.3 1.3-0.3 1.8-0.1l5.6 3.3c0.4 0.2 0.4 0.7-0.1 1l-5.6 3.2c-0.5 0.3-1.3 0.4-1.8 0.1z"/>
						<path id="&lt;Path&gt;" class="s14" d="m632.7 416.6l-5.6-3.2c-0.5-0.3-0.4-0.8 0.1-1.1l5.6-3.2c0.5-0.3 1.3-0.3 1.8-0.1l5.6 3.3c0.5 0.3 0.4 0.7-0.1 1l-5.6 3.2c-0.5 0.4-1.3 0.4-1.8 0.1z"/>
						<path id="&lt;Path&gt;" class="s14" d="m641.4 421.7l-5.6-3.3c-0.5-0.3-0.4-0.7 0.1-1l5.6-3.3c0.5-0.3 1.3-0.3 1.8 0l5.6 3.2c0.5 0.3 0.4 0.7-0.1 1.1l-5.6 3.2c-0.5 0.3-1.3 0.3-1.8 0.1z"/>
						<path id="&lt;Path&gt;" class="s14" d="m650.1 426.7l-5.6-3.3c-0.4-0.2-0.4-0.7 0.1-1l5.6-3.2c0.5-0.3 1.3-0.4 1.8-0.1l5.6 3.3c0.5 0.2 0.4 0.7-0.1 1l-5.6 3.2c-0.5 0.3-1.3 0.3-1.8 0.1z"/>
						<path id="&lt;Path&gt;" class="s14" d="m658.9 431.7l-5.7-3.2c-0.4-0.3-0.4-0.8 0.1-1.1l5.6-3.2c0.6-0.3 1.4-0.3 1.8-0.1l5.6 3.3c0.5 0.3 0.4 0.7-0.1 1l-5.6 3.2c-0.5 0.3-1.3 0.4-1.7 0.1z"/>
						<path id="&lt;Path&gt;" class="s14" d="m667.6 436.7l-5.7-3.2c-0.4-0.3-0.4-0.7 0.2-1l5.5-3.3c0.6-0.3 1.4-0.3 1.8 0l5.7 3.2c0.4 0.3 0.4 0.7-0.2 1l-5.6 3.3c-0.5 0.3-1.3 0.3-1.7 0z"/>
						<path id="&lt;Path&gt;" class="s14" d="m676.3 441.8l-5.7-3.3c-0.4-0.2-0.4-0.7 0.2-1l5.6-3.2c0.5-0.3 1.3-0.4 1.7-0.1l5.7 3.3c0.4 0.2 0.4 0.7-0.2 1l-5.5 3.2c-0.6 0.3-1.4 0.3-1.8 0.1z"/>
						<path id="&lt;Path&gt;" class="s14" d="m685 446.8l-5.6-3.3c-0.5-0.2-0.4-0.7 0.1-1l5.6-3.2c0.5-0.3 1.3-0.3 1.7-0.1l5.7 3.3c0.4 0.2 0.4 0.7-0.1 1l-5.6 3.2c-0.6 0.3-1.3 0.4-1.8 0.1z"/>
						<path id="&lt;Path&gt;" class="s14" d="m602 389.1l-5.6-3.3c-0.5-0.2-0.4-0.7 0.1-1l5.6-3.2c0.5-0.3 1.3-0.3 1.7-0.1l5.7 3.3c0.4 0.2 0.4 0.7-0.1 1l-5.6 3.2c-0.6 0.3-1.3 0.4-1.8 0.1z"/>
						<path id="&lt;Path&gt;" class="s14" d="m593.3 384.1l-5.6-3.3c-0.5-0.2-0.4-0.7 0.1-1l5.6-3.2c0.5-0.3 1.3-0.4 1.8-0.1l5.6 3.3c0.5 0.2 0.4 0.7-0.1 1l-5.6 3.2c-0.5 0.3-1.3 0.3-1.8 0.1z"/>
						<path id="&lt;Path&gt;" class="s14" d="m584.7 379.1l-5.7-3.3c-0.4-0.2-0.4-0.7 0.1-1l5.6-3.2c0.6-0.3 1.3-0.4 1.8-0.1l5.6 3.3c0.5 0.2 0.4 0.7-0.1 1l-5.6 3.2c-0.5 0.3-1.3 0.3-1.7 0.1z"/>
						<path id="&lt;Path&gt;" class="s14" d="m576 374.1l-5.7-3.3c-0.4-0.2-0.3-0.7 0.2-1l5.6-3.2c0.5-0.3 1.3-0.4 1.7-0.1l5.7 3.3c0.4 0.2 0.4 0.7-0.2 1l-5.5 3.2c-0.6 0.3-1.4 0.3-1.8 0.1z"/>
						<path id="&lt;Path&gt;" class="s14" d="m584.9 368.9l-5.6-3.2c-0.5-0.3-0.4-0.7 0.1-1l1.8-1.1c0.6-0.3 1.4-0.4 1.8-0.1l5.6 3.3c0.5 0.2 0.4 0.7-0.1 1l-1.8 1.1c-0.6 0.3-1.3 0.3-1.8 0z"/>
						<path id="&lt;Path&gt;" class="s14" d="m596.2 375.5l-5.6-3.3c-0.5-0.3-0.4-0.7 0.1-1l1.9-1.1c0.5-0.3 1.3-0.3 1.7-0.1l5.7 3.3c0.4 0.3 0.4 0.7-0.2 1l-1.8 1.1c-0.5 0.3-1.3 0.3-1.8 0.1z"/>
						<path id="&lt;Path&gt;" class="s14" d="m604.9 380.4l-5.7-3.2c-0.4-0.3-0.4-0.7 0.1-1l1.9-1.1c0.5-0.3 1.3-0.3 1.8-0.1l5.6 3.3c0.4 0.2 0.4 0.7-0.1 1l-1.9 1.1c-0.5 0.3-1.3 0.3-1.7 0z"/>
						<path id="&lt;Path&gt;" class="s14" d="m613.5 385.4l-5.7-3.2c-0.4-0.3-0.4-0.7 0.2-1l1.8-1.1c0.5-0.3 1.3-0.4 1.8-0.1l5.6 3.3c0.5 0.2 0.4 0.7-0.1 1l-1.8 1.1c-0.6 0.3-1.4 0.3-1.8 0z"/>
						<path id="&lt;Path&gt;" class="s14" d="m622.1 390.4l-5.6-3.2c-0.5-0.3-0.4-0.8 0.1-1.1l1.9-1c0.5-0.3 1.3-0.4 1.7-0.1l5.7 3.3c0.4 0.2 0.4 0.7-0.2 1l-1.8 1c-0.5 0.3-1.3 0.4-1.8 0.1z"/>
						<path id="&lt;Path&gt;" class="s14" d="m670.3 418.2l-5.6-3.2c-0.5-0.3-0.4-0.7 0.1-1l1.8-1.1c0.6-0.3 1.4-0.3 1.8-0.1l5.7 3.3c0.4 0.2 0.4 0.7-0.2 1l-1.8 1.1c-0.5 0.3-1.3 0.3-1.8 0z"/>
						<path id="&lt;Path&gt;" class="s14" d="m678.9 423.2l-5.6-3.2c-0.4-0.3-0.4-0.8 0.1-1.1l1.9-1c0.5-0.3 1.3-0.4 1.7-0.1l5.7 3.3c0.4 0.2 0.4 0.7-0.1 1l-1.9 1c-0.5 0.4-1.3 0.4-1.8 0.1z"/>
						<path id="&lt;Path&gt;" class="s14" d="m687.6 428.2l-5.7-3.3c-0.4-0.2-0.4-0.7 0.2-1l1.8-1c0.5-0.3 1.3-0.4 1.8-0.1l5.6 3.2c0.5 0.3 0.4 0.8-0.1 1.1l-1.9 1c-0.5 0.3-1.3 0.4-1.7 0.1z"/>
						<path id="&lt;Path&gt;" class="s14" d="m696.2 433.2l-5.6-3.3c-0.5-0.2-0.4-0.7 0.1-1l1.8-1.1c0.6-0.3 1.4-0.3 1.8 0l5.7 3.2c0.4 0.3 0.4 0.7-0.2 1.1l-1.8 1c-0.5 0.3-1.3 0.4-1.8 0.1z"/>
						<path id="&lt;Path&gt;" class="s14" d="m610.7 394.1l-5.6-3.2c-0.5-0.3-0.4-0.8 0.1-1.1l5.6-3.2c0.5-0.3 1.3-0.3 1.8-0.1l5.6 3.3c0.4 0.3 0.4 0.7-0.1 1l-5.6 3.2c-0.5 0.3-1.3 0.4-1.8 0.1z"/>
						<path id="&lt;Path&gt;" class="s14" d="m619.4 399.2l-5.6-3.3c-0.5-0.3-0.4-0.7 0.1-1l5.6-3.3c0.5-0.3 1.3-0.3 1.8 0l5.6 3.2c0.5 0.3 0.4 0.7-0.1 1l-5.6 3.3c-0.5 0.3-1.3 0.3-1.8 0.1z"/>
						<path id="&lt;Path&gt;" class="s14" d="m628.1 404.2l-5.6-3.3c-0.5-0.2-0.4-0.7 0.1-1l5.6-3.2c0.5-0.3 1.3-0.4 1.8-0.1l5.6 3.3c0.5 0.2 0.4 0.7-0.1 1l-5.6 3.2c-0.5 0.3-1.3 0.3-1.8 0.1z"/>
						<path id="&lt;Path&gt;" class="s14" d="m636.8 409.2l-5.6-3.2c-0.4-0.3-0.4-0.8 0.1-1.1l5.6-3.2c0.5-0.3 1.3-0.3 1.8-0.1l5.6 3.3c0.5 0.3 0.4 0.7-0.1 1l-5.6 3.2c-0.5 0.3-1.3 0.4-1.8 0.1z"/>
						<path id="&lt;Path&gt;" class="s14" d="m645.6 414.2l-5.7-3.2c-0.4-0.3-0.4-0.7 0.1-1l5.6-3.3c0.6-0.3 1.4-0.3 1.8 0l5.6 3.2c0.5 0.3 0.4 0.7-0.1 1l-5.6 3.3c-0.5 0.3-1.3 0.3-1.7 0z"/>
						<path id="&lt;Path&gt;" class="s14" d="m654.3 419.3l-5.7-3.3c-0.4-0.2-0.4-0.7 0.2-1l5.5-3.2c0.6-0.3 1.4-0.4 1.8-0.1l5.7 3.2c0.4 0.3 0.4 0.8-0.2 1.1l-5.6 3.2c-0.5 0.3-1.3 0.3-1.7 0.1z"/>
						<path id="&lt;Path&gt;" class="s14" d="m663 424.3l-5.7-3.3c-0.4-0.2-0.4-0.7 0.2-1l5.6-3.2c0.5-0.3 1.3-0.3 1.7-0.1l5.7 3.3c0.4 0.2 0.4 0.7-0.2 1l-5.5 3.2c-0.6 0.3-1.4 0.4-1.8 0.1z"/>
						<path id="&lt;Path&gt;" class="s14" d="m671.7 429.3l-5.6-3.2c-0.5-0.3-0.4-0.7 0.1-1l5.6-3.3c0.5-0.3 1.3-0.3 1.7 0l5.7 3.2c0.4 0.3 0.4 0.7-0.1 1l-5.6 3.3c-0.6 0.3-1.3 0.3-1.8 0z"/>
						<path id="&lt;Path&gt;" class="s14" d="m680.4 434.4l-5.6-3.3c-0.5-0.3-0.4-0.7 0.1-1l5.6-3.2c0.5-0.3 1.3-0.4 1.8-0.1l5.6 3.2c0.4 0.3 0.4 0.8-0.1 1.1l-5.6 3.2c-0.5 0.3-1.3 0.3-1.8 0.1z"/>
						<path id="&lt;Path&gt;" class="s14" d="m560.9 394.7l-16.6-9.6c-0.5-0.2-0.4-0.7 0.1-1l5.6-3.2c0.5-0.3 1.3-0.3 1.8-0.1l16.6 9.6c0.4 0.3 0.4 0.7-0.1 1l-5.6 3.3c-0.6 0.3-1.3 0.3-1.8 0z"/>
						<path id="&lt;Path&gt;" class="s14" d="m667.9 456.5l-16.6-9.6c-0.4-0.2-0.4-0.7 0.1-1l5.6-3.2c0.6-0.3 1.4-0.3 1.8-0.1l16.6 9.6c0.5 0.3 0.4 0.7-0.1 1l-5.6 3.3c-0.5 0.3-1.3 0.3-1.8 0z"/>
						<path id="&lt;Path&gt;" class="s14" d="m633.1 447.5l-5.6-3.2c-0.5-0.3-0.4-0.7 0.1-1l6.6-3.9c0.6-0.3 1.4-0.3 1.8-0.1l5.6 3.3c0.5 0.3 0.4 0.7-0.1 1l-6.6 3.9c-0.6 0.3-1.4 0.3-1.8 0z"/>
						<path id="&lt;Path&gt;" class="s14" d="m569.8 411l-9-5.2c-0.5-0.3-0.4-0.7 0.1-1l6.7-3.9c0.5-0.3 1.3-0.3 1.8 0l9 5.2c0.4 0.2 0.4 0.7-0.2 1l-6.6 3.8c-0.5 0.3-1.3 0.4-1.8 0.1z"/>
						<path id="&lt;Path&gt;" class="s14" d="m624.7 442.7l-9-5.2c-0.5-0.3-0.4-0.7 0.1-1l6.7-3.9c0.5-0.3 1.3-0.3 1.7-0.1l9.1 5.2c0.4 0.3 0.3 0.8-0.2 1.1l-6.6 3.8c-0.6 0.3-1.3 0.3-1.8 0.1z"/>
						<path id="&lt;Path&gt;" class="s14" d="m582.4 418.3l-9-5.2c-0.5-0.3-0.4-0.8 0.1-1.1l6.7-3.8c0.5-0.3 1.3-0.3 1.7-0.1l9 5.2c0.5 0.3 0.4 0.7-0.1 1l-6.6 3.9c-0.6 0.3-1.4 0.3-1.8 0.1z"/>
						<path id="&lt;Path&gt;" class="s14" d="m582 408.1l39.2 22.7c0.5 0.3 0.5 0.7 0 1l-6.8 3.9c-0.5 0.3-1.3 0.3-1.7 0l-39.3-22.6z"/>
						<path id="&lt;Path&gt;" class="s14" d="m657.4 456.7l6.3 3.6c0.4 0.2 0.4 0.6-0.1 0.8l-2.7 1.6c-0.4 0.2-1.1 0.3-1.4 0.1l-6.3-3.7c-0.4-0.2-0.4-0.6 0.1-0.8l2.7-1.6c0.4-0.2 1.1-0.3 1.4 0z"/>
						<path id="&lt;Path&gt;" class="s14" d="m648.7 451.6l6.2 3.6c0.4 0.2 0.4 0.6-0.1 0.8l-2.7 1.6c-0.4 0.3-1.1 0.3-1.4 0.1l-6.3-3.6c-0.4-0.3-0.3-0.6 0.1-0.9l2.7-1.6c0.4-0.2 1.1-0.2 1.5 0z"/>
						<path id="&lt;Path&gt;" class="s14" d="m639.9 446.6l6.3 3.6c0.4 0.2 0.4 0.6-0.1 0.8l-2.7 1.6c-0.4 0.2-1.1 0.3-1.4 0l-6.3-3.6c-0.4-0.2-0.4-0.6 0.1-0.8l2.7-1.6c0.4-0.2 1.1-0.3 1.4 0z"/>
						<path id="&lt;Path&gt;" class="s14" d="m653.5 448.8l6.3 3.6c0.3 0.2 0.3 0.6-0.2 0.9l-2.7 1.5c-0.4 0.3-1.1 0.3-1.4 0.1l-6.3-3.6c-0.4-0.2-0.3-0.6 0.1-0.9l2.7-1.5c0.4-0.3 1.1-0.3 1.5-0.1z"/>
					</g>
					<path id="&lt;Compound Path&gt;" fill-rule="evenodd" class="s15" d="m582.8 466c-1.5 0-2.9-0.3-4-0.9l-43.8-25.3c-1.1-0.7-1.7-1.6-1.7-2.6 0-1.2 0.9-2.4 2.4-3.3l22.5-13c2.7-1.6 6.7-1.7 9.1-0.3l43.8 25.2c1.1 0.7 1.7 1.6 1.7 2.6 0 1.2-0.8 2.4-2.3 3.3l-22.6 13c-1.4 0.9-3.3 1.3-5.1 1.3zm-3.4-1.8c2 1.1 5.6 1 8-0.4l22.5-13c1.2-0.7 1.9-1.5 1.9-2.4 0-0.8-0.7-1.3-1.2-1.6l-43.8-25.3c-2.1-1.2-5.7-1-8.1 0.3l-22.5 13c-1.2 0.7-1.8 1.6-1.8 2.4 0 0.8 0.6 1.4 1.2 1.7z"/>
				</g>
				<g id="&lt;Group&gt;">
					<g id="&lt;Group&gt;">
						<g id="&lt;Group&gt;">
							<path id="&lt;Path&gt;" class="s7" d="m635.8 255.2l-4.9-2.9c-0.5-0.3-0.7-0.9-0.6-1.4 0.2-0.5 0.7-0.8 1.1-0.5l5 2.9c0.5 0.2 0.7 0.9 0.6 1.4-0.2 0.5-0.7 0.7-1.2 0.5z"/>
							<path id="&lt;Path&gt;" class="s7" d="m647.7 262l-7.3-4.2c-0.5-0.3-0.7-0.9-0.6-1.5 0.2-0.5 0.7-0.7 1.1-0.4l7.4 4.2c0.4 0.3 0.7 0.9 0.5 1.4-0.1 0.6-0.6 0.8-1.1 0.5z"/>
							<path id="&lt;Path&gt;" class="s7" d="m625.8 277.3l-4.9-2.9c-0.5-0.2-0.8-0.9-0.6-1.4 0.2-0.5 0.7-0.7 1.1-0.5l5 2.9c0.5 0.3 0.7 0.9 0.5 1.4-0.1 0.6-0.6 0.8-1.1 0.5z"/>
							<path id="&lt;Path&gt;" class="s7" d="m636.4 283.4l-7.3-4.2c-0.5-0.3-0.8-0.9-0.6-1.5 0.2-0.5 0.7-0.7 1.1-0.4l7.3 4.2c0.5 0.3 0.8 0.9 0.6 1.4-0.2 0.6-0.7 0.8-1.1 0.5z"/>
							<path id="&lt;Path&gt;" class="s7" d="m621 251.2l-3.1-1.8c-0.5-0.2-0.8-0.9-0.6-1.4 0.2-0.5 0.7-0.7 1.1-0.5l3.1 1.8c0.5 0.3 0.7 0.9 0.6 1.5-0.2 0.5-0.7 0.7-1.1 0.4z"/>
							<path id="&lt;Path&gt;" class="s7" d="m630.3 261.3l-9.5-5.5c-0.4-0.3-0.7-0.9-0.5-1.4 0.1-0.6 0.6-0.8 1.1-0.5l9.5 5.5c0.4 0.3 0.7 0.9 0.5 1.4-0.1 0.5-0.6 0.7-1.1 0.5z"/>
							<path id="&lt;Path&gt;" class="s7" d="m621.6 265.5l-3.2-1.8c-0.4-0.2-0.7-0.9-0.5-1.4 0.2-0.5 0.7-0.7 1.1-0.5l3.1 1.8c0.5 0.3 0.7 0.9 0.6 1.5-0.2 0.5-0.7 0.7-1.1 0.4z"/>
							<path id="&lt;Path&gt;" class="s7" d="m637.5 293.4l-8.3-4.8c-0.4-0.3-0.7-0.9-0.5-1.5 0.1-0.5 0.6-0.7 1.1-0.4l8.3 4.8c0.5 0.2 0.7 0.9 0.5 1.4-0.1 0.5-0.6 0.7-1.1 0.5z"/>
							<path id="&lt;Path&gt;" class="s7" d="m618.1 272.8l-2-1.1c-0.5-0.3-0.7-0.9-0.6-1.5 0.2-0.5 0.7-0.7 1.1-0.4l2 1.1c0.5 0.3 0.7 0.9 0.6 1.5-0.2 0.5-0.7 0.7-1.1 0.4z"/>
							<path id="&lt;Path&gt;" class="s7" d="m616.2 281l-2.5-1.4c-0.5-0.2-0.7-0.9-0.5-1.4 0.1-0.5 0.6-0.7 1.1-0.5l2.5 1.5c0.4 0.2 0.7 0.9 0.5 1.4-0.2 0.5-0.7 0.7-1.1 0.4z"/>
							<path id="&lt;Path&gt;" class="s7" d="m625.8 286.6l-6.5-3.8c-0.5-0.2-0.7-0.9-0.6-1.4 0.2-0.5 0.7-0.7 1.2-0.5l6.5 3.8c0.4 0.3 0.7 0.9 0.5 1.4-0.1 0.6-0.6 0.8-1.1 0.5z"/>
							<path id="&lt;Path&gt;" class="s7" d="m617.2 286.3l-4.7-2.7c-0.4-0.3-0.7-0.9-0.5-1.4 0.1-0.6 0.6-0.8 1.1-0.5l4.7 2.7c0.4 0.3 0.7 0.9 0.5 1.4-0.1 0.6-0.6 0.8-1.1 0.5z"/>
							<path id="&lt;Path&gt;" class="s7" d="m644.6 297.5l-3-1.7c-0.4-0.3-0.7-1-0.5-1.5 0.1-0.5 0.6-0.7 1.1-0.4l3 1.7c0.5 0.3 0.7 0.9 0.6 1.4-0.2 0.6-0.7 0.8-1.2 0.5z"/>
							<path id="&lt;Path&gt;" class="s7" d="m633.1 272.2l-8.3-4.8c-0.5-0.3-0.7-0.9-0.5-1.4 0.1-0.5 0.6-0.7 1.1-0.5l8.3 4.8c0.4 0.3 0.7 0.9 0.5 1.4-0.1 0.6-0.6 0.8-1.1 0.5z"/>
						</g>
						<path id="&lt;Path&gt;" class="s7" d="m634.1 268.1l-14.5-8.3c-0.4-0.3-0.7-0.9-0.5-1.5 0.1-0.5 0.6-0.7 1.1-0.4l14.5 8.3c0.4 0.3 0.7 0.9 0.5 1.5-0.2 0.5-0.7 0.7-1.1 0.4z"/>
						<path id="&lt;Path&gt;" class="s7" d="m625.6 272.5l-8.3-4.8c-0.5-0.3-0.7-0.9-0.6-1.4 0.2-0.5 0.7-0.8 1.1-0.5l8.3 4.8c0.5 0.3 0.7 0.9 0.6 1.4-0.2 0.6-0.7 0.8-1.1 0.5z"/>
						<path id="&lt;Path&gt;" class="s7" d="m639.4 275.8l-3-1.7c-0.5-0.3-0.7-0.9-0.6-1.4 0.2-0.6 0.7-0.8 1.1-0.5l3.1 1.7c0.4 0.3 0.7 0.9 0.5 1.5-0.1 0.5-0.6 0.7-1.1 0.4z"/>
						<path id="&lt;Path&gt;" class="s7" d="m662.8 270.7l-10.6-6.1c-0.5-0.3-0.7-0.9-0.6-1.4 0.2-0.5 0.7-0.7 1.2-0.5l10.6 6.1c0.4 0.3 0.7 0.9 0.5 1.4-0.1 0.6-0.6 0.8-1.1 0.5z"/>
						<path id="&lt;Path&gt;" class="s7" d="m624.9 281.4l-10-5.8c-0.5-0.2-0.7-0.9-0.6-1.4 0.2-0.5 0.7-0.7 1.2-0.4l9.9 5.7c0.5 0.3 0.7 0.9 0.6 1.4-0.2 0.6-0.7 0.8-1.1 0.5z"/>
						<path id="&lt;Path&gt;" class="s7" d="m626.4 249.7l-7.4-4.2c-0.4-0.3-0.7-0.9-0.5-1.5 0.1-0.5 0.6-0.7 1.1-0.4l7.3 4.2c0.5 0.3 0.7 0.9 0.6 1.4-0.2 0.6-0.7 0.8-1.1 0.5z"/>
						<path id="&lt;Path&gt;" class="s7" d="m615.7 290.1l-8.5-4.9c-0.5-0.3-0.7-0.9-0.6-1.5 0.2-0.5 0.7-0.7 1.2-0.4l8.5 4.9c0.4 0.2 0.7 0.9 0.5 1.4-0.2 0.5-0.7 0.7-1.1 0.5z"/>
					</g>
					<g id="&lt;Group&gt;">
						<g id="&lt;Group&gt;">
							<path id="&lt;Path&gt;" class="s7" d="m622.9 299.2l-5-2.9c-0.5-0.3-0.7-0.9-0.6-1.4 0.2-0.6 0.7-0.8 1.1-0.5l5 2.9c0.5 0.2 0.7 0.9 0.6 1.4-0.2 0.5-0.7 0.7-1.1 0.5z"/>
							<path id="&lt;Path&gt;" class="s7" d="m634.7 306l-7.3-4.2c-0.5-0.3-0.7-1-0.6-1.5 0.2-0.5 0.7-0.7 1.1-0.4l7.4 4.2c0.4 0.3 0.7 0.9 0.5 1.4-0.1 0.5-0.6 0.8-1.1 0.5z"/>
							<path id="&lt;Path&gt;" class="s7" d="m612.8 321.3l-4.9-2.9c-0.5-0.3-0.8-0.9-0.6-1.4 0.2-0.5 0.7-0.7 1.1-0.5l5 2.9c0.5 0.3 0.7 0.9 0.5 1.4-0.1 0.5-0.6 0.7-1.1 0.5z"/>
							<path id="&lt;Path&gt;" class="s7" d="m623.4 327.4l-7.3-4.3c-0.5-0.2-0.8-0.9-0.6-1.4 0.2-0.5 0.7-0.7 1.1-0.5l7.3 4.3c0.5 0.2 0.8 0.9 0.6 1.4-0.2 0.5-0.7 0.7-1.1 0.5z"/>
							<path id="&lt;Path&gt;" class="s7" d="m608 295.2l-3.1-1.8c-0.5-0.3-0.8-0.9-0.6-1.4 0.2-0.5 0.7-0.7 1.1-0.5l3.1 1.8c0.5 0.3 0.7 0.9 0.6 1.4-0.2 0.6-0.7 0.8-1.1 0.5z"/>
							<path id="&lt;Path&gt;" class="s7" d="m617.3 305.3l-9.5-5.5c-0.4-0.3-0.7-0.9-0.5-1.5 0.1-0.5 0.6-0.7 1.1-0.4l9.5 5.5c0.4 0.2 0.7 0.9 0.5 1.4-0.1 0.5-0.6 0.7-1.1 0.5z"/>
							<path id="&lt;Path&gt;" class="s7" d="m608.6 309.5l-3.2-1.8c-0.4-0.3-0.7-0.9-0.5-1.4 0.2-0.5 0.7-0.7 1.1-0.5l3.1 1.8c0.5 0.3 0.7 0.9 0.6 1.4-0.2 0.6-0.7 0.8-1.1 0.5z"/>
							<path id="&lt;Path&gt;" class="s7" d="m624.5 337.3l-8.3-4.7c-0.4-0.3-0.7-1-0.5-1.5 0.1-0.5 0.6-0.7 1.1-0.4l8.3 4.7c0.5 0.3 0.7 1 0.5 1.5-0.1 0.5-0.6 0.7-1.1 0.4z"/>
							<path id="&lt;Path&gt;" class="s7" d="m605.1 316.8l-2-1.1c-0.5-0.3-0.7-1-0.6-1.5 0.2-0.5 0.7-0.7 1.1-0.4l2 1.1c0.5 0.3 0.7 0.9 0.6 1.4-0.2 0.6-0.7 0.8-1.1 0.5z"/>
							<path id="&lt;Path&gt;" class="s7" d="m603.2 325l-2.5-1.4c-0.4-0.3-0.7-0.9-0.5-1.4 0.1-0.6 0.6-0.8 1.1-0.5l2.5 1.4c0.4 0.3 0.7 0.9 0.5 1.5-0.2 0.5-0.7 0.7-1.1 0.4z"/>
							<path id="&lt;Path&gt;" class="s7" d="m612.8 330.6l-6.5-3.8c-0.5-0.3-0.7-0.9-0.6-1.4 0.2-0.5 0.7-0.7 1.2-0.5l6.5 3.8c0.4 0.3 0.7 0.9 0.5 1.4-0.1 0.5-0.6 0.7-1.1 0.5z"/>
							<path id="&lt;Path&gt;" class="s7" d="m604.2 330.3l-4.7-2.7c-0.4-0.3-0.7-0.9-0.5-1.5 0.1-0.5 0.6-0.7 1.1-0.4l4.7 2.7c0.4 0.2 0.7 0.9 0.5 1.4-0.1 0.5-0.6 0.7-1.1 0.5z"/>
							<path id="&lt;Path&gt;" class="s7" d="m631.6 341.5l-3-1.8c-0.4-0.2-0.7-0.9-0.5-1.4 0.1-0.5 0.6-0.7 1.1-0.5l3 1.8c0.5 0.2 0.7 0.9 0.6 1.4-0.2 0.5-0.7 0.7-1.2 0.5z"/>
							<path id="&lt;Path&gt;" class="s7" d="m620.1 316.2l-8.3-4.8c-0.5-0.3-0.7-0.9-0.5-1.4 0.1-0.6 0.6-0.8 1.1-0.5l8.3 4.8c0.4 0.2 0.7 0.9 0.5 1.4-0.1 0.5-0.6 0.7-1.1 0.5z"/>
						</g>
						<path id="&lt;Path&gt;" class="s7" d="m621.1 312.1l-14.5-8.4c-0.4-0.2-0.7-0.9-0.5-1.4 0.1-0.5 0.6-0.7 1.1-0.4l14.5 8.3c0.4 0.3 0.7 0.9 0.5 1.4-0.2 0.6-0.7 0.8-1.1 0.5z"/>
						<path id="&lt;Path&gt;" class="s7" d="m612.6 316.5l-8.3-4.8c-0.5-0.3-0.7-0.9-0.6-1.4 0.2-0.6 0.7-0.8 1.1-0.5l8.3 4.8c0.5 0.2 0.7 0.9 0.6 1.4-0.2 0.5-0.7 0.7-1.1 0.5z"/>
						<path id="&lt;Path&gt;" class="s7" d="m626.4 319.8l-3-1.7c-0.5-0.3-0.7-0.9-0.6-1.5 0.2-0.5 0.7-0.7 1.1-0.4l3.1 1.7c0.4 0.3 0.7 0.9 0.5 1.4-0.1 0.6-0.6 0.8-1.1 0.5z"/>
						<path id="&lt;Path&gt;" class="s7" d="m611.9 325.4l-10-5.8c-0.5-0.2-0.7-0.9-0.6-1.4 0.2-0.5 0.7-0.7 1.2-0.5l9.9 5.8c0.5 0.3 0.7 0.9 0.6 1.4-0.2 0.5-0.7 0.7-1.1 0.5z"/>
						<path id="&lt;Path&gt;" class="s7" d="m613.4 293.7l-7.4-4.3c-0.4-0.2-0.7-0.9-0.5-1.4 0.1-0.5 0.6-0.7 1.1-0.4l7.3 4.2c0.5 0.2 0.7 0.9 0.6 1.4-0.2 0.5-0.7 0.7-1.1 0.5z"/>
						<path id="&lt;Path&gt;" class="s7" d="m602.7 334l-8.5-4.9c-0.5-0.2-0.7-0.9-0.6-1.4 0.2-0.5 0.7-0.7 1.2-0.5l8.5 4.9c0.4 0.3 0.7 1 0.5 1.5-0.2 0.5-0.7 0.7-1.1 0.4z"/>
					</g>
				</g>
				<g id="&lt;Group&gt;">
					<path id="&lt;Compound Path&gt;" fill-rule="evenodd" class="s7" d="m738 411.5c-1 0-2.1-0.3-3.1-0.8l-79.7-46.1c-3.4-2-5.3-6.7-4.1-10.6l22.4-73.4c0.6-2 1.9-3.4 3.5-4.1 1.6-0.6 3.4-0.4 5.1 0.5l79.7 46.1c3.5 2 5.3 6.7 4.1 10.6l-22.4 73.4c-0.6 2-1.8 3.4-3.5 4.1q-1 0.3-2 0.3zm-2.7-1.5c1.5 0.9 3 1 4.4 0.5 1.5-0.6 2.6-1.9 3.1-3.6l22.4-73.4c1.1-3.6-0.6-8-3.7-9.8l-79.8-46c-1.4-0.9-3-1-4.4-0.5-1.4 0.6-2.5 1.9-3.1 3.6l-22.4 73.4c-1.1 3.6 0.6 8 3.8 9.8z"/>
					<g id="&lt;Group&gt;">
						<path id="&lt;Compound Path&gt;" fill-rule="evenodd" class="s7" d="m750.4 348.5q-1.1 0-2.2-0.6l-69.7-40.3c-2.4-1.4-3.7-4.7-2.9-7.5l2.9-9.3c0.4-1.4 1.3-2.4 2.5-2.8 1.1-0.5 2.4-0.4 3.5 0.3l69.8 40.3c2.4 1.4 3.7 4.7 2.8 7.4l-2.8 9.4c-0.4 1.3-1.3 2.4-2.5 2.8q-0.7 0.3-1.4 0.3zm-68.1-60.1q-0.5 0-1.1 0.2c-0.9 0.4-1.7 1.3-2 2.4l-2.9 9.4c-0.7 2.4 0.4 5.3 2.5 6.6l69.8 40.2c1 0.6 2 0.7 2.9 0.3 1-0.3 1.7-1.2 2.1-2.3l2.8-9.4c0.8-2.4-0.4-5.4-2.5-6.6l-69.7-40.3q-0.9-0.5-1.9-0.5z"/>
						<path id="&lt;Path&gt;" class="s7" d="m740.7 372.9l-13.1-7.5c-2.3-1.4-3.5-4.5-2.7-7.1l2.9-9.3c0.7-2.6 3.2-3.6 5.5-2.3l13.1 7.6c2.2 1.3 3.4 4.4 2.6 7l-2.8 9.3c-0.8 2.6-3.3 3.6-5.5 2.3z"/>
						<path id="&lt;Compound Path&gt;" fill-rule="evenodd" class="s7" d="m734.9 399.2q-1.1 0-2.2-0.6l-13-7.6c-2.4-1.4-3.7-4.7-2.9-7.4l2.9-9.4c0.4-1.3 1.3-2.3 2.4-2.8 1.2-0.5 2.5-0.3 3.6 0.3l13.1 7.6c2.4 1.4 3.7 4.7 2.9 7.4l-2.9 9.4c-0.4 1.4-1.3 2.4-2.5 2.8q-0.6 0.3-1.4 0.3zm-11.4-27.3q-0.5 0-1.1 0.2c-0.9 0.3-1.7 1.2-2 2.4l-2.9 9.3c-0.7 2.4 0.4 5.4 2.5 6.6l13.1 7.5c1 0.6 2 0.7 3 0.4 0.9-0.4 1.7-1.3 2-2.4l2.9-9.4c0.7-2.4-0.4-5.3-2.6-6.6l-13-7.5q-0.9-0.5-1.9-0.5z"/>
						<path id="&lt;Compound Path&gt;" fill-rule="evenodd" class="s7" d="m704.4 382.5q-1.1 0-2.2-0.6l-39.5-22.8c-2.4-1.4-3.6-4.7-2.8-7.4l10.8-35.5c0.5-1.4 1.3-2.4 2.5-2.9 1.1-0.4 2.4-0.3 3.6 0.4l39.5 22.8c2.4 1.3 3.6 4.7 2.8 7.4l-10.8 35.5c-0.4 1.4-1.3 2.4-2.5 2.9q-0.7 0.2-1.4 0.2zm-1.8-1.2c1 0.5 2 0.7 2.9 0.3 1-0.4 1.7-1.2 2.1-2.4l10.8-35.5c0.8-2.4-0.4-5.4-2.5-6.6l-39.5-22.8c-1-0.6-2-0.7-2.9-0.3-1 0.4-1.7 1.2-2.1 2.4l-10.8 35.5c-0.7 2.4 0.4 5.4 2.5 6.6z"/>
					</g>
				</g>
				<path id="&lt;Compound Path&gt;" fill-rule="evenodd" class="s7" d="m759 307.8q-0.6 0-1.3-0.3c-1.2-0.7-1.8-2.3-1.2-3.4 0.2-0.6 0.7-1 1.2-1.2 0.7-0.2 1.4-0.1 2 0.3 1.3 0.7 1.8 2.2 1.3 3.4-0.2 0.5-0.7 0.9-1.3 1.1q-0.3 0.1-0.7 0.1zm-0.6-4.3q-0.2 0-0.4 0.1c-0.4 0.1-0.7 0.4-0.9 0.8-0.4 0.8 0.1 1.9 1 2.5 0.5 0.2 1 0.3 1.4 0.1 0.4-0.1 0.7-0.4 0.8-0.7 0.4-0.9 0-2-0.9-2.5q-0.5-0.3-1-0.3z"/>
				<path id="&lt;Compound Path&gt;" fill-rule="evenodd" class="s7" d="m764.8 311.1q-0.7 0-1.3-0.3c-1.2-0.7-1.8-2.3-1.3-3.4 0.3-0.6 0.7-1 1.3-1.2 0.6-0.2 1.3-0.1 2 0.2 1.2 0.7 1.8 2.3 1.3 3.5-0.3 0.5-0.7 0.9-1.3 1.1q-0.3 0.1-0.7 0.1zm-0.6-4.3q-0.3 0-0.5 0.1c-0.4 0.1-0.7 0.4-0.8 0.7-0.4 0.9 0 2 1 2.5 0.4 0.3 0.9 0.4 1.4 0.2 0.3-0.1 0.6-0.4 0.8-0.7 0.4-0.9-0.1-2-1-2.5q-0.4-0.3-0.9-0.3z"/>
				<path id="&lt;Path&gt;" class="s7" d="m772.2 313c-0.5 1-1.7 1.4-2.8 0.7-1-0.6-1.5-1.9-1.1-2.9 0.5-1 1.7-1.4 2.8-0.7 1 0.6 1.5 1.9 1.1 2.9z"/>
				<g id="&lt;Group&gt;">
					<path id="&lt;Path&gt;" class="s7" d="m677.4 338.8l-4.3-2.5-5.5 17.9 4.4 2.5z"/>
					<path id="&lt;Path&gt;" class="s7" d="m685.8 348l-4.4-2.5-4.3 14.1 4.4 2.5z"/>
					<path id="&lt;Path&gt;" class="s7" d="m698.2 344l-4.4-2.5-7.2 23.6 4.4 2.5z"/>
					<path id="&lt;Path&gt;" class="s7" d="m710.5 340.2l-4.4-2.5-10 32.9 4.4 2.5z"/>
				</g>
			</g>
			<g id="&lt;Group&gt;">
				<path id="&lt;Compound Path&gt;" fill-rule="evenodd" class="s4" d="m594.3 694.2c-3.4 0-6.7-0.7-9.3-2.2l-61.9-35.8c-2.6-1.4-4-3.4-4-5.6 0-2.2 1.4-4.2 4-5.7l107.6-62.1c5.1-3 13.4-3 18.5 0l62 35.8c2.5 1.4 3.9 3.5 3.9 5.6 0 2.2-1.4 4.2-3.9 5.7l-107.7 62.1c-2.6 1.5-5.9 2.2-9.2 2.2zm45.7-112.5c-3.2 0-6.3 0.7-8.7 2.1l-107.7 62.1c-2.2 1.3-3.4 3-3.4 4.7 0 1.7 1.2 3.4 3.4 4.6l62 35.8c4.8 2.8 12.6 2.8 17.3 0l107.7-62.1c2.2-1.3 3.4-3 3.4-4.7 0-1.7-1.2-3.4-3.4-4.6l-62-35.8c-2.4-1.4-5.5-2.1-8.6-2.1z"/>
				<g id="&lt;Group&gt;">
					<path id="&lt;Path&gt;" class="s16" d="m714.9 604.7v-29.8l-37.6 5-28.1-16.2c-4.9-2.8-12.9-2.8-17.9 0l-50.4 29.1-60.9 8.1v30.1q0 0 0 0.1v0.1c0.1 1.8 1.3 3.6 3.7 5l61.9 35.8c5 2.8 13 2.8 17.9 0l107.7-62.2c2.4-1.4 3.6-3.2 3.6-5h0.1z"/>
					<path id="&lt;Path&gt;" class="s17" d="m711.2 569.6l-62-35.8c-4.9-2.9-12.9-2.9-17.9 0l-107.6 62.1c-5 2.9-5 7.5 0 10.3l61.9 35.8c5 2.9 13 2.9 17.9 0l107.7-62.1c4.9-2.9 4.9-7.5 0-10.3z"/>
					<path id="&lt;Path&gt;" class="s7" d="m711.2 578.1l-107.7 62.1c-4.9 2.9-12.9 2.9-17.9 0l-61.9-35.8c-2.1-1.2-3.3-2.7-3.6-4.2-0.5 2.1 0.7 4.4 3.6 6l61.9 35.8c5 2.9 13 2.9 17.9 0l107.7-62.1c2.8-1.7 4-3.9 3.6-6.1-0.4 1.6-1.6 3.1-3.6 4.3z"/>
					<g id="&lt;Group&gt;">
						<path id="&lt;Path&gt;" class="s7" d="m639.8 633.3l-2.9 1.7v-3.4l2.9-1.6z"/>
						<path id="&lt;Path&gt;" class="s7" d="m646 629.8l-3 1.7v-3.4l3-1.7z"/>
						<path id="&lt;Path&gt;" class="s7" d="m652.1 626.3l-2.9 1.6v-3.3l2.9-1.7z"/>
						<path id="&lt;Path&gt;" class="s7" d="m647.1 636l-2.9 1.7v-3.4l2.9-1.7z"/>
						<path id="&lt;Path&gt;" class="s7" d="m652.5 632.9l-2.9 1.7v-3.4l2.9-1.7z"/>
						<path id="&lt;Path&gt;" class="s7" d="m671.8 614.9l-2.9 1.7v-3.4l2.9-1.7z"/>
						<path id="&lt;Path&gt;" class="s7" d="m688.7 605.1l-2.9 1.7v-3.4l2.9-1.7z"/>
						<path id="&lt;Path&gt;" class="s7" d="m658.2 622.7l-2.9 1.7v-3.4l2.9-1.7z"/>
					</g>
					<g id="&lt;Group&gt;">
						<g id="&lt;Group&gt;">
							<path id="&lt;Path&gt;" class="s8" d="m616.6 561.5l43.8 25.2-4 2.4-43.8-25.3z"/>
							<path id="&lt;Path&gt;" class="s7" d="m614.1 564.7l2.7-1.6 42.3 24.4 1.3-0.8-43.8-25.2-4 2.3z"/>
						</g>
						<g id="&lt;Group&gt;">
							<path id="&lt;Path&gt;" class="s8" d="m628.9 554.4l43.8 25.2-4.1 2.4-43.8-25.3z"/>
							<path id="&lt;Path&gt;" class="s7" d="m626.4 557.6l2.7-1.6 42.3 24.4 1.3-0.8-43.8-25.2-4.1 2.3z"/>
						</g>
						<g id="&lt;Group&gt;">
							<path id="&lt;Path&gt;" class="s8" d="m641.1 547.3l43.8 25.2-4 2.4-43.8-25.3z"/>
							<path id="&lt;Path&gt;" class="s7" d="m638.6 550.5l2.8-1.6 42.3 24.4 1.2-0.8-43.8-25.2-4 2.3z"/>
						</g>
					</g>
				</g>
				<path id="&lt;Compound Path&gt;" fill-rule="evenodd" class="s8" d="m593.8 628.1c-1.2 0-2.3-0.2-3.2-0.7l-41.7-24.1c-0.9-0.5-1.4-1.3-1.4-2.1 0-1 0.7-2 1.9-2.7l40.8-23.5c2.1-1.2 5.2-1.3 7.1-0.3l41.7 24.1c0.9 0.5 1.4 1.3 1.4 2.1 0 1-0.7 2-1.9 2.7l-40.7 23.5c-1.2 0.7-2.6 1-4 1zm-2.6-1.7c1.5 0.9 4.3 0.8 6-0.2l40.8-23.6c0.8-0.4 1.3-1.1 1.3-1.7 0-0.5-0.4-0.9-0.8-1.1l-41.7-24.1c-1.6-0.9-4.3-0.8-6.1 0.3l-40.8 23.5c-0.8 0.5-1.3 1.1-1.3 1.7 0 0.5 0.5 0.9 0.9 1.2z"/>
				<path id="&lt;Path&gt;" class="s8" d="m574.5 653l-34.4-19.9c-0.8-0.5-1.5-1.7-1.5-2.8v-2.6c0-1.1 0.7-1.6 1.5-1.1l34.4 19.9c0.8 0.4 1.5 1.7 1.5 2.8v2.6c0 1-0.7 1.5-1.5 1.1z"/>
			</g>
			<g id="&lt;Group&gt;">
				<path id="&lt;Compound Path&gt;" fill-rule="evenodd" class="s4" d="m298.1 524.6c-3.4 0-6.8-0.8-9.3-2.2l-62-35.8c-2.6-1.5-4.1-3.6-4.1-5.8 0-2.3 1.5-4.3 4.1-5.9l107.7-62.1c5.1-3 13.5-3 18.6 0l62 35.8c2.6 1.5 4.1 3.5 4.1 5.8 0 2.2-1.5 4.3-4.1 5.8l-107.7 62.2c-2.6 1.4-5.9 2.2-9.3 2.2zm45.7-112.5c-3.1 0-6.2 0.6-8.6 2l-107.6 62.2c-2.2 1.2-3.4 2.8-3.4 4.5 0 1.6 1.2 3.2 3.4 4.4l61.9 35.8c4.8 2.8 12.4 2.8 17.1 0l107.7-62.1c2.1-1.3 3.3-2.9 3.3-4.5 0-1.7-1.2-3.3-3.3-4.5l-62-35.8c-2.3-1.4-5.4-2-8.5-2z"/>
				<g id="&lt;Group&gt;">
					<path id="&lt;Path&gt;" class="s18" d="m418.7 434.8v-29.7l-37.6 5-28.1-16.2c-4.9-2.9-12.9-2.9-17.9 0l-50.3 29.1-61 8.1v30.1q0 0 0 0v0.2c0.1 1.8 1.3 3.6 3.7 5l62 35.7c4.9 2.9 12.9 2.9 17.8 0l107.7-62.1c2.4-1.4 3.6-3.2 3.7-5z"/>
					<path id="&lt;Path&gt;" class="s19" d="m415 399.7l-62-35.8c-4.9-2.8-12.9-2.8-17.9 0l-107.6 62.2c-5 2.8-5 7.5 0 10.3l62 35.8c4.9 2.8 12.9 2.8 17.8 0l107.7-62.2c4.9-2.8 4.9-7.4 0-10.3z"/>
					<path id="&lt;Path&gt;" class="s7" d="m415 408.2l-107.7 62.2c-4.9 2.8-12.9 2.8-17.8 0l-62-35.8c-2.1-1.2-3.3-2.7-3.6-4.2-0.5 2.1 0.7 4.4 3.6 6l62 35.8c4.9 2.8 12.9 2.8 17.8 0l107.7-62.2c2.9-1.6 4-3.9 3.6-6-0.3 1.5-1.5 3-3.6 4.2z"/>
					<g id="&lt;Group&gt;">
						<path id="&lt;Path&gt;" class="s7" d="m343.6 463.5l-2.9 1.7v-3.4l2.9-1.7z"/>
						<path id="&lt;Path&gt;" class="s7" d="m349.8 460l-2.9 1.7v-3.4l2.9-1.7z"/>
						<path id="&lt;Path&gt;" class="s7" d="m355.9 456.4l-2.9 1.7v-3.4l2.9-1.7z"/>
						<path id="&lt;Path&gt;" class="s7" d="m350.9 466.2l-2.9 1.7v-3.4l2.9-1.7z"/>
						<path id="&lt;Path&gt;" class="s7" d="m356.3 463.1l-2.9 1.7v-3.4l2.9-1.7z"/>
						<path id="&lt;Path&gt;" class="s7" d="m375.6 445l-2.9 1.7v-3.3l2.9-1.7z"/>
						<path id="&lt;Path&gt;" class="s7" d="m392.5 435.3l-2.9 1.7v-3.4l2.9-1.7z"/>
						<path id="&lt;Path&gt;" class="s7" d="m362.1 452.9l-3 1.7v-3.4l3-1.7z"/>
					</g>
					<g id="&lt;Group&gt;">
						<g id="&lt;Group&gt;">
							<path id="&lt;Path&gt;" class="s8" d="m320.4 391.7l43.8 25.2-4 2.3-43.8-25.2z"/>
							<path id="&lt;Path&gt;" class="s7" d="m317.9 394.9l2.8-1.6 42.2 24.3 1.3-0.7-43.8-25.2-4 2.3z"/>
						</g>
						<g id="&lt;Group&gt;">
							<path id="&lt;Path&gt;" class="s8" d="m332.7 384.6l43.8 25.2-4 2.3-43.8-25.2z"/>
							<path id="&lt;Path&gt;" class="s7" d="m330.2 387.8l2.7-1.6 42.3 24.3 1.3-0.7-43.8-25.2-4 2.3z"/>
						</g>
						<g id="&lt;Group&gt;">
							<path id="&lt;Path&gt;" class="s8" d="m345 377.5l43.8 25.2-4.1 2.3-43.8-25.2z"/>
							<path id="&lt;Path&gt;" class="s7" d="m342.4 380.7l2.8-1.6 42.3 24.3 1.3-0.7-43.8-25.2-4.1 2.3z"/>
						</g>
					</g>
				</g>
				<path id="&lt;Compound Path&gt;" fill-rule="evenodd" class="s8" d="m297.6 458.3c-1.2 0-2.3-0.3-3.2-0.7l-41.7-24.1c-0.9-0.6-1.4-1.3-1.4-2.2 0-0.9 0.7-1.9 1.9-2.6l40.8-23.5c2.1-1.3 5.3-1.4 7.1-0.3l41.7 24.1c1 0.5 1.5 1.3 1.5 2.1 0 1-0.7 2-1.9 2.6l-40.8 23.6c-1.2 0.6-2.6 1-4 1zm-2.6-1.7c1.5 0.9 4.3 0.8 6.1-0.3l40.7-23.5c0.9-0.5 1.4-1.1 1.4-1.7 0-0.6-0.5-0.9-0.9-1.2l-41.7-24.1c-1.5-0.8-4.3-0.7-6.1 0.3l-40.7 23.6c-0.9 0.4-1.4 1.1-1.4 1.6 0 0.6 0.5 1 0.9 1.2z"/>
				<path id="&lt;Path&gt;" class="s8" d="m278.3 483.1l-34.4-19.8c-0.8-0.5-1.5-1.8-1.5-2.9v-2.5c0-1.1 0.7-1.6 1.5-1.2l34.4 19.9c0.8 0.5 1.5 1.8 1.5 2.9v2.5c0 1.1-0.7 1.6-1.5 1.1z"/>
			</g>
		</g>
		<g id="&lt;Group&gt;">
			<path id="&lt;Path&gt;" class="s20" d="m437.8 275.5c0 6.8-5.5 12.4-12.4 12.4-6.9 0-12.4-5.6-12.4-12.4 0-6.9 5.5-12.5 12.4-12.5 6.9 0 12.4 5.6 12.4 12.5z"/>
			<path id="&lt;Path&gt;" class="s21" d="m431.5 275.5c0 3.3-2.7 6.1-6.1 6.1-3.4 0-6.1-2.8-6.1-6.1 0-3.4 2.7-6.1 6.1-6.1 3.4 0 6.1 2.7 6.1 6.1z"/>
		</g>
		<g id="&lt;Group&gt;">
			<path id="&lt;Path&gt;" class="s20" d="m437.8 566.2c0 6.9-5.5 12.4-12.4 12.4-6.9 0-12.4-5.5-12.4-12.4 0-6.8 5.5-12.4 12.4-12.4 6.9 0 12.4 5.6 12.4 12.4z"/>
			<path id="&lt;Path&gt;" class="s21" d="m431.5 566.2c0 3.4-2.7 6.1-6.1 6.1-3.4 0-6.1-2.7-6.1-6.1 0-3.3 2.7-6.1 6.1-6.1 3.4 0 6.1 2.8 6.1 6.1z"/>
		</g>
		<g id="&lt;Group&gt;">
			<path id="&lt;Path&gt;" class="s20" d="m784.3 516.2c0 4.8-3.9 8.7-8.8 8.7-4.8 0-8.7-3.9-8.7-8.7 0-4.9 3.9-8.8 8.7-8.8 4.9 0 8.8 3.9 8.8 8.8z"/>
			<path id="&lt;Path&gt;" class="s21" d="m779.8 516.2c0 2.3-1.9 4.2-4.3 4.2-2.3 0-4.3-1.9-4.3-4.2 0-2.4 2-4.3 4.3-4.3 2.4 0 4.3 1.9 4.3 4.3z"/>
		</g>
		<g id="&lt;Group&gt;">
			<path id="&lt;Path&gt;" class="s20" d="m554.3 330c0 3.8-3 6.8-6.8 6.8-3.7 0-6.7-3-6.7-6.8 0-3.7 3-6.7 6.7-6.7 3.8 0 6.8 3 6.8 6.7z"/>
			<path id="&lt;Path&gt;" class="s21" d="m550.9 330c0 1.9-1.5 3.4-3.4 3.4-1.8 0-3.3-1.5-3.3-3.4 0-1.8 1.5-3.3 3.3-3.3 1.9 0 3.4 1.5 3.4 3.3z"/>
		</g>
		<path id="&lt;Path&gt;" class="s20" d="m805.2 602.6c0 2-1.7 3.6-3.7 3.6-2 0-3.6-1.6-3.6-3.6 0-2 1.6-3.7 3.6-3.7 2 0 3.7 1.7 3.7 3.7z"/>
		<path id="&lt;Path&gt;" class="s20" d="m775.7 401.1c0 1.1-0.9 2-2 2-1.2 0-2.1-0.9-2.1-2 0-1.1 0.9-2.1 2.1-2.1 1.1 0 2 1 2 2.1z"/>
		<path id="&lt;Path&gt;" class="s20" d="m449.9 561c0 1.1-0.9 2-2 2-1.1 0-2.1-0.9-2.1-2 0-1.2 1-2.1 2.1-2.1 1.1 0 2 0.9 2 2.1z"/>
	</g>
</svg>