<svg version="1.2" xmlns="http://www.w3.org/2000/svg" viewBox="0 0 800 800" width="800" height="800">
	<title>6820272_550-ai</title>
	<defs>
		<linearGradient id="g1" x2="1" gradientUnits="userSpaceOnUse" gradientTransform="matrix(-587.629,0,0,-339.268,681.649,259.423)">
			<stop offset="0" stop-color="#2f054a"/>
			<stop offset="1" stop-color="#5824b0"/>
		</linearGradient>
		<linearGradient id="g2" x2="1" gradientUnits="userSpaceOnUse" gradientTransform="matrix(-587.637,0,0,-339.268,604.392,256.89)">
			<stop offset=".056" stop-color="#2f0d5e"/>
			<stop offset=".47" stop-color="#311b61"/>
			<stop offset=".53" stop-color="#8770b8"/>
			<stop offset=".626" stop-color="#311b61"/>
			<stop offset=".813" stop-color="#200041"/>
			<stop offset="1" stop-color="#200041"/>
		</linearGradient>
		<linearGradient id="g3" x2="1" gradientUnits="userSpaceOnUse" gradientTransform="matrix(-587.629,0,0,-339.268,681.649,244.224)">
			<stop offset="0" stop-color="#58098a"/>
			<stop offset="1" stop-color="#9e3bdb"/>
		</linearGradient>
		<radialGradient id="g4" cx="0" cy="0" r="1" gradientUnits="userSpaceOnUse" gradientTransform="matrix(223.354,0,0,223.354,348.5,478.853)">
			<stop offset="0" stop-color="#ffffff"/>
			<stop offset="1" stop-color="#000000"/>
		</radialGradient>
		<linearGradient id="g5" x2="1" gradientUnits="userSpaceOnUse" gradientTransform="matrix(-575.886,0,0,-332.488,675.777,247.614)">
			<stop offset="0" stop-color="#2f054a"/>
			<stop offset="1" stop-color="#5e1d9a"/>
		</linearGradient>
		<linearGradient id="g6" x2="1" gradientUnits="userSpaceOnUse" gradientTransform="matrix(-120.664,603.324,-882.927,-176.585,538.287,263.641)">
			<stop offset="0" stop-color="#861eb2"/>
			<stop offset=".429" stop-color="#5f27bd"/>
			<stop offset=".904" stop-color="#3d065f"/>
		</linearGradient>
		<linearGradient id="g7" x2="1" gradientUnits="userSpaceOnUse" gradientTransform="matrix(-24.523,14.158,-4.205,-7.283,622.498,399.964)">
			<stop offset="0" stop-color="#3d065f"/>
			<stop offset="1" stop-color="#5f27bd"/>
		</linearGradient>
		<linearGradient id="g8" x2="1" gradientUnits="userSpaceOnUse" gradientTransform="matrix(-24.523,14.158,-4.205,-7.283,622.498,399.964)">
			<stop offset="0" stop-color="#2f054a"/>
			<stop offset="1" stop-color="#5824b0"/>
		</linearGradient>
		<linearGradient id="g9" x2="1" gradientUnits="userSpaceOnUse" gradientTransform="matrix(-0.84,27.73,-31.505,-0.955,602.634,522.172)">
			<stop offset=".056" stop-color="#9f79b8"/>
			<stop offset=".495" stop-color="#c1a1d5"/>
			<stop offset=".556" stop-color="#ffffff"/>
			<stop offset=".601" stop-color="#d1b4e3"/>
			<stop offset=".813" stop-color="#8969c3"/>
			<stop offset="1" stop-color="#b086cc"/>
		</linearGradient>
		<linearGradient id="g10" x2="1" gradientUnits="userSpaceOnUse" gradientTransform="matrix(-24.523,14.158,-4.205,-7.283,593.733,416.571)">
			<stop offset="0" stop-color="#3d065f"/>
			<stop offset="1" stop-color="#5f27bd"/>
		</linearGradient>
		<linearGradient id="g11" x2="1" gradientUnits="userSpaceOnUse" gradientTransform="matrix(-24.523,14.158,-4.205,-7.283,593.733,416.571)">
			<stop offset="0" stop-color="#2f054a"/>
			<stop offset="1" stop-color="#5824b0"/>
		</linearGradient>
		<linearGradient id="g12" x2="1" gradientUnits="userSpaceOnUse" gradientTransform="matrix(-0.84,27.732,-31.51,-0.955,573.338,556.345)">
			<stop offset=".056" stop-color="#9f79b8"/>
			<stop offset=".495" stop-color="#c1a1d5"/>
			<stop offset=".556" stop-color="#ffffff"/>
			<stop offset=".601" stop-color="#d1b4e3"/>
			<stop offset=".813" stop-color="#8969c3"/>
			<stop offset="1" stop-color="#b086cc"/>
		</linearGradient>
		<radialGradient id="g13" cx="0" cy="0" r="1" gradientUnits="userSpaceOnUse" gradientTransform="matrix(-97.774,40.819,-40.819,-97.774,544.524,442.585)">
			<stop offset="0" stop-color="#972a74"/>
			<stop offset="1" stop-color="#000000"/>
		</radialGradient>
		<radialGradient id="g14" cx="0" cy="0" r="1" gradientUnits="userSpaceOnUse" gradientTransform="matrix(-50.999,-20.958,20.958,-50.999,290.084,588.491)">
			<stop offset="0" stop-color="#972a74"/>
			<stop offset="1" stop-color="#000000"/>
		</radialGradient>
		<linearGradient id="g15" x2="1" gradientUnits="userSpaceOnUse" gradientTransform="matrix(126.212,69.389,-18.585,33.803,234.553,400.697)">
			<stop offset=".035" stop-color="#ffa98c"/>
			<stop offset=".985" stop-color="#ad00bd"/>
		</linearGradient>
		<radialGradient id="g16" cx="0" cy="0" r="1" gradientUnits="userSpaceOnUse" gradientTransform="matrix(45.897,0,0,45.897,291.827,480.318)">
			<stop offset="0" stop-color="#ffffff"/>
			<stop offset="1" stop-color="#000000"/>
		</radialGradient>
		<linearGradient id="g17" x2="1" gradientUnits="userSpaceOnUse" gradientTransform="matrix(141.651,81.782,-69.788,120.876,538.974,254.755)">
			<stop offset="0" stop-color="#25054d"/>
			<stop offset="1" stop-color="#45108a"/>
		</linearGradient>
		<linearGradient id="g18" x2="1" gradientUnits="userSpaceOnUse" gradientTransform="matrix(187.01,107.97,-22.454,38.891,545.379,251.057)">
			<stop offset=".035" stop-color="#9f19ab"/>
			<stop offset="1" stop-color="#ff63ce"/>
		</linearGradient>
		<linearGradient id="g19" x2="1" gradientUnits="userSpaceOnUse" gradientTransform="matrix(55.2,31.87,-7.968,13.801,385.706,435.454)">
			<stop offset=".035" stop-color="#9f19ab"/>
			<stop offset="1" stop-color="#ff63ce"/>
		</linearGradient>
		<linearGradient id="g20" x2="1" gradientUnits="userSpaceOnUse" gradientTransform="matrix(53.063,30.636,-7.696,13.33,317.044,395.812)">
			<stop offset=".035" stop-color="#9f19ab"/>
			<stop offset="1" stop-color="#ff63ce"/>
		</linearGradient>
		<linearGradient id="g21" x2="1" gradientUnits="userSpaceOnUse" gradientTransform="matrix(62.007,35.8,-26.614,46.097,537.988,256.093)">
			<stop offset=".035" stop-color="#9d9eb3"/>
			<stop offset=".581" stop-color="#d4d1d8"/>
			<stop offset="1" stop-color="#eeebf2"/>
		</linearGradient>
		<radialGradient id="g22" cx="0" cy="0" r="1" gradientUnits="userSpaceOnUse" gradientTransform="matrix(159.79,0,0,159.79,512.145,394.108)">
			<stop offset="0" stop-color="#ffffff"/>
			<stop offset="1" stop-color="#000000"/>
		</radialGradient>
		<linearGradient id="g23" x2="1" gradientUnits="userSpaceOnUse" gradientTransform="matrix(138.771,80.119,-20.36,35.264,450.237,287.226)">
			<stop offset=".035" stop-color="#6b24d6"/>
			<stop offset="1" stop-color="#a56ef4"/>
		</linearGradient>
		<radialGradient id="g24" cx="0" cy="0" r="1" gradientUnits="userSpaceOnUse" gradientTransform="matrix(20,0,0,20,244.762,327.778)">
			<stop offset=".101" stop-color="#dc3daa"/>
			<stop offset=".152" stop-color="#5e0f66"/>
			<stop offset="1" stop-color="#000000"/>
		</radialGradient>
		<radialGradient id="g25" cx="0" cy="0" r="1" gradientUnits="userSpaceOnUse" gradientTransform="matrix(20,0,0,20,244.762,448.778)">
			<stop offset=".101" stop-color="#ffffff"/>
			<stop offset=".152" stop-color="#9f19ab"/>
			<stop offset="1" stop-color="#000000"/>
		</radialGradient>
		<linearGradient id="g26" x2="1" gradientUnits="userSpaceOnUse" gradientTransform="matrix(338.933,234.646,-252.198,364.286,161.612,-65.906)">
			<stop offset="0" stop-color="#972a74"/>
			<stop offset="1" stop-color="#000000"/>
		</linearGradient>
	</defs>
	<style>
		.s0 { mix-blend-mode: screen;fill: #45108a } 
		.s1 { fill: #45108a } 
		.s2 { opacity: 0;fill: #000000 } 
		.s3 { opacity: .1;fill: #000000 } 
		.s4 { opacity: .2;fill: #000000 } 
		.s5 { opacity: .3;fill: #000000 } 
		.s6 { opacity: .4;fill: #000000 } 
		.s7 { opacity: .5;fill: #000000 } 
		.s8 { opacity: .6;fill: #000000 } 
		.s9 { opacity: .7;fill: #000000 } 
		.s10 { opacity: .8;fill: #000000 } 
		.s11 { opacity: .9;fill: #000000 } 
		.s12 { fill: #000000 } 
		.s13 { fill: url(#g1) } 
		.s14 { fill: url(#g2) } 
		.s15 { fill: url(#g3) } 
		.s16 { mix-blend-mode: color-dodge;fill: url(#g4) } 
		.s17 { fill: url(#g5) } 
		.s18 { fill: #1f0d3d } 
		.s19 { fill: #3d065f } 
		.s20 { fill: url(#g6) } 
		.s21 { fill: url(#g7) } 
		.s22 { fill: url(#g8) } 
		.s23 { fill: url(#g9) } 
		.s24 { fill: url(#g10) } 
		.s25 { fill: url(#g11) } 
		.s26 { fill: url(#g12) } 
		.s27 { mix-blend-mode: color-dodge;fill: #3d065f } 
		.s28 { mix-blend-mode: color-dodge;fill: url(#g13) } 
		.s29 { mix-blend-mode: color-dodge;fill: url(#g14) } 
		.s30 { fill: #a56ef4 } 
		.s31 { fill: url(#g15) } 
		.s32 { mix-blend-mode: color-dodge;fill: url(#g16) } 
		.s33 { fill: #ffffff } 
		.s34 { fill: #7c1dc9 } 
		.s35 { fill: url(#g17) } 
		.s36 { fill: url(#g18) } 
		.s37 { fill: url(#g19) } 
		.s38 { fill: url(#g20) } 
		.s39 { fill: url(#g21) } 
		.s40 { fill: #f745be } 
		.s41 { fill: #e6e7e8 } 
		.s42 { mix-blend-mode: color-dodge;fill: url(#g22) } 
		.s43 { fill: url(#g23) } 
		.s44 { fill: #b4299a } 
		.s45 { opacity: .4;fill: #b4299a } 
		.s46 { opacity: .1;fill: #b4299a } 
		.s47 { mix-blend-mode: screen;fill: url(#g24) } 
		.s48 { mix-blend-mode: screen;fill: url(#g25) } 
		.s49 { mix-blend-mode: color-dodge;fill: url(#g26) } 
	</style>
	<g id="_Artboards_">
	</g>
	<g id="Layer 1">
		<g id="&lt;Group&gt;">
		</g>
		<g id="&lt;Group&gt;">
			<g id="&lt;Group&gt;">
			</g>
		</g>
		<g id="&lt;Group&gt;">
			<g id="&lt;Group&gt;">
			</g>
		</g>
		<g id="&lt;Group&gt;">
			<g id="&lt;Group&gt;">
			</g>
		</g>
		<g id="&lt;Group&gt;">
			<g id="&lt;Group&gt;">
			</g>
		</g>
		<g id="&lt;Group&gt;">
			<g id="&lt;Group&gt;">
			</g>
		</g>
		<g id="&lt;Group&gt;">
			<path id="&lt;Compound Path&gt;" class="s0" d="m633.8 435.3c-0.4 0-0.7-0.2-0.9-0.5-0.3-0.5-0.1-1.1 0.4-1.4l3.4-2c0.5-0.3 1.1-0.1 1.4 0.3 0.3 0.5 0.1 1.1-0.4 1.4l-3.4 2q-0.3 0.2-0.5 0.2zm6.9-4.1c-0.4 0-0.7-0.2-0.9-0.5-0.3-0.5-0.1-1.1 0.3-1.3l3.5-2.1c0.5-0.3 1.1-0.1 1.4 0.4 0.2 0.5 0.1 1.1-0.4 1.3l-3.4 2.1q-0.3 0.1-0.5 0.1zm6.8-4c-0.3 0-0.6-0.2-0.8-0.5-0.3-0.5-0.1-1.1 0.3-1.4l3.5-2c0.5-0.3 1.1-0.2 1.4 0.3 0.2 0.5 0.1 1.1-0.4 1.4l-3.4 2q-0.3 0.2-0.6 0.2zm6.9-4.1c-0.3 0-0.6-0.2-0.8-0.5-0.3-0.5-0.1-1.1 0.3-1.4l3.5-2c0.5-0.3 1.1-0.1 1.3 0.4 0.3 0.4 0.2 1-0.3 1.3l-3.5 2.1q-0.2 0.1-0.5 0.1zm6.9-4.1c-0.3 0-0.6-0.1-0.8-0.5-0.3-0.4-0.1-1 0.3-1.3l3.5-2.1c0.4-0.2 1.1-0.1 1.3 0.4 0.3 0.5 0.2 1.1-0.3 1.4l-3.5 2q-0.2 0.1-0.5 0.1zm6.9-4c-0.3 0-0.6-0.2-0.8-0.5-0.3-0.5-0.2-1.1 0.3-1.4l3.5-2c0.4-0.3 1.1-0.1 1.3 0.3 0.3 0.5 0.2 1.1-0.3 1.4l-3.5 2q-0.2 0.2-0.5 0.2zm6.9-4.1c-0.3 0-0.7-0.2-0.8-0.5-0.3-0.5-0.2-1.1 0.3-1.3l3.5-2.1c0.4-0.3 1-0.1 1.3 0.4 0.3 0.5 0.1 1.1-0.3 1.3l-3.5 2.1q-0.2 0.1-0.5 0.1zm6.9-4c-0.3 0-0.7-0.2-0.8-0.5-0.3-0.5-0.2-1.1 0.3-1.4l3.5-2c0.4-0.3 1-0.2 1.3 0.3 0.3 0.5 0.1 1.1-0.3 1.4l-3.5 2q-0.2 0.2-0.5 0.2zm6.9-4.1c-0.3 0-0.7-0.2-0.9-0.5-0.2-0.5-0.1-1.1 0.4-1.4l3.4-2c0.5-0.3 1.1-0.1 1.4 0.4 0.3 0.4 0.1 1-0.3 1.3l-3.5 2.1q-0.2 0.1-0.5 0.1zm6.9-4.1c-0.3 0-0.7-0.1-0.9-0.5-0.2-0.4-0.1-1 0.4-1.3l3.4-2.1c0.5-0.2 1.1-0.1 1.4 0.4 0.3 0.5 0.1 1.1-0.3 1.4l-3.5 2q-0.2 0.1-0.5 0.1zm6.9-4c-0.4 0-0.7-0.2-0.9-0.5-0.3-0.5-0.1-1.1 0.4-1.4l3.4-2c0.5-0.3 1.1-0.1 1.4 0.3 0.3 0.5 0.1 1.1-0.4 1.4l-3.4 2q-0.2 0.2-0.5 0.2zm6.9-4.1c-0.4 0-0.7-0.2-0.9-0.5-0.3-0.5-0.1-1.1 0.4-1.3l3.4-2.1c0.5-0.3 1.1-0.1 1.4 0.4 0.3 0.5 0.1 1.1-0.4 1.3l-3.4 2.1q-0.3 0.1-0.5 0.1zm6.9-4c-0.4 0-0.7-0.2-0.9-0.5-0.3-0.5-0.1-1.1 0.4-1.4l3.4-2c0.5-0.3 1.1-0.2 1.4 0.3 0.3 0.5 0.1 1.1-0.4 1.4l-3.4 2q-0.3 0.2-0.5 0.2zm5.3-5c-0.6 0-1-0.5-1-1v-4c0-0.6 0.4-1 1-1 0.5 0 1 0.4 1 1v4c0 0.5-0.5 1-1 1zm0-8c-0.6 0-1-0.5-1-1v-4c0-0.6 0.4-1 1-1 0.5 0 1 0.4 1 1v4c0 0.5-0.5 1-1 1zm0-8c-0.6 0-1-0.5-1-1v-4c0-0.6 0.4-1 1-1 0.5 0 1 0.4 1 1v4c0 0.5-0.5 1-1 1zm0-8c-0.6 0-1-0.5-1-1v-4c0-0.6 0.4-1 1-1 0.5 0 1 0.4 1 1v4c0 0.5-0.5 1-1 1zm0-8c-0.6 0-1-0.5-1-1v-4c0-0.6 0.4-1 1-1 0.5 0 1 0.4 1 1v4c0 0.5-0.5 1-1 1zm0-8c-0.6 0-1-0.5-1-1v-4c0-0.6 0.4-1 1-1 0.5 0 1 0.4 1 1v4c0 0.5-0.5 1-1 1zm0-8c-0.6 0-1-0.5-1-1v-4c0-0.6 0.4-1 1-1 0.5 0 1 0.4 1 1v4c0 0.5-0.5 1-1 1zm0-8c-0.6 0-1-0.5-1-1v-4c0-0.6 0.4-1 1-1 0.5 0 1 0.4 1 1v4c0 0.5-0.5 1-1 1zm0-8c-0.6 0-1-0.5-1-1v-0.7l-1.9-1.1c-0.5-0.3-0.7-0.9-0.4-1.4 0.3-0.4 0.9-0.6 1.4-0.3l2.4 1.4c0.3 0.1 0.5 0.5 0.5 0.8v1.3c0 0.5-0.5 1-1 1zm-5.9-4.7q-0.2 0-0.5-0.1l-3.4-2c-0.5-0.3-0.7-0.9-0.4-1.4 0.3-0.5 0.9-0.6 1.4-0.3l3.4 2c0.5 0.2 0.7 0.9 0.4 1.3-0.2 0.4-0.5 0.5-0.9 0.5zm-6.9-4q-0.3 0-0.5-0.1l-3.5-2c-0.4-0.3-0.6-0.9-0.3-1.4 0.3-0.5 0.9-0.6 1.3-0.4l3.5 2c0.5 0.3 0.6 0.9 0.4 1.4-0.2 0.3-0.6 0.5-0.9 0.5zm-6.9-4q-0.3 0-0.5-0.1l-3.5-2c-0.5-0.3-0.6-0.9-0.3-1.4 0.2-0.5 0.9-0.7 1.3-0.4l3.5 2c0.5 0.3 0.6 0.9 0.4 1.4-0.2 0.3-0.6 0.5-0.9 0.5zm-6.9-4q-0.3 0-0.5-0.2l-3.5-2c-0.5-0.2-0.6-0.9-0.4-1.3 0.3-0.5 0.9-0.7 1.4-0.4l3.5 2c0.5 0.3 0.6 0.9 0.3 1.4-0.2 0.3-0.5 0.5-0.8 0.5zm-6.9-4q-0.3 0-0.5-0.2l-3.5-2c-0.5-0.3-0.6-0.9-0.4-1.4 0.3-0.4 0.9-0.6 1.4-0.3l3.5 2c0.4 0.3 0.6 0.9 0.3 1.4-0.2 0.3-0.5 0.5-0.8 0.5zm-7-4.1q-0.2 0-0.5-0.1l-3.4-2c-0.5-0.3-0.7-0.9-0.4-1.4 0.3-0.5 0.9-0.6 1.4-0.3l3.4 2c0.5 0.3 0.7 0.9 0.4 1.3-0.2 0.4-0.5 0.5-0.9 0.5zm-6.9-4q-0.2 0-0.5-0.1l-3.4-2c-0.5-0.3-0.7-0.9-0.4-1.4 0.3-0.5 0.9-0.6 1.4-0.4l3.4 2.1c0.5 0.2 0.7 0.8 0.4 1.3-0.2 0.3-0.5 0.5-0.9 0.5zm-6.9-4q-0.3 0-0.5-0.1l-3.5-2c-0.4-0.3-0.6-0.9-0.3-1.4 0.3-0.5 0.9-0.7 1.3-0.4l3.5 2c0.5 0.3 0.6 0.9 0.4 1.4-0.2 0.3-0.6 0.5-0.9 0.5zm-6.9-4q-0.3 0-0.5-0.2l-3.5-2c-0.5-0.2-0.6-0.9-0.3-1.3 0.2-0.5 0.9-0.7 1.3-0.4l3.5 2c0.5 0.3 0.6 0.9 0.3 1.4-0.1 0.3-0.5 0.5-0.8 0.5zm-6.9-4q-0.3 0-0.5-0.2l-3.5-2c-0.5-0.3-0.6-0.9-0.4-1.3 0.3-0.5 0.9-0.7 1.4-0.4l3.5 2c0.4 0.3 0.6 0.9 0.3 1.4-0.2 0.3-0.5 0.5-0.8 0.5zm-6.9-4.1q-0.3 0-0.6-0.1l-3.4-2c-0.5-0.3-0.7-0.9-0.4-1.4 0.3-0.4 0.9-0.6 1.4-0.3l3.5 2c0.4 0.3 0.6 0.9 0.3 1.3-0.2 0.4-0.5 0.5-0.8 0.5zm-7-4q-0.2 0-0.5-0.1l-3.4-2c-0.5-0.3-0.7-0.9-0.4-1.4 0.3-0.5 0.9-0.6 1.4-0.3l3.4 2c0.5 0.2 0.7 0.9 0.4 1.3-0.2 0.3-0.5 0.5-0.9 0.5zm-6.9-4q-0.2 0-0.5-0.1l-3.4-2c-0.5-0.3-0.7-0.9-0.4-1.4 0.3-0.5 0.9-0.6 1.4-0.4l3.4 2c0.5 0.3 0.7 0.9 0.4 1.4-0.2 0.3-0.5 0.5-0.9 0.5zm-6.9-4q-0.3 0-0.5-0.1l-3.5-2.1c-0.4-0.2-0.6-0.8-0.3-1.3 0.3-0.5 0.9-0.7 1.3-0.4l3.5 2c0.5 0.3 0.6 0.9 0.4 1.4-0.2 0.3-0.6 0.5-0.9 0.5zm-6.9-4q-0.3 0-0.5-0.2l-3.5-2c-0.5-0.2-0.6-0.9-0.3-1.3 0.2-0.5 0.8-0.7 1.3-0.4l3.5 2c0.5 0.3 0.6 0.9 0.3 1.4-0.1 0.3-0.5 0.5-0.8 0.5zm-6.9-4q-0.3 0-0.5-0.2l-3.5-2c-0.5-0.3-0.6-0.9-0.4-1.4 0.3-0.4 0.9-0.6 1.4-0.3l3.5 2c0.4 0.3 0.6 0.9 0.3 1.4-0.2 0.3-0.5 0.5-0.8 0.5zm-7-4.1q-0.2 0-0.5-0.1l-3.4-2c-0.5-0.3-0.7-0.9-0.4-1.4 0.3-0.5 0.9-0.6 1.4-0.3l3.4 2c0.5 0.2 0.7 0.9 0.4 1.3-0.2 0.4-0.5 0.5-0.9 0.5zm-6.9-4q-0.2 0-0.5-0.1l-3.4-2c-0.5-0.3-0.7-0.9-0.4-1.4 0.3-0.5 0.9-0.6 1.4-0.4l3.4 2.1c0.5 0.2 0.7 0.8 0.4 1.3-0.2 0.3-0.5 0.5-0.9 0.5z"/>
			<path id="&lt;Compound Path&gt;" class="s0" d="m114.4 444.2l-3.4-2c-0.5-0.3-0.6-0.9-0.4-1.4 0.3-0.5 0.9-0.6 1.4-0.4l3.5 2.1c0.4 0.2 0.6 0.9 0.3 1.3-0.2 0.4-0.5 0.5-0.8 0.5q-0.3 0-0.6-0.1zm-6.8-4.1l-3.5-2c-0.5-0.3-0.6-0.9-0.3-1.4 0.2-0.4 0.8-0.6 1.3-0.3l3.5 2c0.4 0.3 0.6 0.9 0.3 1.4-0.2 0.3-0.5 0.5-0.8 0.5q-0.3 0-0.5-0.2zm-6.9-4l-3.5-2.1c-0.5-0.2-0.6-0.8-0.3-1.3 0.2-0.5 0.9-0.7 1.3-0.4l3.5 2c0.4 0.3 0.6 0.9 0.3 1.4-0.2 0.3-0.5 0.5-0.8 0.5q-0.3 0-0.5-0.1zm-6.9-4.1l-3.5-2c-0.5-0.3-0.6-0.9-0.3-1.4 0.2-0.5 0.9-0.6 1.3-0.3l3.5 2c0.5 0.3 0.6 0.9 0.3 1.4-0.2 0.3-0.5 0.5-0.8 0.5q-0.3 0-0.5-0.2zm-6.9-4l-3.5-2.1c-0.4-0.3-0.6-0.9-0.3-1.3 0.3-0.5 0.9-0.7 1.3-0.4l3.5 2c0.5 0.3 0.6 0.9 0.3 1.4-0.1 0.3-0.5 0.5-0.8 0.5q-0.3 0-0.5-0.1zm-5.8-5.9v-4c0-0.5 0.4-1 1-1 0.5 0 1 0.5 1 1v4c0 0.6-0.5 1-1 1-0.6 0-1-0.4-1-1zm0-8v-4c0-0.5 0.4-1 1-1 0.5 0 1 0.5 1 1v4c0 0.6-0.5 1-1 1-0.6 0-1-0.4-1-1zm0-8v-4c0-0.5 0.4-1 1-1 0.5 0 1 0.5 1 1v4c0 0.6-0.5 1-1 1-0.6 0-1-0.4-1-1zm0-8v-4c0-0.5 0.4-1 1-1 0.5 0 1 0.5 1 1v4c0 0.6-0.5 1-1 1-0.6 0-1-0.4-1-1zm0-8v-4c0-0.5 0.4-1 1-1 0.5 0 1 0.5 1 1v4c0 0.6-0.5 1-1 1-0.6 0-1-0.4-1-1zm0-8v-4c0-0.5 0.4-1 1-1 0.5 0 1 0.5 1 1v4c0 0.6-0.5 1-1 1-0.6 0-1-0.4-1-1zm0-8v-5.2c0-0.4 0.2-0.7 0.5-0.9l2.4-1.4c0.4-0.3 1.1-0.1 1.3 0.4 0.3 0.5 0.2 1.1-0.3 1.3l-1.9 1.1v4.7c0 0.6-0.5 1-1 1-0.6 0-1-0.4-1-1zm6-8.1c-0.3-0.5-0.1-1.1 0.3-1.4l3.5-2c0.5-0.3 1.1-0.1 1.4 0.4 0.2 0.4 0.1 1-0.4 1.3l-3.5 2q-0.2 0.2-0.5 0.2c-0.3 0-0.6-0.2-0.8-0.5zm6.9-4c-0.3-0.5-0.1-1.1 0.3-1.4l3.5-2c0.5-0.3 1.1-0.1 1.4 0.3 0.3 0.5 0.1 1.1-0.4 1.4l-3.4 2q-0.3 0.2-0.5 0.2c-0.4 0-0.7-0.2-0.9-0.5zm6.9-4.1c-0.3-0.4-0.1-1.1 0.4-1.3l3.4-2c0.5-0.3 1.1-0.2 1.4 0.3 0.3 0.5 0.1 1.1-0.4 1.4l-3.4 2q-0.3 0.1-0.5 0.1c-0.4 0-0.7-0.1-0.9-0.5z"/>
			<g id="&lt;Group&gt;" style="mix-blend-mode: screen">
				<g id="&lt;Group&gt;">
					<g id="&lt;Group&gt;">
						<path id="&lt;Compound Path&gt;" fill-rule="evenodd" class="s1" d="m484.8 487.6l-59.1-34.1 59.2-34.2 59.1 34.2zm0.1-66l-55.1 31.8 55 31.8 55.1-31.8z"/>
						<path id="&lt;Path&gt;" class="s1" d="m476.5 492.2l-58.9-34 2.4-1.4 58.9 34z"/>
						<path id="&lt;Path&gt;" class="s1" d="m469.7 496.1l-58.9-34 2.4-1.4 58.9 34z"/>
						<path id="&lt;Path&gt;" class="s1" d="m435.3 484.3l-31.4-18.2 2.4-1.3 31.3 18.1z"/>
					</g>
					<g id="&lt;Group&gt;">
						<path id="&lt;Compound Path&gt;" fill-rule="evenodd" class="s1" d="m561.1 531.7l-59.1-34.1 59.2-34.2 59.1 34.1zm0.1-65.9l-55.1 31.8 55 31.7 55.1-31.8z"/>
						<path id="&lt;Path&gt;" class="s1" d="m552.8 536.2l-58.9-34 2.4-1.4 58.9 34z"/>
						<path id="&lt;Path&gt;" class="s1" d="m546 540.2l-58.9-34 2.4-1.4 58.9 34z"/>
						<path id="&lt;Path&gt;" class="s1" d="m511.5 528.3l-31.3-18.1 2.3-1.4 31.4 18.1z"/>
					</g>
				</g>
				<g id="&lt;Group&gt;">
					<g id="&lt;Group&gt;">
						<path id="&lt;Compound Path&gt;" fill-rule="evenodd" class="s1" d="m382.4 546.8l-59.1-34.1 59.2-34.2 59.1 34.1zm0.1-65.9l-55.1 31.8 55 31.7 55.1-31.8z"/>
						<path id="&lt;Path&gt;" class="s1" d="m374.1 551.3l-58.9-34 2.4-1.3 58.9 33.9z"/>
						<path id="&lt;Path&gt;" class="s1" d="m367.2 555.3l-58.8-34 2.3-1.4 58.9 34z"/>
						<path id="&lt;Path&gt;" class="s1" d="m332.8 543.4l-31.4-18.1 2.4-1.4 31.4 18.1z"/>
					</g>
					<g id="&lt;Group&gt;">
						<path id="&lt;Compound Path&gt;" fill-rule="evenodd" class="s1" d="m458.7 590.8l-59.1-34.1 59.2-34.2 59.1 34.2zm0.1-66l-55.1 31.8 55 31.8 55-31.8z"/>
						<path id="&lt;Path&gt;" class="s1" d="m450.4 595.4l-58.9-34 2.4-1.4 58.8 34z"/>
						<path id="&lt;Path&gt;" class="s1" d="m443.5 599.3l-58.9-34 2.4-1.4 58.9 34z"/>
						<path id="&lt;Path&gt;" class="s1" d="m409.1 587.5l-31.4-18.2 2.4-1.3 31.4 18.1z"/>
					</g>
				</g>
				<g id="&lt;Group&gt;">
					<g id="&lt;Group&gt;">
						<path id="&lt;Compound Path&gt;" fill-rule="evenodd" class="s1" d="m279.5 606.2l-59.1-34.1 59.2-34.2 59.1 34.1zm0.1-65.9l-55.1 31.8 55 31.8 55-31.9z"/>
						<path id="&lt;Path&gt;" class="s1" d="m271.2 610.7l-58.9-34 2.4-1.3 58.8 34z"/>
						<path id="&lt;Path&gt;" class="s1" d="m264.3 614.7l-58.9-34 2.4-1.4 58.9 34z"/>
						<path id="&lt;Path&gt;" class="s1" d="m229.9 602.8l-31.4-18.1 2.4-1.4 31.4 18.1z"/>
					</g>
					<g id="&lt;Group&gt;">
						<path id="&lt;Compound Path&gt;" fill-rule="evenodd" class="s1" d="m355.8 650.3l-59.1-34.2 59.1-34.1 59.2 34.1zm0.1-66l-55.1 31.9 54.9 31.7 55.1-31.8z"/>
						<path id="&lt;Path&gt;" class="s1" d="m347.4 654.8l-58.8-34 2.4-1.4 58.8 34z"/>
						<path id="&lt;Path&gt;" class="s1" d="m340.6 658.7l-58.9-34 2.4-1.3 58.9 34z"/>
						<path id="&lt;Path&gt;" class="s1" d="m306.2 646.9l-31.4-18.2 2.4-1.3 31.4 18.1z"/>
					</g>
				</g>
				<g id="&lt;Group&gt;">
					<path id="&lt;Compound Path&gt;" class="s1" d="m515.1 394.2l20.2 11.7c0.8 0.5 2.2 0.5 3 0 0.8-0.5 0.8-1.3 0-1.8l-20.2-11.6c-0.8-0.5-2.1-0.5-3 0-0.8 0.5-0.8 1.3 0 1.7zm18.1 12.9l-20.1-11.7c-0.8-0.4-2.2-0.4-3 0-0.8 0.5-0.8 1.3 0 1.8l20.1 11.6c0.9 0.5 2.2 0.5 3 0 0.9-0.5 0.9-1.3 0-1.7zm-5 2.9l-20.2-11.7c-0.8-0.4-2.1-0.4-3 0-0.8 0.5-0.8 1.3 0 1.8l20.2 11.6c0.8 0.5 2.2 0.5 3 0 0.8-0.5 0.8-1.2 0-1.7z"/>
					<path id="&lt;Compound Path&gt;" fill-rule="evenodd" class="s1" d="m306.7 683.5l-143.9-83.1c-9.4-5.5-9.5-14.3-0.1-19.8l338.8-195.6c9.4-5.4 24.8-5.4 34.3 0.1l143.8 83.1c9.5 5.4 9.6 14.3 0.2 19.7l-338.8 195.6c-9.4 5.5-24.8 5.4-34.3 0zm227.7-297.6c-8.7-5.1-22.8-5.1-31.5-0.1l-338.8 195.6c-8.6 5-8.6 13.2 0.1 18.2l143.9 83.1c8.7 5 22.8 5 31.5 0l338.8-195.6c8.6-5 8.6-13.1-0.1-18.2z"/>
					<path id="&lt;Path&gt;" class="s1" d="m652.8 478.1c0 0.6-0.9 1.1-2 1.1-1.1 0-1.9-0.5-1.9-1.1 0-0.7 0.8-1.2 1.9-1.2 1.1 0 1.9 0.5 2 1.2z"/>
					<g id="&lt;Group&gt;">
						<path id="&lt;Path&gt;" class="s1" d="m649.8 469.1q-0.2 0-0.3 0v1.1q0.1 0 0.3 0c8 0 14.6 3.8 14.6 8.4q0 0.1 0 0.1h1.9q0 0 0-0.1c0-5.2-7.4-9.5-16.5-9.5z"/>
						<path id="&lt;Path&gt;" class="s1" d="m649.8 473.6q-0.1 0-0.3 0v1.1q0.2 0 0.3 0c3.8 0 6.8 1.8 6.8 3.9q0 0 0 0.1h2q0-0.1 0-0.1c0-2.7-4-5-8.8-5z"/>
						<path id="&lt;Path&gt;" class="s1" d="m649.8 471.3q-0.2 0-0.3 0v1.2q0.2 0 0.3 0c5.9 0 10.7 2.7 10.7 6.1q0 0.1 0 0.1h1.9q0 0 0-0.1c0-4-5.6-7.2-12.6-7.3z"/>
					</g>
					<path id="&lt;Path&gt;" class="s1" d="m612.4 457.4l-58.1-33.5 3.8-2.2 58 33.6z"/>
				</g>
			</g>
			<g id="&lt;Group&gt;">
				<g id="&lt;Group&gt;" style="opacity: .2">
					<path id="&lt;Path&gt;" class="s2" d="m290.8 656.8c10 0 19.1-2.2 26.3-6.3l366.6-211c9.6-5.5 15.1-14.3 15.1-24.1 0-10.6-6.7-20.6-18.2-27.3l-158.1-91.2c-9.1-5.3-20.4-8.2-32-8.2-10 0-19.1 2.2-26.3 6.4l-366.5 211c-9.6 5.5-15.1 14.3-15.1 24 0 10.7 6.6 20.6 18.2 27.3l158.1 91.3c9 5.2 20.4 8.1 31.9 8.1z"/>
					<path id="&lt;Path&gt;" class="s3" d="m464.5 295.7l-366.5 211c-9.2 5.3-14.5 13.7-14.4 22.9 0 10.2 6.4 19.6 17.5 26l150.9 87.2c0.3 0.1 7.7 4.4 8 4.5 9.3 5 20.8 7.6 32.1 7.2 9.1 0 19.4-3.2 25.9-7l364.6-209.8c9.2-5.3 14.4-13.7 14.4-22.9-0.1-10.2-6.4-19.6-17.5-26l-157.2-90.8c-3.3-1.9-7.8-3.9-11.6-5.1-6.3-2.1-13.1-3.2-20-3.3-10-0.1-19.1 2-26.2 6.1z"/>
					<path id="&lt;Path&gt;" class="s4" d="m464.8 296.3l-366.5 211c-8.9 5.1-13.8 13.1-13.7 21.9 0.1 9.5 6.1 18.5 16.7 24.6l151.8 87.6c0.4 0.3 7.4 4.2 7.9 4.4 9.6 5 21.4 7.2 32.4 6.3 8.2 0 19.7-4.1 25.6-7.5l362.5-208.7c8.8-5.1 13.7-13 13.7-21.8-0.1-9.6-6.2-18.6-16.8-24.7l-156.2-90.2c-3-1.7-8.1-4.1-11.6-5.2-6.1-2.1-12.9-3.4-19.7-3.6-9.9-0.1-19 1.9-26.1 5.9z"/>
					<path id="&lt;Path&gt;" class="s5" d="m465.1 297l-366.5 211c-8.5 4.8-13.2 12.4-13 20.7 0.1 9 5.9 17.5 16 23.4l152.5 88c0.7 0.4 7.2 4 8 4.3 9.8 4.8 21.8 6.7 32.6 5.3 7.3 0 20-5 25.2-8.1l360.5-207.5c8.4-4.8 13.1-12.4 13-20.7-0.2-9-6-17.5-16.1-23.4l-155.3-89.6c-2.6-1.5-8.4-4.3-11.4-5.3-6.1-2.1-12.8-3.6-19.6-3.8-9.8-0.3-18.9 1.6-25.9 5.7z"/>
					<path id="&lt;Path&gt;" class="s6" d="m465.4 297.6l-366.5 211c-8.1 4.7-12.5 11.8-12.3 19.6 0.1 8.5 5.6 16.5 15.3 22.1l153.2 88.4c0.9 0.5 7 3.9 8.1 4.2 10 4.7 22.3 6.3 32.8 4.5 6.4 0 20.2-6.1 24.8-8.7l358.5-206.3c8.1-4.7 12.4-11.9 12.3-19.7-0.2-8.4-5.7-16.4-15.4-22l-154.3-89.1c-2.3-1.4-8.7-4.5-11.3-5.5-6.1-2.1-12.7-3.7-19.4-4-9.7-0.3-18.9 1.5-25.8 5.5z"/>
					<path id="&lt;Path&gt;" class="s7" d="m465.7 298.2l-366.6 211c-7.7 4.5-11.8 11.2-11.5 18.5 0.2 7.9 5.4 15.5 14.6 20.8l153.9 88.8c1.2 0.7 6.8 3.7 8.2 4.2 10.3 4.5 22.7 5.8 33 3.5 5.4 0 20.5-7 24.4-9.3l356.5-205.1c7.7-4.5 11.8-11.2 11.5-18.5-0.2-7.9-5.4-15.5-14.6-20.8l-153.4-88.6c-2-1.1-8.9-4.6-11.1-5.5-6-2.1-12.5-3.9-19.3-4.2-9.6-0.5-18.8 1.3-25.6 5.2z"/>
					<path id="&lt;Path&gt;" class="s7" d="m466 298.9l-366.6 211c-7.3 4.2-11.1 10.5-10.8 17.4 0.2 7.3 5.2 14.4 13.9 19.4l154.6 89.2c1.4 0.9 6.6 3.6 8.3 4.1 10.5 4.4 23.2 5.4 33.2 2.7 4.5 0 20.8-8 24-9.9l354.5-204c7.3-4.2 11.1-10.6 10.8-17.4-0.2-7.3-5.2-14.4-13.9-19.5l-152.5-88c-1.6-0.9-9.1-4.9-11-5.6-5.9-2.2-12.3-4-19-4.4-9.5-0.6-18.7 1.1-25.5 5z"/>
					<path id="&lt;Path&gt;" class="s8" d="m466.3 299.5l-366.6 211c-6.9 4-10.5 9.9-10.1 16.3 0.3 6.8 4.9 13.3 13.2 18.1l155.3 89.7c1.7 1 6.4 3.4 8.4 4 10.7 4.2 23.6 4.9 33.4 1.7 3.6 0 21.1-8.9 23.7-10.5l352.4-202.8c6.9-4 10.5-9.9 10.1-16.3-0.3-6.8-4.9-13.3-13.2-18.1l-151.5-87.5c-1.3-0.8-9.4-5.1-10.9-5.7-5.8-2.2-12.2-4.2-18.8-4.7-9.5-0.7-18.7 0.9-25.4 4.8z"/>
					<path id="&lt;Path&gt;" class="s9" d="m466.6 300.1l-366.6 211c-6.5 3.8-9.8 9.3-9.4 15.2 0.3 6.2 4.7 12.3 12.5 16.8l156 90.1c1.9 1.1 6.2 3.3 8.5 4 10.9 4 24.1 4.4 33.5 0.7 2.8 0 21.4-9.9 23.4-11l350.4-201.7c6.5-3.8 9.8-9.3 9.4-15.2-0.3-6.2-4.7-12.3-12.5-16.8l-150.6-86.9c-0.9-0.6-9.6-5.3-10.7-5.8-5.8-2.3-12.1-4.4-18.7-4.9-9.4-0.8-18.6 0.7-25.2 4.5z"/>
					<path id="&lt;Path&gt;" class="s10" d="m466.9 300.8l-366.6 211c-6.2 3.5-9.1 8.6-8.7 14 0.4 5.7 4.5 11.3 11.8 15.6l156.7 90.4c2.2 1.3 6 3.1 8.6 3.9 11.2 3.9 24.5 4 33.7-0.1 1.9 0 21.7-10.9 23-11.6l348.4-200.6c6.2-3.5 9.1-8.7 8.7-14-0.4-5.7-4.5-11.3-11.8-15.6l-149.6-86.3c-0.7-0.4-9.9-5.6-10.7-5.9-5.7-2.3-11.9-4.6-18.4-5.2-9.3-0.9-18.6 0.6-25.1 4.4z"/>
					<path id="&lt;Path&gt;" class="s11" d="m467.2 301.4l-366.6 211c-5.8 3.3-8.5 8.1-8.1 13 0.5 5.1 4.3 10.2 11.2 14.2l157.4 90.9c2.4 1.4 5.8 2.9 8.6 3.8 11.5 3.7 25.1 3.5 34-1.1 0.9 0 22-11.8 22.6-12.2l346.4-199.3c5.8-3.4 8.5-8.1 8-13-0.4-5.1-4.2-10.3-11.1-14.2l-148.7-85.9c-0.3-0.2-10.1-5.7-10.5-5.9-5.6-2.4-11.8-4.8-18.3-5.4-9.2-1-18.4 0.3-24.9 4.1z"/>
					<path id="&lt;Path&gt;" class="s12" d="m305 630.9l366.6-211c11-6.4 9.6-17.5-3.1-24.8l-158.1-91.3c-12.7-7.3-31.9-8.1-42.9-1.8l-366.6 211c-11 6.4-9.6 17.5 3.1 24.8l158.1 91.3c12.7 7.3 31.9 8.1 42.9 1.8z"/>
				</g>
				<path id="&lt;Path&gt;" class="s13" d="m253.1 592.2l-147.8-85.3c-16.7-9.7-14.6-26.5 4.6-37.6l347.6-200.7c19.3-11.1 48.4-12.3 65.1-2.7l147.8 85.4c16.7 9.6 14.6 26.4-4.7 37.5l-347.6 200.7c-19.2 11.1-48.3 12.3-65 2.7z"/>
				<path id="&lt;Path&gt;" class="s14" d="m253.1 589.7l-147.8-85.4c-7.5-4.3-11.2-10-11.3-16 0-0.6 0-12.2 0.1-12.7 0.6-7 6-3.1 15.8-8.8l347.6-200.7c19.3-11.1 48.4-12.3 65.1-2.7l147.8 85.3c7.4 4.3 11.1-3.2 11.3 2.8 0 0.5-0.1 14.3-0.1 14.9-0.6 6.9-6 14.2-15.9 19.9l-347.6 200.7c-19.2 11.1-48.3 12.3-65 2.7z"/>
				<path id="&lt;Path&gt;" class="s15" d="m253.1 577l-147.8-85.3c-16.7-9.7-14.6-26.5 4.6-37.6l347.6-200.7c19.3-11.1 48.4-12.3 65.1-2.7l147.8 85.4c16.7 9.6 14.6 26.4-4.7 37.5l-347.6 200.7c-19.2 11.1-48.3 12.3-65 2.7z"/>
				<path id="&lt;Path&gt;" class="s16" d="m105.3 490l147.8 85.3c16.7 9.7 45.8 8.5 65-2.7l347.6-200.6c10.2-5.9 15.5-13.3 15.9-20.5 0.4 7.7-4.9 15.8-15.9 22.1l-347.6 200.7c-19.2 11.1-48.3 12.3-65 2.7l-147.8-85.3c-7.9-4.6-11.6-10.8-11.3-17.2 0.4 5.8 4.1 11.3 11.3 15.5z"/>
				<path id="&lt;Path&gt;" class="s17" d="m113.9 456.6l348-200.9c16.8-9.8 42.4-10.8 57-2.4l147 84.9c14.6 8.4 12.8 23.2-4.1 32.9l-348 200.9c-16.9 9.8-42.4 10.8-57 2.4l-147-84.9c-14.7-8.4-12.8-23.2 4.1-32.9z"/>
				<path id="&lt;Path&gt;" class="s18" d="m120.6 459.5l346.3-199.9c14.1-8.2 35.5-9.1 47.7-2l143.9 83.1c12.2 7 10.7 19.4-3.4 27.5l-346.3 199.9c-14.1 8.2-35.5 9.1-47.7 2l-143.9-83.1c-12.3-7-10.7-19.4 3.4-27.5z"/>
				<path id="&lt;Path&gt;" class="s19" d="m513.3 260.2c-11.5-6.6-30.1-6.7-41.6 0l-350.1 202.1c-11.4 6.6-11.4 17.4 0.2 24l140.5 81.2c11.6 6.6 30.2 6.7 41.6 0.1l350.1-202.2c11.5-6.6 11.4-17.3-0.1-24z"/>
				<path id="&lt;Path&gt;" class="s20" d="m283.3 569.6c7.3 0 14.1-1.6 19.2-4.5l350.1-202.1c4.6-2.7 7.1-6.1 7.1-9.5 0-3.5-2.5-6.9-7.2-9.6l-140.6-81.2c-5.2-3-12.1-4.6-19.5-4.6-7.3 0-14.2 1.6-19.3 4.5l-350 202.2c-4.6 2.6-7.2 6-7.2 9.4 0 3.5 2.6 7 7.3 9.7l140.5 81.1c5.2 3 12.1 4.6 19.6 4.6z"/>
				<path id="&lt;Path&gt;" class="s21" d="m600.1 422.6l16.1-9.3c2-1.1 3.6-4.3 3.6-6.9 0-2.7-1.6-4-3.6-2.8l-16.1 9.3c-2 1.2-3.7 4.3-3.7 7 0 2.6 1.7 3.9 3.7 2.7z"/>
				<path id="&lt;Path&gt;" class="s22" d="m600.1 422.6l16.1-9.3c2-1.1 3.6-4.3 3.6-6.9 0-2.7-1.6-4-3.6-2.8l-16.1 9.3c-2 1.2-3.7 4.3-3.7 7 0 2.6 1.7 3.9 3.7 2.7z"/>
				<path id="&lt;Path&gt;" class="s23" d="m598.6 422.1q0.5 0 1-0.3l16.1-9.3c1.7-1 3.2-3.8 3.2-6.1 0-1.1-0.3-2.3-1.3-2.3q-0.4 0-0.9 0.3l-16.1 9.3c-1.8 1-3.2 3.8-3.2 6.2 0 1 0.3 2.2 1.2 2.2z"/>
				<path id="&lt;Path&gt;" class="s24" d="m571.3 439.2l16.1-9.3c2-1.1 3.7-4.3 3.7-6.9 0-2.7-1.7-3.9-3.7-2.8l-16.1 9.3c-2 1.2-3.6 4.3-3.6 7 0 2.7 1.6 3.9 3.6 2.7z"/>
				<path id="&lt;Path&gt;" class="s25" d="m571.3 439.2l16.1-9.3c2-1.1 3.7-4.3 3.7-6.9 0-2.7-1.7-3.9-3.7-2.8l-16.1 9.3c-2 1.2-3.6 4.3-3.6 7 0 2.7 1.6 3.9 3.6 2.7z"/>
				<path id="&lt;Path&gt;" class="s26" d="m569.9 438.7q0.4 0 0.9-0.3l16.2-9.3c1.7-1 3.1-3.8 3.1-6.1 0-1.1-0.3-2.3-1.2-2.3q-0.5 0-1 0.3l-16.1 9.3c-1.7 1-3.2 3.8-3.2 6.2 0 1 0.3 2.2 1.3 2.2z"/>
				<path id="&lt;Path&gt;" class="s27" d="m430.9 509.5l234.8-136.2c9.9-5.7 15.3-12.9 15.9-19.9 0-0.3 0-3.1 0-6.2 0 0.1 0 14.5 0 15-0.6 7-6 14.2-15.9 20z"/>
				<path id="&lt;Path&gt;" class="s28" d="m446.8 483.4c14.9 35.9 70.8 46.6 124.8 24.1 54-22.6 85.7-69.9 70.7-105.7-15-35.9-70.9-46.7-124.9-24.1-54 22.5-85.6 69.9-70.7 105.7z"/>
				<path id="&lt;Path&gt;" class="s29" d="m239.1 567.5c-7.7 18.7 8.9 43.3 37.1 54.8 28.1 11.6 57.2 5.8 64.9-12.9 7.7-18.6-8.9-43.2-37.1-54.8-28.2-11.5-57.2-5.8-64.9 12.9z"/>
				<path id="&lt;Path&gt;" class="s12" d="m165.7 538.2l26.4 15.2c0-4.8-2.9-10.4-6.5-12.5l-13.4-7.7c-3.6-2.1-6.5 0.1-6.5 5z"/>
				<path id="&lt;Compound Path&gt;" fill-rule="evenodd" class="s30" d="m175.2 466.5q2.4 0 4.5 1.2 2.6 1.5 2.6 3.5c0.1 1.5-1 2.5-1.8 3.2-0.2 0.6-0.6 1.1-1.3 1.5q-0.7 0.4-1.7 0.4-0.5 0-1-0.1-1.1 0.2-2.3 0.2 0.1 0.1 0.1 0.2c0.8 0.7 1.2 1.7 1.1 2.6-0.1 1.1-0.8 2-1.9 2.7l-2.2 1.2q-0.7 0.4-1.6 0.4-0.9 0-1.6-0.4l-11.8-6.8c-0.7-0.4-1.2-1.1-1.2-1.9 0-0.7 0.5-1.4 1.2-1.8l2.2-1.3c0.9-0.5 2.2-0.8 3.5-0.8 0.9 0 1.8 0.1 2.5 0.4 0.9 0.3 1.9 0.5 3 0.5q0.1-0.5 0.3-0.9-0.1-0.4-0.1-0.8c0.1-0.7 0.5-1.3 1.1-1.7 0.6-0.3 1.3-0.5 2-0.5q0.1 0 0.2 0 2.2-1 4.2-1zm-3.9 2.7q-0.3-0.1-0.5-0.1c-0.4 0-0.8 0.1-1.2 0.3-0.5 0.3-0.3 0.8 0 1.1-0.4 0.6-0.6 1.2-0.6 1.7 0 0.5-0.6 0.8-1.3 0.8q-0.1 0-0.1 0c-1.2 0-2.5-0.2-3.6-0.6-0.6-0.2-1.3-0.3-2-0.3-1 0-2 0.2-2.7 0.6l-2.2 1.3c-0.5 0.2-0.5 0.7 0 0.9l11.8 6.9c0.2 0.1 0.5 0.1 0.8 0.1 0.3 0 0.6 0 0.8-0.1l2.2-1.3c1.3-0.8 1.5-1.9 0.6-2.8-0.7-0.6-1.1-1.3-1.1-2-0.1-0.5 0.6-0.8 1.3-0.8 1 0 2.1-0.1 3-0.4 0.3 0.1 0.7 0.2 1 0.2 0.4 0 0.7-0.1 0.9-0.2 0.5-0.3 0.7-0.7 0.5-0.9 2-1.3 2.9-2.8 0-4.5-1.2-0.7-2.5-1-3.7-1-1.4 0-2.7 0.4-3.9 1.1z"/>
				<path id="&lt;Compound Path&gt;" fill-rule="evenodd" class="s30" d="m281.5 531.2l1 1q0.4 0 0.7 0 0.4 0 0.7 0l1.1-1c0.3-0.3 0.7-0.5 1.1-0.5q0.1 0.1 0.2 0.1 1.6 0.2 3.1 0.7c0.4 0.1 0.7 0.5 0.9 0.9 0.2 0.4 0.2 0.8 0 1.2l-0.1 0.3q0.1 0.1 0.2 0.2l2.2-0.3q0.1-0.1 0.3-0.1c0.4 0 0.8 0.2 1.1 0.5q1 1 1.5 2.1c0.2 0.4 0.2 0.9 0 1.3-0.2 0.4-0.5 0.7-1 0.9l-0.3 0.1 0.4 0.1c0.4 0.2 0.7 0.5 0.9 0.9 0.2 0.4 0.2 0.9 0 1.3q-0.5 1.1-1.5 2c-0.3 0.3-0.7 0.5-1.1 0.5q-0.1 0-0.2 0l-2.3-0.3q-0.1 0-0.2 0.1l0.2 0.3c0.1 0.4 0.1 0.9 0 1.3-0.2 0.4-0.6 0.7-1 0.8q-1.4 0.5-3 0.8-0.2 0-0.3 0c-0.4 0-0.8-0.2-1.1-0.5l-1-1q-0.4 0.1-0.7 0.1-0.3 0-0.7-0.1l-1 1c-0.3 0.3-0.7 0.5-1.1 0.5q-0.2 0-0.3-0.1-1.6-0.2-3-0.7c-0.4-0.1-0.8-0.4-1-0.8-0.2-0.4-0.2-0.9 0-1.3l0.1-0.3q-0.1-0.1-0.2-0.1l-2.2 0.3q-0.1 0-0.2 0c-0.5 0-0.9-0.2-1.2-0.5q-0.9-0.9-1.4-2.1c-0.2-0.4-0.2-0.8-0.1-1.3 0.2-0.4 0.6-0.7 1-0.8l0.3-0.2-0.3-0.1c-0.5-0.1-0.8-0.5-1-0.9-0.2-0.4-0.2-0.8 0-1.3q0.5-1.1 1.5-2c0.3-0.3 0.7-0.5 1.1-0.5q0.1 0 0.3 0l2.2 0.3q0.1 0 0.2-0.1l-0.2-0.3c-0.1-0.4-0.1-0.9 0.1-1.3 0.1-0.4 0.5-0.7 0.9-0.8q1.4-0.5 3.1-0.7 0.1-0.1 0.2-0.1c0.4 0 0.8 0.2 1.1 0.5zm-3.9 1.8l0.7 1.7q-0.5 0.2-0.9 0.4-0.5 0.3-0.9 0.6l-2.9-0.4q-0.7 0.8-1.1 1.6l2.5 0.9q-0.2 0.7 0 1.5l-2.5 0.9q0.4 0.8 1.2 1.6l2.9-0.4q0.3 0.3 0.8 0.5 0.5 0.3 1 0.5l-0.7 1.7q1.3 0.4 2.8 0.7l1.5-1.5q0.7 0.1 1.3 0.1 0.6 0 1.3-0.1l1.5 1.5q1.5-0.2 2.8-0.7l-0.7-1.7q0.5-0.2 1-0.4 0.4-0.3 0.8-0.6l2.9 0.4q0.8-0.8 1.1-1.6l-2.5-0.9q0.2-0.7 0-1.5l2.5-0.9q-0.4-0.8-1.1-1.6l-2.9 0.4q-0.4-0.3-0.9-0.5-0.4-0.3-0.9-0.5l0.6-1.7q-1.3-0.4-2.7-0.7l-1.6 1.5q-0.6 0-1.3 0-0.6 0-1.2 0l-1.6-1.5q-1.5 0.3-2.8 0.7zm3.3 6.9c-1.3-0.7-1.3-2 0-2.7 0.6-0.4 1.5-0.6 2.3-0.6 0.9 0 1.8 0.2 2.4 0.6 1.3 0.8 1.3 2 0 2.7-0.6 0.4-1.5 0.6-2.3 0.6-0.9 0-1.7-0.2-2.4-0.6zm2.4-1c0.6 0 1.1-0.1 1.5-0.3-0.4-0.2-1-0.4-1.6-0.4-0.5 0-1.1 0.1-1.5 0.3 0.4 0.3 1 0.4 1.6 0.4z"/>
				<path id="&lt;Compound Path&gt;" fill-rule="evenodd" class="s30" d="m199.3 490.1l3.6 2.1c0.3 0.2 0.6 0.5 0.7 0.9l3.7-2.2q0.4-0.2 0.8-0.2 0.5 0 0.8 0.2l3.7 2.1c0.3 0.2 0.5 0.5 0.7 0.8l3.7-2.1q0.4-0.3 0.8-0.3 0.4 0 0.8 0.3l3.6 2c0.5 0.3 0.8 0.9 0.8 1.4 0 0.6-0.3 1.1-0.8 1.4l-14.9 8.6q-0.4 0.2-0.8 0.2-0.4 0-0.8-0.2l-3.6-2.1c-0.4-0.2-0.6-0.5-0.7-0.9q-0.2 0.1-0.4 0.1-0.4 0-0.8-0.2l-3.6-2.1c-0.3-0.2-0.6-0.6-0.7-0.9q-0.2 0-0.4 0-0.4 0-0.8-0.2l-3.6-2.1c-0.5-0.3-0.8-0.8-0.8-1.4 0-0.6 0.3-1.1 0.8-1.4l6.6-3.8q0.4-0.2 0.8-0.2 0.4 0 0.8 0.2zm-1.9 8.4l3.6 2.1 10.8-6.2-3.7-2.1zm5.5 3.2l3.7 2 14.9-8.6-3.7-2.1zm-10.9-6.3l3.6 2.1 6.5-3.8-3.6-2.1z"/>
				<path id="&lt;Compound Path&gt;" fill-rule="evenodd" class="s30" d="m249.3 509.6c1.5 0.8 2.2 1.9 2.4 2.9 1.8 0 3.5 0.4 4.8 1.2 1.6 0.9 2.5 2.3 2.5 3.7 0 1.5-0.9 2.8-2.5 3.7-1.7 1.1-4.8 1.6-9.2 1.6-4.3 0-8.3-0.5-8.5-0.5-0.6-0.1-1.1-0.5-1.3-1.1-0.1-0.3-3-8.6 2.2-11.6 1.3-0.7 3-1.1 4.8-1.1 1.8 0 3.5 0.4 4.8 1.2zm-8.8 1.3c-4.1 2.4-1.5 9.7-1.5 9.7 0 0 4 0.5 8.3 0.5 3.2 0 6.7-0.3 8.4-1.4 2.3-1.2 2.2-3.3 0-4.6-1.1-0.7-2.6-1-4-1q-0.9 0-1.7 0.2c0.6-1.2 0.1-2.5-1.5-3.4-1.1-0.6-2.6-0.9-4-0.9-1.5 0-2.9 0.3-4 0.9z"/>
			</g>
			<g id="&lt;Group&gt;">
				<g id="&lt;Group&gt;">
					<path id="&lt;Path&gt;" class="s2" d="m316.1 520.6c-6.2 0-11.7-1.3-15.9-3.8l-37.8-21.8-37.7-21.8c-5.2-2.9-8.2-7.6-8.2-12.6 0-5.7 3.8-11.1 10.3-14.9 5.5-3.2 12.7-5 19.8-5 6.1 0 11.6 1.3 15.9 3.8l37.8 21.8 37.7 21.7c5.2 3 8.1 7.6 8.1 12.7 0 5.7-3.7 11.1-10.2 14.9-5.5 3.2-12.8 5-19.8 5z"/>
					<path id="&lt;Path&gt;" class="s2" d="m228 446.6c5.4-3.2 12.4-4.9 19.3-4.9 5.1 0 9.8 1 13.6 2.8 0.6 0.2 1.3 0.6 1.9 0.9l36.7 21.2 3.1 1.8 33.7 19.4c2.7 1.6 5.3 4.1 6.6 6.4 0.9 1.8 1.5 3.7 1.6 5.7 0.2 5.5-3.4 10.8-9.8 14.6-5.4 3.1-12.4 4.8-19.3 4.8-5.1 0-9.8-1-13.6-2.8-0.6-0.2-1.3-0.6-1.8-0.9l-36.8-21.2-3.1-1.8-33.6-19.4c-2.8-1.6-5.4-4.1-6.7-6.4-0.9-1.8-1.5-3.7-1.6-5.7-0.2-5.5 3.4-10.8 9.8-14.5z"/>
					<path id="&lt;Path&gt;" class="s3" d="m229.2 447.4c5.3-3 12.1-4.7 18.8-4.7 5 0 9.5 1 13.3 2.7 0.5 0.3 1.2 0.7 1.7 0.9l35.8 20.7 3 1.7 32.8 19c2.4 1.4 5.3 3.9 6.5 6 1 1.8 1.6 3.5 1.8 5.4 0.3 5.3-3 10.6-9.3 14.2-5.3 3-12.1 4.7-18.8 4.7-5 0-9.5-0.9-13.3-2.7-0.5-0.2-1.2-0.6-1.7-0.9l-35.8-20.7-3-1.7-32.8-18.9c-2.5-1.5-5.3-4-6.5-6.1-1-1.7-1.7-3.5-1.8-5.4-0.4-5.3 3-10.5 9.3-14.2z"/>
					<path id="&lt;Path&gt;" class="s3" d="m230.4 448.3c5.1-3 11.8-4.6 18.3-4.6 4.8 0 9.2 1 12.9 2.7 0.4 0.2 1.2 0.6 1.7 0.9l34.8 20.1 2.9 1.7 31.8 18.4c2.2 1.2 5.4 3.9 6.5 5.7 1 1.7 1.7 3.4 1.9 5.2 0.6 5.1-2.6 10.2-8.8 13.8-5.1 2.9-11.8 4.6-18.2 4.5-4.9 0-9.3-0.9-12.9-2.6-0.5-0.3-1.3-0.7-1.7-0.9l-34.8-20.1-2.9-1.7-31.9-18.4c-2.2-1.3-5.3-4-6.5-5.8-0.9-1.6-1.7-3.3-1.9-5.1-0.6-5.1 2.6-10.2 8.8-13.8z"/>
					<path id="&lt;Path&gt;" class="s3" d="m231.6 449.1c5-2.9 11.5-4.4 17.8-4.4 4.7 0 9 1 12.5 2.7 0.4 0.2 1.2 0.6 1.6 0.8l33.8 19.6 2.9 1.6 30.9 17.9c1.9 1.1 5.4 3.9 6.4 5.5 1 1.5 1.8 3.1 2.1 4.8 0.8 4.9-2.2 9.9-8.3 13.5-5 2.8-11.5 4.4-17.8 4.4-4.7-0.1-9-1-12.5-2.7-0.4-0.2-1.2-0.6-1.6-0.9l-33.8-19.5-2.9-1.6-30.9-17.9c-1.9-1.1-5.4-3.9-6.4-5.5-1-1.6-1.8-3.1-2.1-4.8-0.8-4.9 2.2-9.9 8.3-13.5z"/>
					<path id="&lt;Path&gt;" class="s3" d="m232.8 450c4.9-2.8 11.2-4.3 17.3-4.3 4.5 0 8.7 1 12.1 2.6 0.3 0.2 1.2 0.7 1.6 0.9l32.8 18.9 2.8 1.6 30 17.4c1.6 0.9 5.4 3.8 6.3 5.2 1 1.5 1.9 2.9 2.3 4.5 0.9 4.7-1.9 9.7-7.9 13.1-4.8 2.8-11.1 4.3-17.2 4.3-4.6 0-8.7-1-12.1-2.6-0.4-0.2-1.3-0.7-1.6-0.9l-32.8-18.9-2.8-1.6-30-17.4c-1.7-0.9-5.4-3.8-6.3-5.2-1.1-1.5-2-2.9-2.3-4.5-1-4.7 1.8-9.7 7.8-13.1z"/>
					<path id="&lt;Path&gt;" class="s4" d="m234 450.8c4.7-2.7 10.9-4.1 16.8-4.1 4.4 0.1 8.4 1 11.7 2.6 0.3 0.1 1.2 0.7 1.5 0.8l31.9 18.4 2.6 1.6 29.2 16.8c1.3 0.8 5.4 3.8 6.2 4.9 1.1 1.4 2.1 2.7 2.4 4.3 1.2 4.5-1.4 9.3-7.3 12.7-4.7 2.7-10.9 4.2-16.7 4.1-4.4 0-8.5-1-11.8-2.6-0.3-0.1-1.2-0.6-1.5-0.8l-31.9-18.4-2.6-1.5-29.2-16.8c-1.3-0.8-5.4-3.8-6.2-4.9-1-1.5-2-2.8-2.4-4.4-1.2-4.4 1.4-9.3 7.3-12.7z"/>
					<path id="&lt;Path&gt;" class="s4" d="m235.3 451.7c4.5-2.6 10.5-4 16.1-4 4.3 0.1 8.2 1 11.4 2.6 0.2 0.1 1.2 0.6 1.5 0.8l30.8 17.8 2.6 1.5 28.2 16.3c1.1 0.6 5.6 3.7 6.2 4.6 1.1 1.4 2.2 2.6 2.6 4 1.3 4.3-1.1 9-6.9 12.4-4.6 2.6-10.5 4-16.2 3.9-4.2 0-8.2-0.9-11.3-2.5-0.3-0.1-1.3-0.7-1.5-0.8l-30.9-17.8-2.6-1.5-28.2-16.3c-1.1-0.7-5.5-3.8-6.1-4.6-1.1-1.4-2.2-2.6-2.6-4.1-1.4-4.2 1-9 6.9-12.3z"/>
					<path id="&lt;Path&gt;" class="s4" d="m236.5 452.5c4.4-2.5 10.2-3.8 15.6-3.8 4.2 0.1 8 1 11 2.5 0.2 0.1 1.3 0.7 1.4 0.8l29.9 17.3 2.5 1.4 27.3 15.8c0.9 0.5 5.8 3.6 6.1 4.3 1.4 1.1 2.3 2.4 2.8 3.7 1.5 4.1-0.7 8.7-6.4 12-4.5 2.6-10.2 3.9-15.7 3.8-4.1 0-7.9-0.9-11-2.5-0.2 0-1.2-0.6-1.4-0.7l-29.9-17.3-2.5-1.4-27.3-15.8c-0.8-0.5-5.7-3.6-6.1-4.3-1.3-1.1-2.2-2.4-2.7-3.8-1.6-4 0.7-8.7 6.4-12z"/>
					<path id="&lt;Path&gt;" class="s5" d="m237.7 453.4c4.3-2.5 9.8-3.8 15.1-3.7 4 0.1 7.7 1 10.6 2.5 0.1 0 1.3 0.7 1.4 0.7l28.9 16.7 2.4 1.4 26.4 15.3c0.6 0.3 5.8 3.5 6 4 1.4 1 2.4 2.2 2.9 3.5 1.8 3.8-0.3 8.4-5.9 11.6-4.3 2.5-9.9 3.7-15.1 3.7-4-0.1-7.7-1-10.6-2.5-0.2-0.1-1.3-0.7-1.4-0.8l-28.9-16.6-2.4-1.5-26.4-15.2c-0.6-0.3-5.8-3.5-6-4-1.4-1-2.4-2.2-3-3.5-1.7-3.8 0.4-8.4 6-11.6z"/>
					<path id="&lt;Path&gt;" class="s5" d="m238.9 454.3c4.1-2.4 9.5-3.7 14.6-3.6 3.8 0.1 7.4 1 10.2 2.5 0.1 0 1.3 0.7 1.3 0.7l27.9 16.1 2.4 1.4 25.5 14.7c0.3 0.1 5.8 3.4 5.9 3.7 1.5 0.9 2.5 2 3.1 3.2 2 3.7 0.1 8.1-5.4 11.3-4.2 2.4-9.6 3.6-14.7 3.5-3.8-0.1-7.4-1-10.2-2.4-0.1-0.1-1.2-0.7-1.3-0.8l-27.9-16.1-2.4-1.4-25.4-14.7c-0.3-0.1-5.9-3.4-6-3.7-1.4-0.9-2.4-2-3.1-3.2-1.9-3.6 0-8.1 5.5-11.2z"/>
					<path id="&lt;Path&gt;" class="s5" d="m299.3 504.1l-30.5-17.6-30.4-17.5c-6.2-3.6-5.4-9.8 1.7-13.9 7.1-4.1 17.8-4.5 23.9-1l30.5 17.6 30.4 17.6c6.2 3.5 5.4 9.7-1.7 13.8-7.1 4.1-17.8 4.6-23.9 1z"/>
				</g>
				<path id="&lt;Path&gt;" class="s31" d="m303.2 502.1l-75.5-43.6c-7.6-4.4-6.7-12 2.1-17.1 8.8-5.1 22.1-5.6 29.7-1.2l75.5 43.5c7.6 4.4 6.7 12.1-2.1 17.2-8.8 5.1-22.1 5.6-29.7 1.2z"/>
				<path id="&lt;Path&gt;" class="s32" d="m332.9 498.9c-8.8 5.1-22.1 5.6-29.7 1.2l-75.5-43.6c-3.1-1.7-4.7-4-5.1-6.5-0.5 3.2 1.2 6.3 5.1 8.5l75.5 43.6c7.6 4.4 20.9 3.9 29.7-1.2 5.2-3.1 7.7-7 7.1-10.7-0.4 3.1-2.8 6.2-7.1 8.7z"/>
				<g id="&lt;Group&gt;">
					<path id="&lt;Compound Path&gt;" fill-rule="evenodd" class="s33" d="m253.1 462.2q0-0.2 0.3-0.3l14.5-8.4q0.2-0.2 0.5-0.2 0.4 0 0.6 0.2l6.5 3.7q2.7 1.6 2.8 3 0.2 1.4-1.8 2.5-1.2 0.7-2.6 0.9-1.4 0.1-2.5-0.1 0.5 0.7 0.2 1.7-0.3 0.9-1.5 1.6-2.1 1.2-4.8 1.1-2.7 0-5.2-1.5l-6.7-3.9q-0.3-0.1-0.3-0.3zm9 2.6q1.2 0.7 2.4 0.7 1.3 0 2.3-0.6 1-0.6 1-1.3-0.1-0.8-1.2-1.4l-3.7-2.2-4.5 2.6zm6.6-4q1.1 0.6 2.3 0.7 1.2 0 2.1-0.5 1-0.6 0.9-1.2-0.1-0.7-1.3-1.4l-3.5-2-4 2.4z"/>
					<path id="&lt;Compound Path&gt;" class="s33" d="m271.7 471.6q-0.1-1.9 3-3.7l9.1-5.2q0.2-0.2 0.5-0.2 0.3 0 0.6 0.1l2 1.2q0.3 0.2 0.3 0.4 0 0.1-0.3 0.3l-9 5.2q-1.8 1.1-1.9 2.1 0 1 1.5 1.9 1.6 0.9 3.3 0.8 1.8 0 3.5-1l9.1-5.3q0.3-0.1 0.6-0.1 0.3 0 0.5 0.1l2.1 1.2q0.3 0.2 0.3 0.3-0.1 0.2-0.3 0.4l-9.1 5.2q-3.1 1.8-6.3 1.7-3.3 0-6.3-1.8-3.1-1.8-3.2-3.6z"/>
					<path id="&lt;Compound Path&gt;" class="s33" d="m289.9 483.4q0-0.2 0.2-0.3l5-2.9 4.1-8.5q0.1-0.1 0.2-0.2 0.2-0.1 0.4-0.1 0.3 0 0.5 0.1l2 1.2q0.5 0.3 0.3 0.7l-2.7 5.9 10.3-1.6q0.2 0 0.5 0 0.3 0 0.6 0.2l2 1.2q0.2 0.1 0.2 0.2 0 0.2-0.2 0.3-0.1 0.1-0.3 0.1l-14.7 2.3-5 2.9q-0.3 0.2-0.6 0.2-0.3 0-0.5-0.2l-2.1-1.2q-0.2-0.1-0.2-0.3z"/>
				</g>
			</g>
			<g id="&lt;Group&gt;">
				<path id="&lt;Compound Path&gt;" class="s34" d="m244.8 325.4c-0.6 0-1-0.4-1-1v-4c0-0.5 0.4-1 1-1 0.5 0 1 0.5 1 1v4c0 0.6-0.5 1-1 1zm0-8c-0.6 0-1-0.4-1-1v-4c0-0.5 0.4-1 1-1 0.5 0 1 0.5 1 1v4c0 0.6-0.5 1-1 1zm0-8c-0.6 0-1-0.4-1-1v-4c0-0.5 0.4-1 1-1 0.5 0 1 0.5 1 1v4c0 0.6-0.5 1-1 1zm0-8c-0.6 0-1-0.4-1-1v-4c0-0.5 0.4-1 1-1 0.5 0 1 0.5 1 1v4c0 0.6-0.5 1-1 1zm0-8c-0.6 0-1-0.4-1-1v-4c0-0.5 0.4-1 1-1 0.5 0 1 0.5 1 1v4c0 0.6-0.5 1-1 1zm0-8c-0.6 0-1-0.4-1-1v-4c0-0.5 0.4-1 1-1 0.5 0 1 0.5 1 1v4c0 0.6-0.5 1-1 1zm0-8c-0.6 0-1-0.4-1-1v-4c0-0.5 0.4-1 1-1 0.5 0 1 0.5 1 1v4c0 0.6-0.5 1-1 1zm0-8c-0.6 0-1-0.4-1-1v-4c0-0.5 0.4-1 1-1 0.5 0 1 0.5 1 1v4c0 0.6-0.5 1-1 1zm0-8c-0.6 0-1-0.4-1-1v-4c0-0.5 0.4-1 1-1 0.5 0 1 0.5 1 1v4c0 0.6-0.5 1-1 1zm0-8c-0.6 0-1-0.4-1-1v-4c0-0.5 0.4-1 1-1 0.5 0 1 0.5 1 1v4c0 0.6-0.5 1-1 1zm0-8c-0.6 0-1-0.4-1-1v-4c0-0.5 0.4-1 1-1 0.5 0 1 0.5 1 1v4c0 0.6-0.5 1-1 1zm0-8c-0.6 0-1-0.4-1-1v-4c0-0.5 0.4-1 1-1 0.5 0 1 0.5 1 1v4c0 0.6-0.5 1-1 1zm0-8c-0.6 0-1-0.4-1-1v-4c0-0.5 0.4-1 1-1 0.5 0 1 0.5 1 1v4c0 0.6-0.5 1-1 1zm0-8c-0.6 0-1-0.4-1-1v-4c0-0.5 0.4-1 1-1 0.5 0 1 0.5 1 1v4c0 0.6-0.5 1-1 1z"/>
			</g>
			<path id="&lt;Compound Path&gt;" class="s30" d="m490.3 271.6l20.2 11.7c0.8 0.5 2.1 0.5 3 0 0.8-0.5 0.8-1.3 0-1.8l-20.2-11.6c-0.8-0.5-2.2-0.5-3 0-0.8 0.5-0.8 1.3 0 1.7zm18.1 12.9l-20.1-11.7c-0.9-0.4-2.2-0.4-3 0-0.9 0.5-0.8 1.3 0 1.8l20.1 11.6c0.8 0.5 2.2 0.5 3 0 0.8-0.5 0.8-1.3 0-1.7zm-5 2.9l-20.2-11.6c-0.8-0.5-2.1-0.5-3-0.1-0.8 0.5-0.8 1.3 0 1.8l20.2 11.6c0.8 0.5 2.1 0.5 3 0 0.8-0.5 0.8-1.2 0-1.7z"/>
			<g id="&lt;Group&gt;">
				<g id="&lt;Group&gt;">
					<path id="&lt;Path&gt;" class="s2" d="m406.4 517.9l-146-84.4 280.2-162.6 146.1 84.3z"/>
					<path id="&lt;Path&gt;" class="s2" d="m407 516.1l-144-83.2 276.8-160.6 144 83.1z"/>
					<path id="&lt;Path&gt;" class="s3" d="m407.5 514.2l-141.9-81.9 273.3-158.7 142 82z"/>
					<path id="&lt;Path&gt;" class="s3" d="m408.1 512.4l-139.9-80.8 269.9-156.6 139.9 80.8z"/>
					<path id="&lt;Path&gt;" class="s3" d="m408.6 510.6l-137.9-79.6 266.6-154.7 137.9 79.6z"/>
					<path id="&lt;Path&gt;" class="s3" d="m409.2 508.8l-135.9-78.4 263.1-152.7 135.9 78.4z"/>
					<path id="&lt;Path&gt;" class="s4" d="m409.8 507l-133.9-77.2 259.7-150.8 133.8 77.3z"/>
					<path id="&lt;Path&gt;" class="s4" d="m410.3 505.2l-131.8-76.1 256.3-148.7 131.7 76z"/>
					<path id="&lt;Path&gt;" class="s4" d="m410.9 503.4l-129.8-74.9 252.8-146.8 129.8 74.9z"/>
					<path id="&lt;Path&gt;" class="s5" d="m411.4 501.6l-127.7-73.7 249.4-144.8 127.7 73.7z"/>
					<path id="&lt;Path&gt;" class="s5" d="m412 499.8l-125.7-72.6 246-142.8 125.6 72.6z"/>
					<path id="&lt;Path&gt;" class="s5" d="m412.5 498l-123.6-71.4 242.5-140.8 123.6 71.3z"/>
				</g>
				<path id="&lt;Path&gt;" class="s35" d="m408.3 493.8l-141-81.4 271.7-157.6 140.9 81.3z"/>
				<path id="&lt;Path&gt;" class="s36" d="m648.1 354.7l-141-81.4 38.3-22.2 140.9 81.3z"/>
				<path id="&lt;Path&gt;" class="s37" d="m413 469.6l-39.2-22.6c-3.9-2.2-3.4-6.1 1-8.6 4.4-2.6 11.1-2.8 14.9-0.6l39.3 22.6c3.8 2.2 3.3 6.1-1.1 8.6-4.4 2.5-11.1 2.8-14.9 0.6z"/>
				<path id="&lt;Compound Path&gt;" fill-rule="evenodd" class="s38" d="m362.1 431c-4.4 2.6-11.5 2.6-15.9 0l-37.1-21.4c-4.4-2.5-4.4-6.6 0-9.2 4.4-2.5 11.5-2.5 16 0l37 21.4c4.4 2.6 4.4 6.7 0 9.2zm-38.3-29.8c-3.7-2.2-9.7-2.2-13.4 0-3.7 2.1-3.7 5.6 0 7.7l37 21.4c3.7 2.1 9.8 2.1 13.4 0 3.7-2.1 3.7-5.6 0-7.7z"/>
				<path id="&lt;Compound Path&gt;" fill-rule="evenodd" class="s34" d="m502.2 324.3l-27.1-15.6 26.6-15.4 27.1 15.6zm-0.4-28.8l-22.8 13.2 23.2 13.4 22.8-13.1z"/>
				<path id="&lt;Path&gt;" class="s34" d="m575.4 344.3l-46.2-26.7 1.8-1 46.3 26.7z"/>
				<path id="&lt;Path&gt;" class="s34" d="m460.7 457.5l-131.9-76.2 0.6-0.3 131.9 76.2z"/>
				<path id="&lt;Path&gt;" class="s34" d="m570 347.4l-46.2-26.7 1.9-1 46.2 26.7z"/>
				<path id="&lt;Path&gt;" class="s34" d="m549.4 341.8l-31.1-17.9 1.9-1.1 31.1 18z"/>
				<path id="&lt;Compound Path&gt;" fill-rule="evenodd" class="s34" d="m453.7 352.3l-27.1-15.7 26.7-15.3 27.1 15.6zm-0.5-28.8l-22.8 13.2 23.2 13.4 22.8-13.2z"/>
				<path id="&lt;Path&gt;" class="s34" d="m527 372.3l-46.3-26.7 1.9-1.1 46.2 26.7z"/>
				<path id="&lt;Path&gt;" class="s34" d="m521.6 375.4l-46.3-26.7 1.9-1.1 46.3 26.7z"/>
				<path id="&lt;Path&gt;" class="s34" d="m501 369.8l-31.1-17.9 1.9-1.1 31.1 17.9z"/>
				<path id="&lt;Compound Path&gt;" fill-rule="evenodd" class="s34" d="m405.1 380.3l-27.1-15.6 26.7-15.4 27.1 15.7zm-0.5-28.8l-22.8 13.1 23.3 13.4 22.8-13.1z"/>
				<path id="&lt;Path&gt;" class="s34" d="m478.4 400.4l-46.3-26.7 1.9-1.1 46.2 26.7z"/>
				<path id="&lt;Path&gt;" class="s34" d="m473 403.5l-46.2-26.7 1.8-1.1 46.3 26.7z"/>
				<path id="&lt;Path&gt;" class="s34" d="m452.4 397.9l-31.1-18 1.9-1.1 31.1 18z"/>
				<g id="&lt;Group&gt;">
					<path id="&lt;Compound Path&gt;" fill-rule="evenodd" class="s34" d="m598.6 366.3c-3.1-1.9-3.2-4.9 0-6.7 3.2-1.8 8.4-1.8 11.6 0 3.2 1.9 3.2 4.9 0 6.7-3.2 1.8-8.4 1.8-11.6 0zm10.8-6.2c-2.8-1.6-7.2-1.6-10 0-2.7 1.5-2.7 4.1 0.1 5.7 2.7 1.6 7.2 1.6 9.9 0 2.7-1.6 2.7-4.1 0-5.7z"/>
					<path id="&lt;Path&gt;" class="s34" d="m605.6 363.6h1.6c0.7 0 1.2-0.3 1.2-0.6 0-0.4-0.5-0.7-1.2-0.7h-1.6v-1c0-0.4-0.6-0.7-1.2-0.7-0.6 0-1.2 0.3-1.2 0.7v1h-1.6c-0.7 0-1.2 0.3-1.2 0.6q0 0.3 0.4 0.5 0.3 0.2 0.8 0.2h1.6l0.1 1q0 0.3 0.3 0.5 0.3 0.1 0.8 0.2c0.7 0 1.2-0.3 1.2-0.7z"/>
				</g>
				<g id="&lt;Group&gt;">
					<path id="&lt;Compound Path&gt;" fill-rule="evenodd" class="s34" d="m550.8 393.9c-3.2-1.9-3.2-4.9 0-6.7 3.2-1.8 8.4-1.8 11.6 0 3.2 1.9 3.2 4.9 0 6.7-3.2 1.8-8.4 1.8-11.6 0zm10.7-6.2c-2.7-1.6-7.2-1.6-9.9 0-2.7 1.6-2.7 4.1 0 5.7 2.8 1.6 7.2 1.6 10 0 2.7-1.5 2.7-4.1-0.1-5.7z"/>
					<path id="&lt;Path&gt;" class="s34" d="m557.8 391.2h1.6c0.7 0 1.2-0.3 1.2-0.6 0-0.4-0.5-0.7-1.2-0.7h-1.6l-0.1-1c0-0.3-0.5-0.6-1.1-0.6-0.7 0-1.2 0.3-1.2 0.6v1h-1.6c-0.7 0-1.2 0.3-1.2 0.7q0 0.2 0.3 0.4 0.4 0.2 0.9 0.2h1.6v1q0 0.3 0.4 0.5 0.3 0.2 0.8 0.2c0.6 0 1.2-0.3 1.2-0.7z"/>
				</g>
				<g id="&lt;Group&gt;">
					<path id="&lt;Compound Path&gt;" fill-rule="evenodd" class="s34" d="m501.8 422.2c-3.2-1.9-3.2-4.9 0-6.7 3.2-1.8 8.4-1.8 11.6 0 3.2 1.9 3.2 4.9 0 6.7-3.2 1.8-8.4 1.8-11.6 0zm10.7-6.2c-2.7-1.6-7.2-1.6-9.9 0-2.7 1.6-2.7 4.1 0 5.7 2.8 1.6 7.2 1.6 10 0 2.7-1.6 2.7-4.1-0.1-5.7z"/>
					<path id="&lt;Path&gt;" class="s34" d="m508.8 419.5h1.6c0.7 0 1.2-0.3 1.2-0.6 0-0.4-0.5-0.7-1.2-0.7h-1.6l-0.1-1c0-0.4-0.5-0.7-1.1-0.7-0.7 0-1.2 0.3-1.2 0.7v1h-1.6c-0.7 0-1.2 0.3-1.2 0.6q0 0.3 0.3 0.5 0.4 0.2 0.9 0.2h1.6v1q0 0.3 0.4 0.5 0.3 0.1 0.8 0.2c0.6 0 1.2-0.3 1.2-0.7z"/>
				</g>
				<path id="&lt;Path&gt;" class="s39" d="m570.1 278.4l-17.8-10.2 1.8-2.2c0.2-0.3 0.1-0.5-0.2-0.7l-5.2-3c-0.4-0.3-1.1-0.3-1.5 0-0.5 0.2-0.4 0.6 0 0.9l4.6 2.6-10.3 12.6c-0.2 0.3-0.1 0.6 0.2 0.8l1.6 0.9q-0.1 0-0.3 0c-1.6 0-2.9 0.7-2.8 1.6 0 0.9 1.2 1.7 2.8 1.7 1.6 0 2.9-0.7 2.9-1.7q0-0.1-0.1-0.1l3.6 2q-0.1 0-0.3 0c-1.6 0-2.9 0.7-2.9 1.6 0 1 1.3 1.7 2.9 1.7 1.6 0 2.9-0.7 2.9-1.6q0-0.1-0.1-0.2l0.8 0.4c0.4 0.2 1.1 0.3 1.5 0 0.5-0.2 0.5-0.6 0-0.9l-10.4-6 2.1-2.6 12.7 7.4c0.8 0.4 2 0.5 2.9 0.2l8.2-3.1c1.3-0.5 1.4-1.5 0.4-2.1z"/>
				<path id="&lt;Path&gt;" class="s40" d="m567.8 278.6c-3.8 2.2-10.1 2.2-14 0-3.9-2.3-3.9-5.9 0-8.1 3.8-2.3 10.1-2.3 14 0 3.9 2.2 3.9 5.8 0 8.1z"/>
				<g id="&lt;Group&gt;">
					<path id="&lt;Compound Path&gt;" class="s33" d="m562.3 274.9q0.6 0.5 0.5 1-0.1 0.6-0.9 1-0.5 0.3-1.2 0.5-0.6 0.1-1.2 0-0.7 0-1.4-0.2-0.7-0.2-1.4-0.6-0.8-0.5-1.2-1-0.4-0.6-0.3-1.1l1.9-0.1q-0.1 0.3 0.1 0.7 0.2 0.3 0.8 0.7 0.7 0.4 1.3 0.4 0.7 0.1 1.2-0.2 0.6-0.4 0.5-0.8-0.1-0.4-1-0.9l-0.3-0.2 1.1-0.6 0.4 0.2q0.7 0.4 1.4 0.4 0.6 0.1 1.1-0.2 0.5-0.3 0.4-0.6-0.1-0.3-0.6-0.6-0.5-0.2-1.2-0.3-0.6-0.1-1.3-0.1l0.1-1.1q0.4 0 0.9 0 0.5 0 1 0.2 0.5 0.1 1 0.3 0.5 0.2 0.9 0.4 0.6 0.3 0.9 0.7 0.3 0.3 0.4 0.7 0.1 0.3-0.1 0.6-0.2 0.3-0.6 0.6-0.3 0.2-0.7 0.3-0.4 0.1-0.8 0.1-0.5 0.1-0.9 0-0.4 0-0.8-0.2z"/>
				</g>
				<path id="&lt;Path&gt;" class="s41" d="m652.3 335.1h6.9c0.6 0 1.1-0.2 1.1-0.6 0-0.3-0.5-0.6-1.1-0.6h-6.9v-4c0-0.4-0.5-0.7-1.1-0.7-0.6 0-1.1 0.3-1.1 0.7v4l-6.9-0.1c-0.6 0-1.1 0.3-1.1 0.7q0 0.2 0.3 0.4 0.3 0.2 0.8 0.2h6.9v4q0 0.3 0.3 0.5 0.4 0.1 0.8 0.2c0.6 0 1.1-0.3 1.1-0.7z"/>
				<path id="&lt;Path&gt;" class="s42" d="m408.3 492.3l-138.8-81.1-2.2 1.2 141 81.4 277.7-161.4-2.2-0.2z"/>
			</g>
			<g id="&lt;Group&gt;">
				<g id="&lt;Group&gt;">
					<path id="&lt;Path&gt;" class="s2" d="m539.5 408.9l-149.1-86.1 59.3-34 149.1 86.1z"/>
					<path id="&lt;Path&gt;" class="s2" d="m539.1 407.6l-146.8-84.8 57.7-33.1 146.8 84.7z"/>
					<path id="&lt;Path&gt;" class="s3" d="m538.6 406.3l-144.4-83.5 56.2-32.3 144.5 83.5z"/>
					<path id="&lt;Path&gt;" class="s3" d="m538.2 404.9l-142.2-82 54.7-31.5 142.2 82.1z"/>
					<path id="&lt;Path&gt;" class="s3" d="m537.8 403.6l-139.9-80.7 53.2-30.6 139.8 80.8z"/>
					<path id="&lt;Path&gt;" class="s3" d="m537.3 402.3l-137.5-79.4 51.6-29.7 137.6 79.4z"/>
					<path id="&lt;Path&gt;" class="s4" d="m536.9 401l-135.2-78.1 50.1-28.8 135.2 78.1z"/>
					<path id="&lt;Path&gt;" class="s4" d="m536.5 399.7l-133-76.7 48.7-28 132.9 76.7z"/>
					<path id="&lt;Path&gt;" class="s4" d="m536 398.4l-130.6-75.4 47.1-27.1 130.6 75.4z"/>
					<path id="&lt;Path&gt;" class="s5" d="m535.6 397.1l-128.3-74.1 45.6-26.3 128.3 74.1z"/>
					<path id="&lt;Path&gt;" class="s5" d="m535.2 395.8l-126-72.8 44-25.4 126 72.8z"/>
					<path id="&lt;Path&gt;" class="s5" d="m534.7 394.5l-123.7-71.4 42.6-24.6 123.6 71.4z"/>
				</g>
				<path id="&lt;Path&gt;" class="s43" d="m541.3 394.9l-138.8-80.1 47.7-27.6 138.8 80.1z"/>
				<path id="&lt;Compound Path&gt;" fill-rule="evenodd" class="s30" d="m453.3 332.9l-26.7-15.4 26.3-15.2 26.6 15.4zm-0.4-28.3l-22.4 12.9 22.8 13.2 22.5-12.9z"/>
				<path id="&lt;Path&gt;" class="s30" d="m525.4 352.6l-45.5-26.3 1.8-1.1 45.6 26.3z"/>
				<path id="&lt;Path&gt;" class="s30" d="m520.1 355.6l-45.5-26.3 1.9-1 45.5 26.3z"/>
				<path id="&lt;Path&gt;" class="s30" d="m499.9 350.1l-30.7-17.7 1.9-1 30.6 17.7z"/>
				<g id="&lt;Group&gt;" style="mix-blend-mode: screen">
					<path id="&lt;Compound Path&gt;" fill-rule="evenodd" class="s30" d="m548.9 373.8c-3.1-1.8-3.1-4.7 0-6.6 3.1-1.8 8.2-1.8 11.4 0.1 3.1 1.8 3.1 4.7 0 6.5-3.1 1.8-8.2 1.8-11.4 0zm10.6-6.1c-2.7-1.5-7.1-1.5-9.8 0-2.7 1.6-2.7 4.1 0 5.7 2.7 1.5 7.1 1.5 9.8 0 2.7-1.6 2.7-4.1 0-5.7z"/>
					<path id="&lt;Path&gt;" class="s30" d="m555.8 371.2h1.6c0.6 0 1.1-0.3 1.1-0.7 0-0.3-0.5-0.6-1.1-0.6h-1.7v-1c0-0.3-0.5-0.6-1.1-0.6-0.6 0-1.2 0.3-1.2 0.6v1h-1.6c-0.6 0-1.1 0.3-1.1 0.6q0 0.3 0.3 0.5 0.3 0.2 0.8 0.2h1.7v0.9q0 0.3 0.3 0.5 0.3 0.2 0.8 0.2c0.6 0 1.2-0.3 1.2-0.7z"/>
				</g>
			</g>
			<g id="&lt;Group&gt;" style="mix-blend-mode: screen">
				<g id="&lt;Group&gt;">
					<path id="&lt;Compound Path&gt;" fill-rule="evenodd" class="s34" d="m428.9 279l-97.2-56.1 86.2-49.8 97.2 56.2zm-11-103.6l-82.1 47.4 93.1 53.8 82.1-47.4z"/>
				</g>
				<g id="&lt;Group&gt;">
					<path id="&lt;Compound Path&gt;" fill-rule="evenodd" class="s34" d="m318 261.3l-38.3-22.2 27.9-16 38.3 22.1zm-10.4-35.9l-23.8 13.8 34.2 19.7 23.8-13.7z"/>
					<path id="&lt;Compound Path&gt;" fill-rule="evenodd" class="s34" d="m359.4 285.1l-38.3-22.1 27.8-16.1 38.4 22.2zm-10.5-35.9l-23.7 13.7 34.2 19.8 23.7-13.7z"/>
					<path id="&lt;Compound Path&gt;" fill-rule="evenodd" class="s34" d="m400.7 309l-38.3-22.1 27.9-16.1 38.3 22.1zm-10.4-35.8l-23.8 13.7 34.2 19.7 23.8-13.7z"/>
				</g>
				<g id="&lt;Group&gt;">
					<path id="&lt;Path&gt;" class="s34" d="m377.1 322.2l-120.6-69.6 3.7-2.2 120.7 69.7z"/>
				</g>
				<g id="&lt;Group&gt;">
					<path id="&lt;Path&gt;" class="s34" d="m366.3 328.5l-120.6-69.7 3.7-2.2 120.7 69.7z"/>
				</g>
				<g id="&lt;Group&gt;">
					<path id="&lt;Path&gt;" class="s34" d="m298.1 301.8l-63.4-36.6 3.8-2.2 63.4 36.6z"/>
				</g>
				<g id="&lt;Group&gt;">
					<path id="&lt;Path&gt;" class="s34" d="m137.1 341.6c-0.6-0.6-0.9-1.2-0.9-1.9-0.1-0.4 0.5-0.7 1.2-0.7 0.9 0 1.8-0.1 2.7-0.3 0.4 0.2 1.2 0.3 1.7 0 0.4-0.3 0.6-0.6 0.4-0.8 1.7-1.2 2.6-2.5 0-4-2.5-1.5-4.9-1-6.8 0-0.4-0.1-1 0-1.5 0.2-0.4 0.3-0.3 0.8-0.1 1-0.3 0.5-0.5 1.1-0.5 1.6 0 0.4-0.5 0.7-1.2 0.7-1.1 0-2.2-0.2-3.2-0.6-1.4-0.4-3.1-0.4-4.3 0.3l-1.9 1.2c-0.4 0.2-0.4 0.5 0 0.8l10.6 6.1c0.4 0.2 1 0.2 1.4 0l2-1.2c1.1-0.6 1.3-1.6 0.4-2.4z"/>
				</g>
				<g id="&lt;Group&gt;">
					<path id="&lt;Compound Path&gt;" fill-rule="evenodd" class="s34" d="m240 399.5l0.6 1.5q-1.2 0.4-2.5 0.6l-1.4-1.3q-1.1 0.1-2.2 0l-1.4 1.3q-1.3-0.2-2.5-0.6l0.6-1.5q-0.5-0.2-0.9-0.5-0.4-0.2-0.7-0.5l-2.6 0.4q-0.7-0.7-1-1.4l2.2-0.8q-0.2-0.7 0-1.4l-2.3-0.8q0.4-0.7 1.1-1.4l2.6 0.4q0.3-0.3 0.7-0.5 0.4-0.3 0.9-0.5l-0.7-1.5q1.2-0.4 2.5-0.6l1.4 1.4q1.1-0.1 2.3 0l1.4-1.3q1.3 0.2 2.5 0.6l-0.7 1.5q0.5 0.1 0.9 0.4 0.4 0.2 0.8 0.5l2.6-0.4q0.7 0.7 1 1.5l-2.3 0.8q0.2 0.6 0 1.3l2.3 0.8q-0.3 0.7-1 1.4l-2.6-0.3q-0.3 0.2-0.7 0.5-0.5 0.2-0.9 0.4zm-2.3-2.3c1.2-0.6 1.2-1.7 0-2.4-1.2-0.7-3.1-0.7-4.3 0-1.1 0.7-1.1 1.8 0.1 2.4 1.1 0.7 3 0.7 4.2 0z"/>
				</g>
				<g id="&lt;Group&gt;">
					<path id="&lt;Compound Path&gt;" class="s34" d="m153.8 357.3l3.3 1.9 5.9-3.4-3.3-1.9zm4.9 2.9l3.3 1.8 9.6-5.5-3.3-1.9zm18.3-4.8l-13.4 7.7 3.3 1.8 13.3-7.7z"/>
				</g>
				<g id="&lt;Group&gt;">
					<path id="&lt;Path&gt;" class="s34" d="m210.9 375c-1.4-0.8-3.4-1-5.1-0.7 0.5-1 0.1-2.2-1.3-3-2-1.1-5.2-1.2-7.2 0-3.7 2.1-1.3 8.6-1.3 8.6 0 0 11.3 1.4 14.9-0.7 2-1.2 2-3 0-4.2z"/>
				</g>
				<g id="&lt;Group&gt;">
					<g id="&lt;Group&gt;">
						<path id="&lt;Compound Path&gt;" class="s34" d="m436.6 132.5l20.2 11.6c0.8 0.5 2.2 0.5 3 0 0.8-0.4 0.8-1.2 0-1.7l-20.2-11.6c-0.8-0.5-2.2-0.5-3-0.1-0.8 0.5-0.8 1.3 0 1.8zm18.1 12.8l-20.2-11.6c-0.8-0.5-2.1-0.5-3 0-0.8 0.4-0.8 1.2 0.1 1.7l20.1 11.6c0.9 0.5 2.2 0.5 3 0 0.9-0.4 0.8-1.2 0-1.7zm-5 2.9l-20.2-11.6c-0.8-0.5-2.2-0.5-3 0-0.8 0.5-0.8 1.2 0 1.7l20.2 11.7c0.8 0.4 2.1 0.4 3 0 0.8-0.5 0.8-1.3 0-1.8z"/>
					</g>
					<g id="&lt;Group&gt;">
						<path id="&lt;Compound Path&gt;" fill-rule="evenodd" class="s34" d="m227.8 422.2l-144.1-83.2c-9.5-5.5-9.5-14.4-0.1-19.8l339.4-196c9.4-5.4 24.8-5.4 34.3 0.1l144.1 83.2c9.5 5.5 9.5 14.4 0.1 19.8l-339.4 196c-9.4 5.4-24.8 5.4-34.3-0.1zm228.1-298.1c-8.7-5-22.9-5.1-31.6-0.1l-339.3 196c-8.7 5-8.7 13.2 0.1 18.2l144.1 83.2c8.7 5 22.9 5.1 31.6 0.1l339.3-196c8.7-5 8.7-13.2-0.1-18.2z"/>
					</g>
					<g id="&lt;Group&gt;">
						<path id="&lt;Path&gt;" class="s34" d="m574.5 216.4c0 0.7-0.9 1.2-2 1.2-1.1 0-1.9-0.6-1.9-1.2 0-0.6 0.8-1.1 1.9-1.1 1.1 0 2 0.5 2 1.1z"/>
					</g>
					<g id="&lt;Group&gt;">
						<g id="&lt;Group&gt;">
							<path id="&lt;Path&gt;" class="s34" d="m571.5 207.5q-0.2 0-0.3 0v1.1q0.1 0 0.3 0c8 0 14.6 3.8 14.6 8.4q0 0 0 0.1h1.9q0-0.1 0-0.1c0-5.2-7.4-9.5-16.5-9.5z"/>
						</g>
						<g id="&lt;Group&gt;">
							<path id="&lt;Path&gt;" class="s34" d="m571.5 211.9q-0.1 0.1-0.3 0.1v1.1q0.2 0 0.3 0c3.8 0 6.8 1.7 6.8 3.9q0 0 0 0h2q0 0 0 0c0-2.8-4-5-8.8-5.1z"/>
						</g>
						<g id="&lt;Group&gt;">
							<path id="&lt;Path&gt;" class="s34" d="m571.5 209.7q-0.2 0-0.3 0v1.1q0.2 0 0.3 0c5.9 0 10.7 2.8 10.7 6.2q0 0 0 0l2 0.1q0-0.1 0-0.1c-0.1-4-5.7-7.3-12.7-7.3z"/>
						</g>
					</g>
					<g id="&lt;Group&gt;">
						<path id="&lt;Path&gt;" class="s34" d="m534 195.8l-58.2-33.6 3.8-2.2 58.2 33.6z"/>
					</g>
				</g>
				<g id="&lt;Group&gt;">
					<path id="&lt;Compound Path&gt;" fill-rule="evenodd" class="s34" d="m261.6 352.5l-57.2-33c-7.4-4.3-7.5-11.2-0.1-15.5 7.3-4.2 19.3-4.2 26.7 0.1l57.3 33c7.4 4.3 7.4 11.2 0.1 15.5-7.4 4.2-19.4 4.2-26.8-0.1zm-32.6-47.2c-6.3-3.6-16.4-3.7-22.7-0.1-6.2 3.6-6.1 9.5 0.1 13.1l57.2 33c6.3 3.7 16.5 3.7 22.7 0.1 6.2-3.6 6.2-9.5-0.1-13.1z"/>
				</g>
				<g id="&lt;Group&gt;">
					<path id="&lt;Path&gt;" class="s34" d="m470.8 265.1c-0.3-0.2-0.5-0.5-0.5-0.8 0-0.6 0.8-1.1 1.9-1.1h15.5v-8.9c0-0.6 0.8-1.1 1.9-1.1 1.1 0 2 0.5 2 1.1v11.2l-19.4-0.1c-0.5 0-1-0.1-1.4-0.3z"/>
				</g>
				<g id="&lt;Group&gt;">
					<path id="&lt;Path&gt;" class="s34" d="m355.4 198.5c-0.4-0.2-0.6-0.5-0.6-0.8v-11.2h19.4c1 0 1.9 0.5 1.9 1.1 0 0.6-0.8 1.1-1.9 1.1h-15.5v9c0 0.6-0.9 1.1-1.9 1.1-0.6 0-1.1-0.1-1.4-0.3z"/>
				</g>
			</g>
			<g id="&lt;Group&gt;" style="mix-blend-mode: screen">
				<path id="&lt;Path&gt;" class="s44" d="m235.8 172.4c0 1.2-1.6 2.1-3.7 2.1-2.1 0-3.8-0.9-3.8-2.1 0-1.2 1.7-2.2 3.8-2.2 2 0 3.7 1 3.7 2.2z"/>
				<path id="&lt;Path&gt;" class="s44" d="m247.7 179.3c0 1.2-1.6 2.1-3.7 2.1-2.1 0-3.8-1-3.8-2.2 0-1.1 1.7-2.1 3.8-2.1 2 0 3.7 1 3.7 2.2z"/>
				<path id="&lt;Path&gt;" class="s44" d="m251.7 179.7l-20.1-11.6 12-19.9-7.1-4.1c-0.6-0.3-0.6-0.9 0-1.2 0.6-0.3 1.5-0.3 2 0l8.4 4.8-11.9 19.9 18.8 10.9c0.5 0.3 0.5 0.9 0 1.2-0.6 0.3-1.5 0.3-2.1 0z"/>
				<path id="&lt;Path&gt;" class="s44" d="m256.7 176.4l-18.3-10.5c-0.5-0.3-0.5-0.9 0-1.2 0.6-0.3 1.5-0.3 2.1 0l17.4 10.1 13.4-5-26.2-15.2c-0.6-0.3-0.6-0.8 0-1.2 0.6-0.3 1.5-0.3 2 0l27.6 15.9c0.3 0.2 0.4 0.5 0.4 0.7-0.1 0.3-0.3 0.5-0.7 0.6l-15.9 6c-0.6 0.2-1.3 0.1-1.8-0.2z"/>
				<path id="&lt;Compound Path&gt;" fill-rule="evenodd" class="s44" d="m209.4 188.3c-22.7-13.1-22.8-34.3-0.3-47.3 22.6-13 59.3-13 82 0.1 22.6 13.1 22.8 34.3 0.2 47.3-22.5 13-59.3 13-81.9-0.1zm78.9-45.6c-21.1-12.2-55.4-12.3-76.4-0.1-21 12.1-20.9 31.9 0.2 44.1 21.2 12.2 55.5 12.3 76.5 0.1 21-12.1 20.9-31.9-0.3-44.1z"/>
				<path id="&lt;Compound Path&gt;" fill-rule="evenodd" class="s45" d="m197.9 194.9c-29.1-16.7-29.2-43.9-0.4-60.6 28.9-16.7 76-16.6 105.1 0.2 29 16.7 29.2 44 0.3 60.6-28.9 16.7-76 16.6-105-0.2zm100.6-58.1c-26.8-15.4-70.2-15.5-96.8-0.1-26.7 15.3-26.5 40.4 0.3 55.9 26.7 15.4 70.2 15.5 96.8 0.1 26.6-15.3 26.5-40.4-0.3-55.9z"/>
				<path id="&lt;Compound Path&gt;" fill-rule="evenodd" class="s46" d="m185.6 202c-35.9-20.7-36.1-54.3-0.4-74.9 35.6-20.5 93.8-20.4 129.7 0.3 35.9 20.7 36 54.3 0.4 74.9-35.7 20.6-93.9 20.5-129.7-0.3zm123.8-71.5c-32.8-18.9-86.1-19-118.7-0.2-32.7 18.9-32.5 49.6 0.3 68.6 32.9 18.9 86.2 19 118.8 0.2 32.6-18.8 32.5-49.6-0.4-68.6z"/>
			</g>
			<path id="&lt;Path&gt;" class="s47" d="m264.8 327.8c0 11-9 20-20 20-11.1 0-20-9-20-20 0-11.1 8.9-20 20-20 11 0 20 8.9 20 20z"/>
			<g id="&lt;Group&gt;">
				<path id="&lt;Compound Path&gt;" class="s34" d="m244.8 449.8c-0.6 0-1-0.5-1-1v-2.4c0-0.5 0.4-1 1-1 0.5 0 1 0.5 1 1v2.4c0 0.5-0.5 1-1 1zm0-6.4c-0.6 0-1-0.4-1-1v-4c0-0.5 0.4-1 1-1 0.5 0 1 0.5 1 1v4c0 0.6-0.5 1-1 1zm0-8c-0.6 0-1-0.4-1-1v-4c0-0.5 0.4-1 1-1 0.5 0 1 0.5 1 1v4c0 0.6-0.5 1-1 1zm0-8c-0.6 0-1-0.4-1-1v-4c0-0.5 0.4-1 1-1 0.5 0 1 0.5 1 1v4c0 0.6-0.5 1-1 1zm0-8c-0.6 0-1-0.4-1-1v-4c0-0.5 0.4-1 1-1 0.5 0 1 0.5 1 1v4c0 0.6-0.5 1-1 1zm0-8c-0.6 0-1-0.4-1-1v-4c0-0.5 0.4-1 1-1 0.5 0 1 0.5 1 1v4c0 0.6-0.5 1-1 1zm0-8c-0.6 0-1-0.4-1-1v-4c0-0.5 0.4-1 1-1 0.5 0 1 0.5 1 1v4c0 0.6-0.5 1-1 1zm0-8c-0.6 0-1-0.4-1-1v-4c0-0.5 0.4-1 1-1 0.5 0 1 0.5 1 1v4c0 0.6-0.5 1-1 1zm0-8c-0.6 0-1-0.4-1-1v-4c0-0.5 0.4-1 1-1 0.5 0 1 0.5 1 1v4c0 0.6-0.5 1-1 1zm0-8c-0.6 0-1-0.4-1-1v-4c0-0.5 0.4-1 1-1 0.5 0 1 0.5 1 1v4c0 0.6-0.5 1-1 1zm0-8c-0.6 0-1-0.4-1-1v-4c0-0.5 0.4-1 1-1 0.5 0 1 0.5 1 1v4c0 0.6-0.5 1-1 1zm0-8c-0.6 0-1-0.4-1-1v-4c0-0.5 0.4-1 1-1 0.5 0 1 0.5 1 1v4c0 0.6-0.5 1-1 1zm0-8c-0.6 0-1-0.4-1-1v-4c0-0.5 0.4-1 1-1 0.5 0 1 0.5 1 1v4c0 0.6-0.5 1-1 1zm0-8c-0.6 0-1-0.4-1-1v-4c0-0.5 0.4-1 1-1 0.5 0 1 0.5 1 1v4c0 0.6-0.5 1-1 1z"/>
			</g>
			<path id="&lt;Path&gt;" class="s48" d="m264.8 448.8c0 11-9 20-20 20-11.1 0-20-9-20-20 0-11.1 8.9-20 20-20 11 0 20 8.9 20 20z"/>
			<path id="&lt;Path&gt;" class="s49" d="m455.9 124.1c-8.7-5-22.9-5.1-31.6-0.1l-339.3 196c-8.7 5-8.7 13.2 0.1 18.2l144.1 83.2c8.7 5 22.9 5.1 31.6 0.1l339.3-196c8.7-5 8.7-13.2-0.1-18.2z"/>
		</g>
	</g>
</svg>